M48
;Layer_Color=9474304
;FILE_FORMAT=2:4
INCH,TZ
;TYPE=PLATED
T1F00S00C0.0118
T2F00S00C0.0157
T3F00S00C0.0197
T4F00S00C0.0300
T5F00S00C0.0315
T6F00S00C0.0354
T7F00S00C0.0394
T9F00S00C0.0984
T10F00S00C0.1260
%
T01
X25964Y5018
X26984Y9658
X25984Y11688
X23484Y12777
X23858Y13780
X29843Y9134
X30984Y8819
X30614Y8338
X19314Y9628
X18386Y9606
X20315Y14409
X16811Y14764
X13307Y14882
X10357Y9728
X9614Y9748
X5644Y8318
X6044Y7808
X12677Y5433
X5264Y5068
X3150Y4252
X3425Y2402
X3150Y6417
Y8583
Y10748
X2441Y10906
X1654Y11024
X2047Y13110
X1654Y15748
X2453Y20039
X2205Y22165
Y24567
X2244Y26654
X9724Y23031
X12974Y22648
X13268Y24764
X16890Y23504
X16734Y22628
X18740Y22441
X17913Y25315
X20118Y17441
X24213Y24685
X24803Y24961
X29331Y23504
X31094Y22398
X31724Y24318
X34117Y22386
X33584Y17278
X30984Y19638
X30079Y20221
X38454Y20208
X40244Y20198
X41968Y20221
X41850Y20933
X42835Y21181
X45315Y21457
X45544Y20078
X46114Y20028
X47244Y21181
X47717
X48307Y21890
X49016Y22047
X49055Y20669
X47795Y17283
X51339
X51924Y23548
X48780Y25118
X46181Y23819
X45197
X42874Y23898
X39173
X39976Y22947
X37598Y22362
X36772Y23898
X37134Y17258
X40634Y17248
X44214
X54882Y17283
X58425Y17244
X57323Y19961
X56142Y20669
Y22047
X55591Y23583
X52598Y22047
X52638Y20669
T02
X30315Y7717
X26874Y12160
X31024Y17047
T03
X53306Y12014
X54724Y12598
X56866Y12033
X58150Y12598
Y15000
X51181Y12598
X49779Y12033
X47638Y12598
X46216Y12014
X44094Y12598
X42693Y12033
X40551Y12598
X39173Y12047
X37008Y12598
X35631Y12048
X33465Y12598
X30669Y4961
X20197Y20591
X5945Y24331
X25236Y26693
X30276Y16457
T04
X57087Y27953
X58087
X59087
T05
X7480Y17260
Y18260
Y19260
Y20260
Y21260
X9480
Y20260
Y19260
Y18260
Y17260
X11811
Y18260
Y19260
Y20260
Y21260
X13811
Y20260
Y19260
Y18260
Y17260
X16142
Y18260
Y19260
Y20260
Y21260
X18142
Y20260
Y19260
Y18260
Y17260
X21260Y17323
X22244
X23228
X24213
X25197
X26181
X27165
X28150
Y23228
X27165
X26181
X25197
X24213
X23228
X22244
X21260
T06
X37280Y2894
X38280
X39280
X40280
Y3894
X39280
X38280
X37280
X36280
Y2894
X35280
Y3894
X34280
Y2894
X33280
Y3894
X32280
Y2894
X31280
Y3894
X30280
Y2894
X29280
Y3894
X28280
Y2894
X27280
Y3894
X26280
Y2894
X25280
Y3894
X24280
Y2894
X23280
Y3894
X22280
Y2894
X21280
Y3894
Y27693
X22280
X23280
X24280
X25280
X26280
X27280
X28280
X29280
X30280
X31280
X32280
X33280
X34280
X35280
X36280
Y28693
X35280
X34280
X33280
X32280
X31280
X30280
X29280
X28280
X27280
X26280
X25280
X24280
X23280
X22280
X21280
X32677Y24803
X33677
X34677
X35677
X36677
X37677
X38677
X39677
X40677
X41677
X42677
X43677
X44677
X45677
X46677
X47677
X40280Y27693
Y28693
X39280
Y27693
X38280
Y28693
X37280
Y27693
T07
X8358Y2453
X9358
Y3453
X8358
T09
X60039Y12598
X30512
Y24803
X60039
T10
X52929Y3543
X13386
Y28043
X52929
M30
