G04*
G04 #@! TF.GenerationSoftware,Altium Limited,Altium Designer,22.8.2 (66)*
G04*
G04 Layer_Physical_Order=2*
G04 Layer_Color=16711680*
%FSLAX25Y25*%
%MOIN*%
G70*
G04*
G04 #@! TF.SameCoordinates,212F37CB-D32F-4CA9-9F40-9CB884434D69*
G04*
G04*
G04 #@! TF.FilePolarity,Positive*
G04*
G01*
G75*
%ADD16C,0.01000*%
%ADD52C,0.02362*%
%ADD56C,0.02000*%
%ADD57C,0.01500*%
%ADD58R,0.05906X0.05906*%
%ADD59C,0.05906*%
G04:AMPARAMS|DCode=60|XSize=86.61mil|YSize=118.11mil|CornerRadius=21.65mil|HoleSize=0mil|Usage=FLASHONLY|Rotation=90.000|XOffset=0mil|YOffset=0mil|HoleType=Round|Shape=RoundedRectangle|*
%AMROUNDEDRECTD60*
21,1,0.08661,0.07480,0,0,90.0*
21,1,0.04331,0.11811,0,0,90.0*
1,1,0.04331,0.03740,0.02165*
1,1,0.04331,0.03740,-0.02165*
1,1,0.04331,-0.03740,-0.02165*
1,1,0.04331,-0.03740,0.02165*
%
%ADD60ROUNDEDRECTD60*%
%ADD61O,0.06500X0.09000*%
%ADD62R,0.06500X0.09000*%
%ADD63O,0.06299X0.07087*%
G04:AMPARAMS|DCode=64|XSize=62.99mil|YSize=70.87mil|CornerRadius=15.75mil|HoleSize=0mil|Usage=FLASHONLY|Rotation=0.000|XOffset=0mil|YOffset=0mil|HoleType=Round|Shape=RoundedRectangle|*
%AMROUNDEDRECTD64*
21,1,0.06299,0.03937,0,0,0.0*
21,1,0.03150,0.07087,0,0,0.0*
1,1,0.03150,0.01575,-0.01968*
1,1,0.03150,-0.01575,-0.01968*
1,1,0.03150,-0.01575,0.01968*
1,1,0.03150,0.01575,0.01968*
%
%ADD64ROUNDEDRECTD64*%
%ADD65C,0.25000*%
%ADD66C,0.01968*%
%ADD67C,0.03150*%
G36*
X431541Y265748D02*
X431658Y265163D01*
X431989Y264667D01*
X432486Y264335D01*
X433071Y264219D01*
X512795D01*
X513381Y264335D01*
X513877Y264667D01*
X514208Y265163D01*
X514325Y265748D01*
Y291353D01*
X520545D01*
X520700Y290878D01*
X520497Y290730D01*
X518994Y289228D01*
X517745Y287509D01*
X516780Y285615D01*
X516124Y283594D01*
X515791Y281495D01*
Y279371D01*
X516124Y277272D01*
X516780Y275251D01*
X517745Y273358D01*
X518994Y271638D01*
X520497Y270136D01*
X522216Y268887D01*
X524109Y267922D01*
X526130Y267266D01*
X528229Y266933D01*
X530354D01*
X532453Y267266D01*
X534474Y267922D01*
X536367Y268887D01*
X538086Y270136D01*
X539589Y271638D01*
X540838Y273358D01*
X541802Y275251D01*
X542459Y277272D01*
X542791Y279371D01*
Y281495D01*
X542459Y283594D01*
X541802Y285615D01*
X540838Y287509D01*
X539589Y289228D01*
X538086Y290730D01*
X537883Y290878D01*
X538038Y291353D01*
X608707D01*
X608707Y24412D01*
X537899D01*
X537744Y24888D01*
X538086Y25136D01*
X539589Y26638D01*
X540838Y28357D01*
X541802Y30251D01*
X542459Y32272D01*
X542791Y34371D01*
Y36496D01*
X542459Y38594D01*
X541802Y40615D01*
X540838Y42509D01*
X539589Y44228D01*
X538086Y45730D01*
X536367Y46979D01*
X534474Y47944D01*
X532453Y48601D01*
X530354Y48933D01*
X528229D01*
X526130Y48601D01*
X524109Y47944D01*
X522216Y46979D01*
X520497Y45730D01*
X518994Y44228D01*
X517745Y42509D01*
X516780Y40615D01*
X516124Y38594D01*
X515791Y36496D01*
Y34371D01*
X516124Y32272D01*
X516780Y30251D01*
X517745Y28357D01*
X518994Y26638D01*
X520497Y25136D01*
X520838Y24888D01*
X520684Y24412D01*
X514915D01*
Y45276D01*
X514799Y45861D01*
X514467Y46357D01*
X513971Y46689D01*
X513386Y46805D01*
X462598D01*
X462013Y46689D01*
X461517Y46357D01*
X461186Y45861D01*
X461069Y45276D01*
Y24412D01*
X180363D01*
X179778Y24296D01*
X179281Y23964D01*
X156847Y1529D01*
X1529D01*
X1529Y291453D01*
X125250Y291453D01*
X125404Y290978D01*
X125064Y290730D01*
X123561Y289228D01*
X122312Y287509D01*
X121347Y285615D01*
X120691Y283594D01*
X120358Y281495D01*
Y279371D01*
X120691Y277272D01*
X121347Y275251D01*
X122312Y273358D01*
X123561Y271638D01*
X125064Y270136D01*
X126783Y268887D01*
X128676Y267922D01*
X130697Y267266D01*
X132796Y266933D01*
X134921D01*
X137020Y267266D01*
X139041Y267922D01*
X140934Y268887D01*
X142653Y270136D01*
X144156Y271638D01*
X145405Y273358D01*
X146369Y275251D01*
X147026Y277272D01*
X147358Y279371D01*
Y281495D01*
X147026Y283594D01*
X146369Y285615D01*
X145405Y287509D01*
X144156Y289228D01*
X142653Y290730D01*
X142312Y290978D01*
X142467Y291453D01*
X431541Y291453D01*
Y265748D01*
D02*
G37*
%LPC*%
G36*
X393316Y290882D02*
X392275D01*
X391270Y290613D01*
X390368Y290092D01*
X389632Y289356D01*
X389112Y288455D01*
X388843Y287450D01*
Y286409D01*
X389111Y285407D01*
X386962Y283259D01*
X386630Y282762D01*
X386514Y282177D01*
Y279394D01*
X386014Y279260D01*
X385958Y279356D01*
X385222Y280092D01*
X384321Y280612D01*
X383316Y280882D01*
X382275D01*
X381270Y280612D01*
X380368Y280092D01*
X379632Y279356D01*
X379589Y279280D01*
X379088Y279414D01*
Y281059D01*
X381274Y283245D01*
X382275Y282976D01*
X383316D01*
X384321Y283246D01*
X385222Y283766D01*
X385958Y284502D01*
X386479Y285403D01*
X386748Y286409D01*
Y287450D01*
X386479Y288455D01*
X385958Y289356D01*
X385222Y290092D01*
X384321Y290613D01*
X383316Y290882D01*
X382275D01*
X381270Y290613D01*
X380368Y290092D01*
X379632Y289356D01*
X379112Y288455D01*
X378842Y287450D01*
Y286409D01*
X379111Y285407D01*
X376478Y282774D01*
X376146Y282278D01*
X376030Y281693D01*
Y279992D01*
X375530Y279785D01*
X375222Y280092D01*
X374321Y280612D01*
X373316Y280882D01*
X372275D01*
X371270Y280612D01*
X370368Y280092D01*
X369632Y279356D01*
X369577Y279260D01*
X369077Y279394D01*
Y281048D01*
X371274Y283245D01*
X372275Y282976D01*
X373316D01*
X374321Y283246D01*
X375222Y283766D01*
X375958Y284502D01*
X376479Y285403D01*
X376748Y286409D01*
Y287450D01*
X376479Y288455D01*
X375958Y289356D01*
X375222Y290092D01*
X374321Y290613D01*
X373316Y290882D01*
X372275D01*
X371270Y290613D01*
X370368Y290092D01*
X369632Y289356D01*
X369112Y288455D01*
X368843Y287450D01*
Y286409D01*
X369111Y285407D01*
X366466Y282763D01*
X366134Y282266D01*
X366018Y281681D01*
Y280004D01*
X365518Y279797D01*
X365222Y280092D01*
X364321Y280612D01*
X363316Y280882D01*
X362275D01*
X361270Y280612D01*
X360368Y280092D01*
X359632Y279356D01*
X359577Y279260D01*
X359077Y279394D01*
Y281048D01*
X361274Y283245D01*
X362275Y282976D01*
X363316D01*
X364321Y283246D01*
X365222Y283766D01*
X365958Y284502D01*
X366479Y285403D01*
X366748Y286409D01*
Y287450D01*
X366479Y288455D01*
X365958Y289356D01*
X365222Y290092D01*
X364321Y290613D01*
X363316Y290882D01*
X362275D01*
X361270Y290613D01*
X360368Y290092D01*
X359632Y289356D01*
X359112Y288455D01*
X358842Y287450D01*
Y286409D01*
X359111Y285407D01*
X356466Y282763D01*
X356134Y282266D01*
X356018Y281681D01*
Y280004D01*
X355518Y279797D01*
X355222Y280092D01*
X354321Y280612D01*
X353316Y280882D01*
X352275D01*
X351270Y280612D01*
X350368Y280092D01*
X349632Y279356D01*
X349112Y278455D01*
X348843Y277449D01*
Y276409D01*
X349112Y275403D01*
X349632Y274502D01*
X350368Y273766D01*
X351270Y273246D01*
X352275Y272976D01*
X352693D01*
X352900Y272476D01*
X344417Y263993D01*
X343915Y263893D01*
X343419Y263562D01*
X330442Y250585D01*
X330111Y250089D01*
X329994Y249504D01*
Y244507D01*
X322478Y236990D01*
X322146Y236494D01*
X322030Y235909D01*
Y221499D01*
X322146Y220914D01*
X322478Y220418D01*
X329016Y213879D01*
X329074Y213840D01*
X328922Y213340D01*
X317169D01*
X295291Y235218D01*
Y235434D01*
X294989Y236163D01*
X294431Y236721D01*
X293702Y237024D01*
X292912D01*
X292183Y236721D01*
X291625Y236163D01*
X291323Y235434D01*
Y234645D01*
X291625Y233915D01*
X292183Y233357D01*
X292912Y233055D01*
X293128D01*
X314865Y211318D01*
X314674Y210856D01*
X299574D01*
X289718Y220712D01*
Y244248D01*
X300634Y255164D01*
X322559D01*
X323144Y255280D01*
X323640Y255611D01*
X341274Y273245D01*
X342275Y272976D01*
X343316D01*
X344321Y273246D01*
X345222Y273766D01*
X345958Y274502D01*
X346479Y275403D01*
X346748Y276409D01*
Y277449D01*
X346479Y278455D01*
X345958Y279356D01*
X345222Y280092D01*
X344321Y280612D01*
X343316Y280882D01*
X342275D01*
X341270Y280612D01*
X340368Y280092D01*
X340073Y279797D01*
X339573Y280004D01*
Y281544D01*
X341274Y283245D01*
X342275Y282976D01*
X343316D01*
X344321Y283246D01*
X345222Y283766D01*
X345958Y284502D01*
X346479Y285403D01*
X346748Y286409D01*
Y287450D01*
X346479Y288455D01*
X345958Y289356D01*
X345222Y290092D01*
X344321Y290613D01*
X343316Y290882D01*
X342275D01*
X341270Y290613D01*
X340368Y290092D01*
X339632Y289356D01*
X339112Y288455D01*
X338843Y287450D01*
Y286409D01*
X339111Y285407D01*
X336962Y283259D01*
X336630Y282762D01*
X336514Y282177D01*
Y279394D01*
X336014Y279260D01*
X335958Y279356D01*
X335222Y280092D01*
X334321Y280612D01*
X333316Y280882D01*
X332275D01*
X331270Y280612D01*
X330368Y280092D01*
X329632Y279356D01*
X329577Y279260D01*
X329077Y279394D01*
Y281048D01*
X331274Y283245D01*
X332275Y282976D01*
X333316D01*
X334321Y283246D01*
X335222Y283766D01*
X335958Y284502D01*
X336479Y285403D01*
X336748Y286409D01*
Y287450D01*
X336479Y288455D01*
X335958Y289356D01*
X335222Y290092D01*
X334321Y290613D01*
X333316Y290882D01*
X332275D01*
X331270Y290613D01*
X330368Y290092D01*
X329632Y289356D01*
X329112Y288455D01*
X328842Y287450D01*
Y286409D01*
X329111Y285407D01*
X326466Y282763D01*
X326134Y282266D01*
X326018Y281681D01*
Y280004D01*
X325518Y279797D01*
X325222Y280092D01*
X324321Y280612D01*
X323316Y280882D01*
X322275D01*
X321270Y280612D01*
X320368Y280092D01*
X319632Y279356D01*
X319577Y279260D01*
X319077Y279394D01*
Y281048D01*
X321274Y283245D01*
X322275Y282976D01*
X323316D01*
X324321Y283246D01*
X325222Y283766D01*
X325958Y284502D01*
X326479Y285403D01*
X326748Y286409D01*
Y287450D01*
X326479Y288455D01*
X325958Y289356D01*
X325222Y290092D01*
X324321Y290613D01*
X323316Y290882D01*
X322275D01*
X321270Y290613D01*
X320368Y290092D01*
X319632Y289356D01*
X319112Y288455D01*
X318843Y287450D01*
Y286409D01*
X319111Y285407D01*
X316466Y282763D01*
X316134Y282266D01*
X316018Y281681D01*
Y280004D01*
X315518Y279797D01*
X315222Y280092D01*
X314321Y280612D01*
X313316Y280882D01*
X312275D01*
X311270Y280612D01*
X310368Y280092D01*
X309632Y279356D01*
X309577Y279260D01*
X309077Y279394D01*
Y281048D01*
X311274Y283245D01*
X312275Y282976D01*
X313316D01*
X314321Y283246D01*
X315222Y283766D01*
X315958Y284502D01*
X316479Y285403D01*
X316748Y286409D01*
Y287450D01*
X316479Y288455D01*
X315958Y289356D01*
X315222Y290092D01*
X314321Y290613D01*
X313316Y290882D01*
X312275D01*
X311270Y290613D01*
X310368Y290092D01*
X309632Y289356D01*
X309112Y288455D01*
X308842Y287450D01*
Y286409D01*
X309111Y285407D01*
X306466Y282763D01*
X306134Y282266D01*
X306018Y281681D01*
Y280004D01*
X305518Y279797D01*
X305222Y280092D01*
X304321Y280612D01*
X303316Y280882D01*
X302275D01*
X301270Y280612D01*
X300368Y280092D01*
X299632Y279356D01*
X299112Y278455D01*
X298843Y277449D01*
Y276409D01*
X299112Y275403D01*
X299632Y274502D01*
X300368Y273766D01*
X301270Y273246D01*
X302275Y272976D01*
X302476D01*
X302700Y272479D01*
X302501Y272222D01*
X262819D01*
X262234Y272106D01*
X261737Y271774D01*
X240879Y250916D01*
X240548Y250420D01*
X240431Y249835D01*
Y247944D01*
X240142Y247245D01*
Y246456D01*
X240444Y245726D01*
X241002Y245168D01*
X241731Y244866D01*
X242521D01*
X243250Y245168D01*
X243808Y245726D01*
X244110Y246456D01*
Y247245D01*
X243808Y247974D01*
X243490Y248292D01*
Y249201D01*
X246040Y251751D01*
X246502Y251560D01*
Y250883D01*
X246349Y250730D01*
X246047Y250001D01*
Y249212D01*
X246349Y248482D01*
X246907Y247924D01*
X247267Y247775D01*
X247385Y247185D01*
X236293Y236093D01*
X235961Y235597D01*
X235845Y235012D01*
Y234956D01*
X235345Y234812D01*
X234711Y235447D01*
X233809Y235967D01*
X232804Y236236D01*
X231763D01*
X230758Y235967D01*
X229856Y235447D01*
X229120Y234711D01*
X228600Y233809D01*
X228331Y232804D01*
Y231763D01*
X228600Y230758D01*
X229120Y229856D01*
X229856Y229120D01*
X230758Y228600D01*
X231763Y228331D01*
X232804D01*
X233809Y228600D01*
X234711Y229120D01*
X235345Y229755D01*
X235845Y229611D01*
Y220106D01*
X235961Y219521D01*
X236293Y219025D01*
X259428Y195890D01*
X259236Y195428D01*
X251617D01*
X216283Y230762D01*
X216551Y231763D01*
Y232804D01*
X216282Y233809D01*
X215761Y234711D01*
X215025Y235447D01*
X214124Y235967D01*
X213119Y236236D01*
X212078D01*
X211073Y235967D01*
X210171Y235447D01*
X209435Y234711D01*
X208915Y233809D01*
X208646Y232804D01*
Y231763D01*
X208915Y230758D01*
X209435Y229856D01*
X210171Y229120D01*
X211073Y228600D01*
X212078Y228331D01*
X213119D01*
X214120Y228599D01*
X249524Y193195D01*
X249317Y192695D01*
X230535D01*
X229950Y192578D01*
X229454Y192247D01*
X214388Y177181D01*
X208646D01*
Y169815D01*
X208146Y169608D01*
X203165Y174588D01*
Y174804D01*
X202863Y175533D01*
X202305Y176092D01*
X201576Y176394D01*
X200786D01*
X200057Y176092D01*
X199499Y175533D01*
X199197Y174804D01*
Y174015D01*
X199499Y173285D01*
X200057Y172727D01*
X200786Y172425D01*
X201003D01*
X207974Y165454D01*
X208470Y165122D01*
X209055Y165006D01*
X285039D01*
X285625Y165122D01*
X286121Y165454D01*
X293547Y172880D01*
X309043D01*
X309142Y172380D01*
X309001Y172321D01*
X308387Y171708D01*
X308055Y170906D01*
Y170039D01*
X308387Y169237D01*
X308452Y169172D01*
Y163920D01*
X268314Y123783D01*
X268304D01*
X267502Y123451D01*
X266889Y122837D01*
X266557Y122035D01*
Y121168D01*
X266889Y120366D01*
X266953Y120301D01*
Y111577D01*
X267089Y110894D01*
X267476Y110316D01*
X300969Y76823D01*
Y76731D01*
X301301Y75930D01*
X301914Y75316D01*
X302716Y74984D01*
X303584D01*
X304385Y75316D01*
X304999Y75930D01*
X305331Y76731D01*
Y77599D01*
X304999Y78401D01*
X304385Y79014D01*
X303584Y79347D01*
X303492D01*
X270522Y112316D01*
Y120301D01*
X270587Y120366D01*
X270919Y121168D01*
Y121340D01*
X311498Y161919D01*
X311498Y161919D01*
X311885Y162498D01*
X312020Y163181D01*
Y169172D01*
X312085Y169237D01*
X312417Y170039D01*
Y170200D01*
X312879Y170391D01*
X313825Y169445D01*
Y94334D01*
X309664Y90173D01*
X309448D01*
X308718Y89871D01*
X308160Y89313D01*
X307858Y88584D01*
Y87794D01*
X308160Y87065D01*
X308718Y86507D01*
X309448Y86205D01*
X310237D01*
X310966Y86507D01*
X311525Y87065D01*
X311827Y87794D01*
Y88010D01*
X316436Y92619D01*
X316767Y93116D01*
X316884Y93701D01*
Y170079D01*
X316767Y170664D01*
X316436Y171160D01*
X312460Y175136D01*
X312667Y175636D01*
X532283D01*
X532869Y175752D01*
X533365Y176084D01*
X547839Y190558D01*
X548171Y191054D01*
X548228Y191340D01*
X561596Y204709D01*
X561812D01*
X562541Y205011D01*
X563099Y205569D01*
X563402Y206298D01*
Y207088D01*
X563099Y207817D01*
X562541Y208375D01*
X561812Y208677D01*
X561023D01*
X560293Y208375D01*
X559735Y207817D01*
X559433Y207088D01*
Y206872D01*
X545676Y193115D01*
X545345Y192619D01*
X545288Y192333D01*
X531650Y178695D01*
X501196D01*
X501005Y179157D01*
X526557Y204709D01*
X526773D01*
X527502Y205011D01*
X528060Y205569D01*
X528362Y206298D01*
Y207088D01*
X528060Y207817D01*
X527502Y208375D01*
X526773Y208677D01*
X525983D01*
X525254Y208375D01*
X524696Y207817D01*
X524394Y207088D01*
Y206872D01*
X498217Y180695D01*
X496533D01*
X496342Y181157D01*
X525073Y209888D01*
X552362D01*
X552948Y210004D01*
X553444Y210336D01*
X561596Y218488D01*
X561812D01*
X562541Y218790D01*
X563099Y219349D01*
X563402Y220078D01*
Y220867D01*
X563099Y221596D01*
X562541Y222155D01*
X561812Y222457D01*
X561023D01*
X560293Y222155D01*
X559735Y221596D01*
X559433Y220867D01*
Y220651D01*
X551729Y212947D01*
X524439D01*
X523854Y212830D01*
X523358Y212499D01*
X493554Y182695D01*
X469369D01*
X469178Y183157D01*
X490730Y204709D01*
X490946D01*
X491675Y205011D01*
X492233Y205569D01*
X492535Y206298D01*
Y207088D01*
X492233Y207817D01*
X491675Y208375D01*
X490946Y208677D01*
X490157D01*
X489427Y208375D01*
X488869Y207817D01*
X488567Y207088D01*
Y206872D01*
X466390Y184695D01*
X464645D01*
X464453Y185157D01*
X498240Y218943D01*
X524708D01*
X524860Y218790D01*
X525590Y218488D01*
X526379D01*
X527108Y218790D01*
X527666Y219349D01*
X527969Y220078D01*
Y220867D01*
X527666Y221596D01*
X527108Y222155D01*
X526379Y222457D01*
X525590D01*
X524860Y222155D01*
X524708Y222002D01*
X497606D01*
X497021Y221885D01*
X496525Y221554D01*
X461666Y186695D01*
X459196D01*
X459005Y187157D01*
X490336Y218488D01*
X490552D01*
X491282Y218790D01*
X491840Y219349D01*
X492142Y220078D01*
Y220867D01*
X491840Y221596D01*
X491282Y222155D01*
X490552Y222457D01*
X489763D01*
X489034Y222155D01*
X488475Y221596D01*
X488173Y220867D01*
Y220651D01*
X485293Y217771D01*
X484869Y218054D01*
X485055Y218503D01*
Y219292D01*
X484753Y220022D01*
X484195Y220580D01*
X483466Y220882D01*
X482676D01*
X481947Y220580D01*
X481857Y220490D01*
X388733D01*
X388542Y220952D01*
X395529Y227939D01*
X398487D01*
X398640Y227786D01*
X399369Y227484D01*
X400159D01*
X400888Y227786D01*
X401446Y228344D01*
X401748Y229074D01*
Y229863D01*
X401446Y230592D01*
X400888Y231151D01*
X400159Y231453D01*
X399369D01*
X398640Y231151D01*
X398487Y230998D01*
X394895D01*
X394310Y230882D01*
X393814Y230550D01*
X385754Y222490D01*
X383234D01*
X383027Y222990D01*
X402605Y242568D01*
X402937Y243064D01*
X403053Y243650D01*
Y245567D01*
X403553Y245701D01*
X403609Y245604D01*
X404345Y244868D01*
X405246Y244348D01*
X406251Y244079D01*
X407292D01*
X408297Y244348D01*
X409199Y244868D01*
X409494Y245164D01*
X409994Y244957D01*
Y239264D01*
X410111Y238679D01*
X410442Y238182D01*
X420966Y227659D01*
X421462Y227327D01*
X422047Y227211D01*
X548819D01*
X549404Y227327D01*
X549900Y227659D01*
X556084Y233842D01*
X556300D01*
X557029Y234145D01*
X557588Y234703D01*
X557890Y235432D01*
Y236222D01*
X557588Y236951D01*
X557059Y237479D01*
X557071Y237623D01*
X557200Y237980D01*
X566190D01*
X580893Y223277D01*
Y209794D01*
X572587Y201488D01*
X572104Y201289D01*
X571546Y200730D01*
X571244Y200001D01*
Y199212D01*
X571546Y198482D01*
X572104Y197924D01*
X572834Y197622D01*
X573623D01*
X574352Y197924D01*
X574910Y198482D01*
X575110Y198965D01*
X583939Y207793D01*
X584326Y208372D01*
X584461Y209055D01*
X584461Y209055D01*
Y224016D01*
X584461Y224016D01*
X584326Y224699D01*
X583939Y225277D01*
X583939Y225277D01*
X568191Y241025D01*
X567612Y241412D01*
X566929Y241548D01*
X499952D01*
X489677Y251822D01*
X489477Y252305D01*
X488919Y252863D01*
X488190Y253165D01*
X487401D01*
X486671Y252863D01*
X486113Y252305D01*
X485811Y251576D01*
Y250786D01*
X486113Y250057D01*
X486671Y249499D01*
X487154Y249299D01*
X497951Y238502D01*
X497951Y238502D01*
X498530Y238115D01*
X499213Y237980D01*
X554611D01*
X554740Y237623D01*
X554752Y237479D01*
X554223Y236951D01*
X553921Y236222D01*
Y236005D01*
X548185Y230270D01*
X516944D01*
X516753Y230732D01*
X519520Y233498D01*
X519632D01*
X520362Y233801D01*
X520920Y234359D01*
X521222Y235088D01*
Y235877D01*
X520920Y236607D01*
X520362Y237165D01*
X519632Y237467D01*
X518843D01*
X518114Y237165D01*
X517556Y236607D01*
X517254Y235877D01*
Y235558D01*
X514327Y232632D01*
X437248D01*
X430724Y239155D01*
Y239371D01*
X430422Y240100D01*
X429864Y240658D01*
X429135Y240961D01*
X428345D01*
X427616Y240658D01*
X427058Y240100D01*
X426756Y239371D01*
Y238582D01*
X427058Y237852D01*
X427616Y237294D01*
X428345Y236992D01*
X428561D01*
X434822Y230732D01*
X434631Y230270D01*
X422681D01*
X413053Y239897D01*
Y245567D01*
X413553Y245701D01*
X413609Y245604D01*
X414345Y244868D01*
X415246Y244348D01*
X416251Y244079D01*
X417292D01*
X418297Y244348D01*
X419199Y244868D01*
X419935Y245604D01*
X420455Y246506D01*
X420724Y247511D01*
Y248552D01*
X420455Y249557D01*
X419935Y250459D01*
X419199Y251195D01*
X418297Y251715D01*
X417292Y251984D01*
X416251D01*
X415246Y251715D01*
X414345Y251195D01*
X413609Y250459D01*
X413507Y250282D01*
X412980Y250369D01*
X412937Y250585D01*
X412605Y251081D01*
X394325Y269362D01*
Y273248D01*
X395222Y273766D01*
X395958Y274502D01*
X396479Y275403D01*
X396748Y276409D01*
Y277449D01*
X396479Y278455D01*
X395958Y279356D01*
X395222Y280092D01*
X394321Y280612D01*
X393316Y280882D01*
X392275D01*
X391270Y280612D01*
X390368Y280092D01*
X390073Y279797D01*
X389573Y280004D01*
Y281544D01*
X391274Y283245D01*
X392275Y282976D01*
X393316D01*
X394321Y283246D01*
X395222Y283766D01*
X395958Y284502D01*
X396479Y285403D01*
X396748Y286409D01*
Y287450D01*
X396479Y288455D01*
X395958Y289356D01*
X395222Y290092D01*
X394321Y290613D01*
X393316Y290882D01*
D02*
G37*
G36*
X303316D02*
X302275D01*
X301270Y290613D01*
X300368Y290092D01*
X299632Y289356D01*
X299112Y288455D01*
X298843Y287450D01*
Y286409D01*
X299112Y285403D01*
X299632Y284502D01*
X300368Y283766D01*
X301270Y283246D01*
X302275Y282976D01*
X303316D01*
X304321Y283246D01*
X305222Y283766D01*
X305958Y284502D01*
X306479Y285403D01*
X306748Y286409D01*
Y287450D01*
X306479Y288455D01*
X305958Y289356D01*
X305222Y290092D01*
X304321Y290613D01*
X303316Y290882D01*
D02*
G37*
G36*
X293316D02*
X292275D01*
X291270Y290613D01*
X290368Y290092D01*
X289632Y289356D01*
X289112Y288455D01*
X288843Y287450D01*
Y286409D01*
X289112Y285403D01*
X289632Y284502D01*
X290368Y283766D01*
X291270Y283246D01*
X292275Y282976D01*
X293316D01*
X294321Y283246D01*
X295222Y283766D01*
X295958Y284502D01*
X296479Y285403D01*
X296748Y286409D01*
Y287450D01*
X296479Y288455D01*
X295958Y289356D01*
X295222Y290092D01*
X294321Y290613D01*
X293316Y290882D01*
D02*
G37*
G36*
X283316D02*
X282275D01*
X281270Y290613D01*
X280368Y290092D01*
X279632Y289356D01*
X279112Y288455D01*
X278842Y287450D01*
Y286409D01*
X279112Y285403D01*
X279632Y284502D01*
X280368Y283766D01*
X281270Y283246D01*
X282275Y282976D01*
X283316D01*
X284321Y283246D01*
X285222Y283766D01*
X285958Y284502D01*
X286479Y285403D01*
X286748Y286409D01*
Y287450D01*
X286479Y288455D01*
X285958Y289356D01*
X285222Y290092D01*
X284321Y290613D01*
X283316Y290882D01*
D02*
G37*
G36*
X273316D02*
X272275D01*
X271270Y290613D01*
X270368Y290092D01*
X269632Y289356D01*
X269112Y288455D01*
X268843Y287450D01*
Y286409D01*
X269112Y285403D01*
X269632Y284502D01*
X270368Y283766D01*
X271270Y283246D01*
X272275Y282976D01*
X273316D01*
X274321Y283246D01*
X275222Y283766D01*
X275958Y284502D01*
X276479Y285403D01*
X276748Y286409D01*
Y287450D01*
X276479Y288455D01*
X275958Y289356D01*
X275222Y290092D01*
X274321Y290613D01*
X273316Y290882D01*
D02*
G37*
G36*
X253316D02*
X252275D01*
X251270Y290613D01*
X250368Y290092D01*
X249632Y289356D01*
X249112Y288455D01*
X248843Y287450D01*
Y286409D01*
X249111Y285407D01*
X246466Y282763D01*
X246134Y282266D01*
X246018Y281681D01*
Y280004D01*
X245518Y279797D01*
X245222Y280092D01*
X244321Y280612D01*
X243316Y280882D01*
X242275D01*
X241270Y280612D01*
X240368Y280092D01*
X239632Y279356D01*
X239577Y279260D01*
X239077Y279394D01*
Y281048D01*
X241274Y283245D01*
X242275Y282976D01*
X243316D01*
X244321Y283246D01*
X245222Y283766D01*
X245958Y284502D01*
X246479Y285403D01*
X246748Y286409D01*
Y287450D01*
X246479Y288455D01*
X245958Y289356D01*
X245222Y290092D01*
X244321Y290613D01*
X243316Y290882D01*
X242275D01*
X241270Y290613D01*
X240368Y290092D01*
X239632Y289356D01*
X239112Y288455D01*
X238843Y287450D01*
Y286409D01*
X239111Y285407D01*
X236466Y282763D01*
X236134Y282266D01*
X236018Y281681D01*
Y280004D01*
X235518Y279797D01*
X235222Y280092D01*
X234321Y280612D01*
X233316Y280882D01*
X232275D01*
X231270Y280612D01*
X230368Y280092D01*
X229632Y279356D01*
X229112Y278455D01*
X228842Y277449D01*
Y276409D01*
X229112Y275403D01*
X229632Y274502D01*
X230368Y273766D01*
X231270Y273246D01*
X232275Y272976D01*
X233316D01*
X234321Y273246D01*
X235222Y273766D01*
X235233Y273777D01*
X235770Y273607D01*
X235805Y273401D01*
X220233Y257829D01*
X206490D01*
X206299Y258291D01*
X221260Y273251D01*
X221270Y273246D01*
X222275Y272976D01*
X223316D01*
X224321Y273246D01*
X225222Y273766D01*
X225958Y274502D01*
X226479Y275403D01*
X226748Y276409D01*
Y277449D01*
X226479Y278455D01*
X225958Y279356D01*
X225222Y280092D01*
X224321Y280612D01*
X223316Y280882D01*
X222275D01*
X221270Y280612D01*
X220368Y280092D01*
X219632Y279356D01*
X219112Y278455D01*
X218843Y277449D01*
Y276409D01*
X219106Y275424D01*
X217210Y273527D01*
X216748Y273719D01*
Y280882D01*
X208842D01*
Y275139D01*
X186320Y252617D01*
X185989Y252121D01*
X185872Y251535D01*
Y225686D01*
X185719Y225533D01*
X185417Y224804D01*
Y224015D01*
X185719Y223286D01*
X186278Y222727D01*
X187007Y222425D01*
X187796D01*
X188526Y222727D01*
X188560Y222762D01*
X189022Y222570D01*
Y159761D01*
X182790Y153529D01*
X136252D01*
X135667Y153413D01*
X135170Y153081D01*
X132892Y150803D01*
X132676D01*
X131947Y150501D01*
X131389Y149943D01*
X131087Y149214D01*
Y148424D01*
X131389Y147695D01*
X131947Y147137D01*
X132676Y146835D01*
X133466D01*
X134195Y147137D01*
X134753Y147695D01*
X135055Y148424D01*
Y148640D01*
X136885Y150471D01*
X168127D01*
X168318Y150009D01*
X167932Y149622D01*
X167716D01*
X166986Y149320D01*
X166428Y148762D01*
X166126Y148032D01*
Y147243D01*
X166428Y146514D01*
X166986Y145956D01*
X167716Y145653D01*
X168505D01*
X169234Y145956D01*
X169792Y146514D01*
X170095Y147243D01*
Y147459D01*
X171106Y148471D01*
X184252D01*
X184837Y148587D01*
X185333Y148919D01*
X192560Y156145D01*
X193022Y155954D01*
Y148362D01*
X193138Y147777D01*
X193470Y147281D01*
X201249Y139501D01*
X201746Y139170D01*
X202331Y139053D01*
X235162D01*
X236598Y137617D01*
Y137401D01*
X236900Y136671D01*
X237459Y136113D01*
X238188Y135811D01*
X238977D01*
X239707Y136113D01*
X240265Y136671D01*
X240567Y137401D01*
Y138190D01*
X240265Y138919D01*
X239707Y139477D01*
X238977Y139779D01*
X238761D01*
X236877Y141664D01*
X236381Y141996D01*
X235795Y142112D01*
X204680D01*
X204473Y142612D01*
X204832Y142971D01*
X205134Y143700D01*
Y144489D01*
X204832Y145219D01*
X204274Y145777D01*
X203544Y146079D01*
X203328D01*
X198081Y151326D01*
Y241587D01*
X205358Y248864D01*
X226260D01*
X226845Y248981D01*
X227341Y249312D01*
X251274Y273245D01*
X252275Y272976D01*
X253316D01*
X254321Y273246D01*
X255222Y273766D01*
X255958Y274502D01*
X256479Y275403D01*
X256748Y276409D01*
Y277449D01*
X256479Y278455D01*
X255958Y279356D01*
X255222Y280092D01*
X254321Y280612D01*
X253316Y280882D01*
X252275D01*
X251270Y280612D01*
X250368Y280092D01*
X249632Y279356D01*
X249577Y279260D01*
X249077Y279394D01*
Y281048D01*
X251274Y283245D01*
X252275Y282976D01*
X253316D01*
X254321Y283246D01*
X255222Y283766D01*
X255958Y284502D01*
X256479Y285403D01*
X256748Y286409D01*
Y287450D01*
X256479Y288455D01*
X255958Y289356D01*
X255222Y290092D01*
X254321Y290613D01*
X253316Y290882D01*
D02*
G37*
G36*
X233316D02*
X232275D01*
X231270Y290613D01*
X230368Y290092D01*
X229632Y289356D01*
X229112Y288455D01*
X228842Y287450D01*
Y286409D01*
X229112Y285403D01*
X229632Y284502D01*
X230368Y283766D01*
X231270Y283246D01*
X232275Y282976D01*
X233316D01*
X234321Y283246D01*
X235222Y283766D01*
X235958Y284502D01*
X236479Y285403D01*
X236748Y286409D01*
Y287450D01*
X236479Y288455D01*
X235958Y289356D01*
X235222Y290092D01*
X234321Y290613D01*
X233316Y290882D01*
D02*
G37*
G36*
X223316D02*
X222275D01*
X221270Y290613D01*
X220368Y290092D01*
X219632Y289356D01*
X219112Y288455D01*
X218843Y287450D01*
Y286409D01*
X219112Y285403D01*
X219632Y284502D01*
X220368Y283766D01*
X221270Y283246D01*
X222275Y282976D01*
X223316D01*
X224321Y283246D01*
X225222Y283766D01*
X225958Y284502D01*
X226479Y285403D01*
X226748Y286409D01*
Y287450D01*
X226479Y288455D01*
X225958Y289356D01*
X225222Y290092D01*
X224321Y290613D01*
X223316Y290882D01*
D02*
G37*
G36*
X213316D02*
X212275D01*
X211270Y290613D01*
X210368Y290092D01*
X209632Y289356D01*
X209112Y288455D01*
X208842Y287450D01*
Y286409D01*
X209112Y285403D01*
X209632Y284502D01*
X210368Y283766D01*
X211270Y283246D01*
X212275Y282976D01*
X213316D01*
X214321Y283246D01*
X215222Y283766D01*
X215958Y284502D01*
X216479Y285403D01*
X216748Y286409D01*
Y287450D01*
X216479Y288455D01*
X215958Y289356D01*
X215222Y290092D01*
X214321Y290613D01*
X213316Y290882D01*
D02*
G37*
G36*
X575116Y285028D02*
X566616D01*
Y274028D01*
X575116D01*
Y285028D01*
D02*
G37*
G36*
X580866Y285064D02*
X579757Y284918D01*
X578723Y284490D01*
X577835Y283809D01*
X577154Y282921D01*
X576726Y281887D01*
X576580Y280778D01*
Y278278D01*
X576726Y277168D01*
X577154Y276134D01*
X577835Y275246D01*
X578723Y274565D01*
X579757Y274137D01*
X580866Y273991D01*
X581976Y274137D01*
X583009Y274565D01*
X583897Y275246D01*
X584579Y276134D01*
X585007Y277168D01*
X585153Y278278D01*
Y280778D01*
X585007Y281887D01*
X584579Y282921D01*
X583897Y283809D01*
X583009Y284490D01*
X581976Y284918D01*
X580866Y285064D01*
D02*
G37*
G36*
X293316Y280882D02*
X292275D01*
X291270Y280612D01*
X290368Y280092D01*
X289632Y279356D01*
X289112Y278455D01*
X288843Y277449D01*
Y276409D01*
X289112Y275403D01*
X289632Y274502D01*
X290368Y273766D01*
X291270Y273246D01*
X292275Y272976D01*
X293316D01*
X294321Y273246D01*
X295222Y273766D01*
X295958Y274502D01*
X296479Y275403D01*
X296748Y276409D01*
Y277449D01*
X296479Y278455D01*
X295958Y279356D01*
X295222Y280092D01*
X294321Y280612D01*
X293316Y280882D01*
D02*
G37*
G36*
X283316D02*
X282275D01*
X281270Y280612D01*
X280368Y280092D01*
X279632Y279356D01*
X279112Y278455D01*
X278842Y277449D01*
Y276409D01*
X279112Y275403D01*
X279632Y274502D01*
X280368Y273766D01*
X281270Y273246D01*
X282275Y272976D01*
X283316D01*
X284321Y273246D01*
X285222Y273766D01*
X285958Y274502D01*
X286479Y275403D01*
X286748Y276409D01*
Y277449D01*
X286479Y278455D01*
X285958Y279356D01*
X285222Y280092D01*
X284321Y280612D01*
X283316Y280882D01*
D02*
G37*
G36*
X273316D02*
X272275D01*
X271270Y280612D01*
X270368Y280092D01*
X269632Y279356D01*
X269112Y278455D01*
X268843Y277449D01*
Y276409D01*
X269112Y275403D01*
X269632Y274502D01*
X270368Y273766D01*
X271270Y273246D01*
X272275Y272976D01*
X273316D01*
X274321Y273246D01*
X275222Y273766D01*
X275958Y274502D01*
X276479Y275403D01*
X276748Y276409D01*
Y277449D01*
X276479Y278455D01*
X275958Y279356D01*
X275222Y280092D01*
X274321Y280612D01*
X273316Y280882D01*
D02*
G37*
G36*
X263316D02*
X262275D01*
X261270Y280612D01*
X260368Y280092D01*
X259632Y279356D01*
X259112Y278455D01*
X258842Y277449D01*
Y276409D01*
X259112Y275403D01*
X259632Y274502D01*
X260368Y273766D01*
X261270Y273246D01*
X262275Y272976D01*
X263316D01*
X264321Y273246D01*
X265222Y273766D01*
X265958Y274502D01*
X266479Y275403D01*
X266748Y276409D01*
Y277449D01*
X266479Y278455D01*
X265958Y279356D01*
X265222Y280092D01*
X264321Y280612D01*
X263316Y280882D01*
D02*
G37*
G36*
X403316Y290882D02*
X402275D01*
X401270Y290613D01*
X400368Y290092D01*
X399632Y289356D01*
X399112Y288455D01*
X398843Y287450D01*
Y286409D01*
X399112Y285403D01*
X399632Y284502D01*
X400368Y283766D01*
X401270Y283246D01*
X402275Y282976D01*
X403316D01*
X404317Y283245D01*
X431240Y256322D01*
X431048Y255860D01*
X426027D01*
X406480Y275408D01*
X406748Y276409D01*
Y277449D01*
X406479Y278455D01*
X405958Y279356D01*
X405222Y280092D01*
X404321Y280612D01*
X403316Y280882D01*
X402275D01*
X401270Y280612D01*
X400368Y280092D01*
X399632Y279356D01*
X399112Y278455D01*
X398843Y277449D01*
Y276409D01*
X399112Y275403D01*
X399632Y274502D01*
X400368Y273766D01*
X401270Y273246D01*
X402275Y272976D01*
X403316D01*
X404317Y273245D01*
X424312Y253249D01*
X424808Y252918D01*
X425394Y252801D01*
X446540D01*
X446850Y252422D01*
X446669Y251984D01*
X446251D01*
X445246Y251715D01*
X444345Y251195D01*
X443609Y250459D01*
X443088Y249557D01*
X442819Y248552D01*
Y247511D01*
X443088Y246506D01*
X443609Y245604D01*
X444345Y244868D01*
X445246Y244348D01*
X446251Y244079D01*
X447292D01*
X448297Y244348D01*
X449199Y244868D01*
X449935Y245604D01*
X449956Y245642D01*
X450439Y245512D01*
Y239466D01*
X450286Y239313D01*
X449984Y238584D01*
Y237794D01*
X450286Y237065D01*
X450844Y236507D01*
X451574Y236205D01*
X452363D01*
X453092Y236507D01*
X453651Y237065D01*
X453953Y237794D01*
Y238584D01*
X453651Y239313D01*
X453498Y239466D01*
Y245008D01*
X453998Y245215D01*
X454345Y244868D01*
X455246Y244348D01*
X456251Y244079D01*
X457292D01*
X458297Y244348D01*
X459199Y244868D01*
X459782Y245451D01*
X460282Y245244D01*
Y239466D01*
X460129Y239313D01*
X459827Y238584D01*
Y237794D01*
X460129Y237065D01*
X460687Y236507D01*
X461416Y236205D01*
X462206D01*
X462935Y236507D01*
X463493Y237065D01*
X463795Y237794D01*
Y238584D01*
X463493Y239313D01*
X463340Y239466D01*
Y245166D01*
X463840Y245373D01*
X464345Y244868D01*
X465246Y244348D01*
X466251Y244079D01*
X467292D01*
X468297Y244348D01*
X469199Y244868D01*
X469935Y245604D01*
X470455Y246506D01*
X470724Y247511D01*
Y248552D01*
X470455Y249557D01*
X469935Y250459D01*
X469199Y251195D01*
X468297Y251715D01*
X467292Y251984D01*
X466251D01*
X465246Y251715D01*
X464345Y251195D01*
X463840Y250690D01*
X463340Y250897D01*
Y251181D01*
X463224Y251766D01*
X462892Y252262D01*
X457381Y257774D01*
X456884Y258106D01*
X456299Y258222D01*
X433665D01*
X406480Y285407D01*
X406748Y286409D01*
Y287450D01*
X406479Y288455D01*
X405958Y289356D01*
X405222Y290092D01*
X404321Y290613D01*
X403316Y290882D01*
D02*
G37*
G36*
X437292Y251984D02*
X436251D01*
X435246Y251715D01*
X434345Y251195D01*
X433609Y250459D01*
X433088Y249557D01*
X432819Y248552D01*
Y247511D01*
X433088Y246506D01*
X433609Y245604D01*
X434345Y244868D01*
X435246Y244348D01*
X436251Y244079D01*
X437292D01*
X438297Y244348D01*
X439199Y244868D01*
X439935Y245604D01*
X440455Y246506D01*
X440724Y247511D01*
Y248552D01*
X440455Y249557D01*
X439935Y250459D01*
X439199Y251195D01*
X438297Y251715D01*
X437292Y251984D01*
D02*
G37*
G36*
X427292D02*
X426251D01*
X425246Y251715D01*
X424345Y251195D01*
X423609Y250459D01*
X423088Y249557D01*
X422819Y248552D01*
Y247511D01*
X423088Y246506D01*
X423609Y245604D01*
X424345Y244868D01*
X425246Y244348D01*
X426251Y244079D01*
X427292D01*
X428297Y244348D01*
X429199Y244868D01*
X429935Y245604D01*
X430455Y246506D01*
X430724Y247511D01*
Y248552D01*
X430455Y249557D01*
X429935Y250459D01*
X429199Y251195D01*
X428297Y251715D01*
X427292Y251984D01*
D02*
G37*
G36*
X22836Y268520D02*
X22046D01*
X21317Y268218D01*
X20759Y267659D01*
X20457Y266930D01*
Y266141D01*
X20759Y265411D01*
X21317Y264853D01*
X22046Y264551D01*
X22262D01*
X27998Y258815D01*
Y242535D01*
X27536Y242343D01*
X24032Y245848D01*
Y246064D01*
X23729Y246793D01*
X23171Y247352D01*
X22442Y247654D01*
X21653D01*
X20923Y247352D01*
X20365Y246793D01*
X20063Y246064D01*
Y245275D01*
X20365Y244545D01*
X20923Y243987D01*
X21653Y243685D01*
X21869D01*
X25486Y240067D01*
Y202596D01*
X25071Y202318D01*
X24926Y202378D01*
X24137D01*
X23992Y202318D01*
X23577Y202596D01*
Y220377D01*
X23729Y220530D01*
X24032Y221259D01*
Y222048D01*
X23729Y222778D01*
X23171Y223336D01*
X22442Y223638D01*
X21653D01*
X20923Y223336D01*
X20365Y222778D01*
X20063Y222048D01*
Y221259D01*
X20365Y220530D01*
X20518Y220377D01*
Y138035D01*
X9078Y126595D01*
X8616Y126786D01*
Y147398D01*
X16714Y155496D01*
X16930D01*
X17659Y155798D01*
X18218Y156356D01*
X18520Y157086D01*
Y157875D01*
X18218Y158604D01*
X17659Y159162D01*
X16930Y159465D01*
X16141D01*
X15412Y159162D01*
X14853Y158604D01*
X14551Y157875D01*
Y157659D01*
X6005Y149113D01*
X5674Y148617D01*
X5557Y148031D01*
Y25373D01*
X5674Y24788D01*
X6005Y24292D01*
X22418Y7879D01*
X22914Y7548D01*
X23499Y7431D01*
X156029D01*
X156614Y7548D01*
X157110Y7879D01*
X191402Y42171D01*
X197398D01*
X209111Y30459D01*
X208842Y29457D01*
Y28417D01*
X209112Y27411D01*
X209632Y26510D01*
X210368Y25774D01*
X211270Y25254D01*
X212275Y24984D01*
X213316D01*
X214321Y25254D01*
X215222Y25774D01*
X215958Y26510D01*
X216479Y27411D01*
X216748Y28417D01*
Y29457D01*
X216479Y30463D01*
X215958Y31364D01*
X215222Y32100D01*
X214321Y32620D01*
X213316Y32890D01*
X212275D01*
X211274Y32621D01*
X200217Y43678D01*
X200409Y44140D01*
X212150D01*
X212900Y43390D01*
X212693Y42890D01*
X212275D01*
X211270Y42620D01*
X210368Y42100D01*
X209632Y41364D01*
X209112Y40463D01*
X208842Y39457D01*
Y38417D01*
X209112Y37411D01*
X209632Y36510D01*
X210368Y35774D01*
X211270Y35254D01*
X212275Y34984D01*
X213316D01*
X214321Y35254D01*
X215222Y35774D01*
X215687Y36239D01*
X216187Y36032D01*
Y34016D01*
X216304Y33430D01*
X216635Y32934D01*
X219111Y30459D01*
X218843Y29457D01*
Y28417D01*
X219112Y27411D01*
X219632Y26510D01*
X220368Y25774D01*
X221270Y25254D01*
X222275Y24984D01*
X223316D01*
X224321Y25254D01*
X225222Y25774D01*
X225958Y26510D01*
X226479Y27411D01*
X226748Y28417D01*
Y29457D01*
X226479Y30463D01*
X225958Y31364D01*
X225222Y32100D01*
X224321Y32620D01*
X223316Y32890D01*
X222275D01*
X221274Y32621D01*
X219246Y34649D01*
Y36236D01*
X219746Y36396D01*
X220368Y35774D01*
X221270Y35254D01*
X222275Y34984D01*
X223316D01*
X224321Y35254D01*
X225222Y35774D01*
X225958Y36510D01*
X226014Y36606D01*
X226514Y36472D01*
Y33689D01*
X226630Y33104D01*
X226962Y32607D01*
X229111Y30459D01*
X228842Y29457D01*
Y28417D01*
X229112Y27411D01*
X229632Y26510D01*
X230368Y25774D01*
X231270Y25254D01*
X232275Y24984D01*
X233316D01*
X234321Y25254D01*
X235222Y25774D01*
X235958Y26510D01*
X236479Y27411D01*
X236748Y28417D01*
Y29457D01*
X236479Y30463D01*
X235958Y31364D01*
X235222Y32100D01*
X234321Y32620D01*
X233316Y32890D01*
X232275D01*
X231274Y32621D01*
X229573Y34323D01*
Y35862D01*
X230073Y36070D01*
X230368Y35774D01*
X231270Y35254D01*
X232275Y34984D01*
X233316D01*
X234321Y35254D01*
X235222Y35774D01*
X235958Y36510D01*
X236014Y36606D01*
X236514Y36472D01*
Y33689D01*
X236630Y33104D01*
X236962Y32607D01*
X239111Y30459D01*
X238843Y29457D01*
Y28417D01*
X239112Y27411D01*
X239632Y26510D01*
X240368Y25774D01*
X241270Y25254D01*
X242275Y24984D01*
X243316D01*
X244321Y25254D01*
X245222Y25774D01*
X245958Y26510D01*
X246479Y27411D01*
X246748Y28417D01*
Y29457D01*
X246479Y30463D01*
X245958Y31364D01*
X245222Y32100D01*
X244321Y32620D01*
X243316Y32890D01*
X242275D01*
X241274Y32621D01*
X239573Y34323D01*
Y35862D01*
X240073Y36070D01*
X240368Y35774D01*
X241270Y35254D01*
X242275Y34984D01*
X243316D01*
X244321Y35254D01*
X245222Y35774D01*
X245958Y36510D01*
X246002Y36586D01*
X246502Y36452D01*
Y33701D01*
X246619Y33116D01*
X246950Y32619D01*
X249111Y30459D01*
X248843Y29457D01*
Y28417D01*
X249112Y27411D01*
X249632Y26510D01*
X250368Y25774D01*
X251270Y25254D01*
X252275Y24984D01*
X253316D01*
X254321Y25254D01*
X255222Y25774D01*
X255958Y26510D01*
X256479Y27411D01*
X256748Y28417D01*
Y29457D01*
X256479Y30463D01*
X255958Y31364D01*
X255222Y32100D01*
X254321Y32620D01*
X253316Y32890D01*
X252275D01*
X251274Y32621D01*
X249561Y34334D01*
Y35874D01*
X250061Y36081D01*
X250368Y35774D01*
X251270Y35254D01*
X252275Y34984D01*
X253316D01*
X254321Y35254D01*
X255222Y35774D01*
X255958Y36510D01*
X256479Y37411D01*
X256748Y38417D01*
Y39457D01*
X256479Y40463D01*
X255958Y41364D01*
X255222Y42100D01*
X254321Y42620D01*
X253316Y42890D01*
X252275D01*
X251274Y42621D01*
X219531Y74364D01*
X219035Y74696D01*
X218450Y74812D01*
X207272D01*
X185843Y96242D01*
Y96458D01*
X185540Y97187D01*
X184982Y97745D01*
X184253Y98047D01*
X183464D01*
X182734Y97745D01*
X182176Y97187D01*
X181874Y96458D01*
Y95668D01*
X182176Y94939D01*
X182734Y94381D01*
X183464Y94079D01*
X183680D01*
X205557Y72201D01*
X206053Y71870D01*
X206639Y71753D01*
X217816D01*
X233247Y56322D01*
X233056Y55860D01*
X128048D01*
X127896Y56013D01*
X127166Y56315D01*
X126377D01*
X125648Y56013D01*
X125090Y55455D01*
X124787Y54725D01*
Y53936D01*
X125090Y53207D01*
X125648Y52649D01*
X126377Y52346D01*
X127166D01*
X127896Y52649D01*
X128048Y52801D01*
X233488D01*
X242900Y43390D01*
X242693Y42890D01*
X242275D01*
X241270Y42620D01*
X240368Y42100D01*
X239739Y41471D01*
X239162Y41435D01*
X239125Y41491D01*
X229833Y50782D01*
X229337Y51114D01*
X228752Y51230D01*
X188284D01*
X187698Y51114D01*
X187202Y50782D01*
X152910Y16490D01*
X26618D01*
X14616Y28492D01*
Y102641D01*
X22208Y110233D01*
X22632Y109950D01*
X22425Y109450D01*
Y108660D01*
X22727Y107931D01*
X23286Y107373D01*
X24015Y107071D01*
X24804D01*
X25533Y107373D01*
X26092Y107931D01*
X26394Y108660D01*
Y108877D01*
X30609Y113092D01*
X30940Y113588D01*
X31057Y114173D01*
X31057Y258661D01*
X31057Y258661D01*
Y259449D01*
X30940Y260034D01*
X30609Y260530D01*
X24425Y266714D01*
Y266930D01*
X24123Y267659D01*
X23565Y268218D01*
X22836Y268520D01*
D02*
G37*
G36*
X600977Y253953D02*
X599811D01*
X598667Y253725D01*
X597589Y253279D01*
X596619Y252631D01*
X595794Y251806D01*
X595146Y250836D01*
X594700Y249759D01*
X594473Y248615D01*
Y247448D01*
X594700Y246304D01*
X595146Y245227D01*
X595794Y244257D01*
X596619Y243432D01*
X597589Y242784D01*
X598667Y242338D01*
X599811Y242110D01*
X600977D01*
X602121Y242338D01*
X603198Y242784D01*
X604168Y243432D01*
X604993Y244257D01*
X605641Y245227D01*
X606087Y246304D01*
X606315Y247448D01*
Y248615D01*
X606087Y249759D01*
X605641Y250836D01*
X604993Y251806D01*
X604168Y252631D01*
X603198Y253279D01*
X602121Y253725D01*
X600977Y253953D01*
D02*
G37*
G36*
X305701D02*
X304535D01*
X303391Y253725D01*
X302313Y253279D01*
X301344Y252631D01*
X300519Y251806D01*
X299871Y250836D01*
X299424Y249759D01*
X299197Y248615D01*
Y247448D01*
X299424Y246304D01*
X299871Y245227D01*
X300519Y244257D01*
X301344Y243432D01*
X302313Y242784D01*
X303391Y242338D01*
X304535Y242110D01*
X305701D01*
X306845Y242338D01*
X307923Y242784D01*
X308893Y243432D01*
X309717Y244257D01*
X310366Y245227D01*
X310812Y246304D01*
X311039Y247448D01*
Y248615D01*
X310812Y249759D01*
X310366Y250836D01*
X309717Y251806D01*
X308893Y252631D01*
X307923Y253279D01*
X306845Y253725D01*
X305701Y253953D01*
D02*
G37*
G36*
X179529Y255134D02*
X178739D01*
X178010Y254832D01*
X177452Y254274D01*
X177150Y253544D01*
Y253328D01*
X167816Y243995D01*
X167485Y243499D01*
X167368Y242913D01*
Y236316D01*
X167216Y236163D01*
X166913Y235434D01*
Y234645D01*
X167216Y233915D01*
X167774Y233357D01*
X168503Y233055D01*
X169292D01*
X170022Y233357D01*
X170580Y233915D01*
X170882Y234645D01*
Y235434D01*
X170580Y236163D01*
X170427Y236316D01*
Y242280D01*
X179313Y251165D01*
X179529D01*
X180258Y251467D01*
X180816Y252026D01*
X181118Y252755D01*
Y253544D01*
X180816Y254274D01*
X180258Y254832D01*
X179529Y255134D01*
D02*
G37*
G36*
X133072Y249622D02*
X132282D01*
X131553Y249320D01*
X130995Y248762D01*
X130693Y248032D01*
Y247816D01*
X114721Y231844D01*
X98521D01*
X98368Y231997D01*
X97639Y232299D01*
X96849D01*
X96120Y231997D01*
X95562Y231439D01*
X95260Y230710D01*
Y229920D01*
X95562Y229191D01*
X96120Y228633D01*
X96849Y228331D01*
X97639D01*
X98368Y228633D01*
X98521Y228786D01*
X115354D01*
X115940Y228902D01*
X116436Y229234D01*
X132856Y245654D01*
X133072D01*
X133801Y245956D01*
X134359Y246514D01*
X134661Y247243D01*
Y248032D01*
X134359Y248762D01*
X133801Y249320D01*
X133072Y249622D01*
D02*
G37*
G36*
X222961Y236236D02*
X221921D01*
X220915Y235967D01*
X220014Y235447D01*
X219278Y234711D01*
X218758Y233809D01*
X218488Y232804D01*
Y231763D01*
X218758Y230758D01*
X219278Y229856D01*
X220014Y229120D01*
X220915Y228600D01*
X221921Y228331D01*
X222961D01*
X223967Y228600D01*
X224868Y229120D01*
X225604Y229856D01*
X226124Y230758D01*
X226394Y231763D01*
Y232804D01*
X226124Y233809D01*
X225604Y234711D01*
X224868Y235447D01*
X223967Y235967D01*
X222961Y236236D01*
D02*
G37*
G36*
X181938Y216551D02*
X180897D01*
X179892Y216282D01*
X178990Y215761D01*
X178254Y215025D01*
X177734Y214124D01*
X177465Y213119D01*
Y212078D01*
X177734Y211073D01*
X178254Y210171D01*
X178990Y209435D01*
X179892Y208915D01*
X180897Y208646D01*
X181938D01*
X182943Y208915D01*
X183844Y209435D01*
X184580Y210171D01*
X185101Y211073D01*
X185370Y212078D01*
Y213119D01*
X185101Y214124D01*
X184580Y215025D01*
X183844Y215761D01*
X182943Y216282D01*
X181938Y216551D01*
D02*
G37*
G36*
X252701Y269504D02*
X252023D01*
X251368Y269328D01*
X250781Y268989D01*
X250302Y268510D01*
X249963Y267923D01*
X249787Y267268D01*
Y267238D01*
X229470Y246921D01*
X208268D01*
X207487Y246766D01*
X206826Y246324D01*
X200527Y240025D01*
X200085Y239363D01*
X199929Y238583D01*
Y207508D01*
X199908Y207487D01*
X199569Y206899D01*
X199394Y206244D01*
Y205567D01*
X199569Y204912D01*
X199908Y204325D01*
X200388Y203845D01*
X200975Y203506D01*
X201629Y203331D01*
X202308D01*
X202962Y203506D01*
X203550Y203845D01*
X204029Y204325D01*
X204368Y204912D01*
X204543Y205567D01*
Y206244D01*
X204368Y206899D01*
X204029Y207487D01*
X204008Y207508D01*
Y237738D01*
X209112Y242843D01*
X230315D01*
X231095Y242998D01*
X231757Y243440D01*
X252671Y264354D01*
X252701D01*
X253356Y264530D01*
X253943Y264869D01*
X254423Y265348D01*
X254762Y265935D01*
X254937Y266590D01*
Y267268D01*
X254762Y267923D01*
X254423Y268510D01*
X253943Y268989D01*
X253356Y269328D01*
X252701Y269504D01*
D02*
G37*
G36*
X181938Y206551D02*
X180897D01*
X179892Y206282D01*
X178990Y205761D01*
X178254Y205026D01*
X177734Y204124D01*
X177465Y203119D01*
Y202078D01*
X177734Y201073D01*
X178254Y200171D01*
X178990Y199435D01*
X179892Y198915D01*
X180897Y198646D01*
X181938D01*
X182943Y198915D01*
X183844Y199435D01*
X184580Y200171D01*
X185101Y201073D01*
X185370Y202078D01*
Y203119D01*
X185101Y204124D01*
X184580Y205026D01*
X183844Y205761D01*
X182943Y206282D01*
X181938Y206551D01*
D02*
G37*
G36*
X161938D02*
X160897D01*
X159892Y206282D01*
X158990Y205761D01*
X158254Y205026D01*
X157734Y204124D01*
X157465Y203119D01*
Y202078D01*
X157734Y201073D01*
X158254Y200171D01*
X158990Y199435D01*
X159892Y198915D01*
X160897Y198646D01*
X161938D01*
X162943Y198915D01*
X163844Y199435D01*
X164580Y200171D01*
X165101Y201073D01*
X165370Y202078D01*
Y203119D01*
X165101Y204124D01*
X164580Y205026D01*
X163844Y205761D01*
X162943Y206282D01*
X161938Y206551D01*
D02*
G37*
G36*
X138631D02*
X137590D01*
X136584Y206282D01*
X135683Y205761D01*
X134947Y205026D01*
X134427Y204124D01*
X134158Y203119D01*
Y202078D01*
X134427Y201073D01*
X134947Y200171D01*
X135683Y199435D01*
X136584Y198915D01*
X137590Y198646D01*
X138631D01*
X139636Y198915D01*
X140537Y199435D01*
X141273Y200171D01*
X141794Y201073D01*
X142063Y202078D01*
Y203119D01*
X141794Y204124D01*
X141273Y205026D01*
X140537Y205761D01*
X139636Y206282D01*
X138631Y206551D01*
D02*
G37*
G36*
X118631D02*
X117590D01*
X116585Y206282D01*
X115683Y205761D01*
X114947Y205026D01*
X114427Y204124D01*
X114157Y203119D01*
Y202078D01*
X114426Y201077D01*
X103549Y190200D01*
X103217Y189703D01*
X103101Y189118D01*
Y168237D01*
X43873Y109010D01*
X32773D01*
X32620Y109162D01*
X31891Y109465D01*
X31101D01*
X30372Y109162D01*
X29814Y108604D01*
X29512Y107875D01*
Y107086D01*
X29814Y106356D01*
X30372Y105798D01*
X31101Y105496D01*
X31891D01*
X32620Y105798D01*
X32773Y105951D01*
X42990D01*
X43181Y105489D01*
X35926Y98234D01*
X35595Y97738D01*
X35478Y97153D01*
Y91977D01*
X31313Y87811D01*
X31101D01*
X30372Y87509D01*
X29814Y86951D01*
X29512Y86221D01*
Y85432D01*
X29814Y84703D01*
X30372Y84145D01*
X31101Y83842D01*
X31891D01*
X32620Y84145D01*
X33178Y84703D01*
X33480Y85432D01*
Y85653D01*
X37017Y89189D01*
X37479Y88998D01*
Y72319D01*
X31317Y66158D01*
X31101D01*
X30372Y65855D01*
X29814Y65297D01*
X29512Y64568D01*
Y63779D01*
X29814Y63049D01*
X30372Y62491D01*
X31101Y62189D01*
X31891D01*
X32620Y62491D01*
X33178Y63049D01*
X33480Y63779D01*
Y63995D01*
X39347Y69862D01*
X39809Y69670D01*
Y52996D01*
X31317Y44504D01*
X31101D01*
X30372Y44202D01*
X29814Y43644D01*
X29512Y42914D01*
Y42125D01*
X29814Y41396D01*
X30372Y40837D01*
X31101Y40535D01*
X31891D01*
X32620Y40837D01*
X33178Y41396D01*
X33480Y42125D01*
Y42341D01*
X42420Y51281D01*
X42752Y51777D01*
X42868Y52362D01*
Y95193D01*
X116589Y168914D01*
X117590Y168646D01*
X118631D01*
X119636Y168915D01*
X120537Y169435D01*
X121273Y170171D01*
X121794Y171073D01*
X122063Y172078D01*
Y173119D01*
X121794Y174124D01*
X121273Y175025D01*
X120537Y175761D01*
X119636Y176282D01*
X118631Y176551D01*
X117590D01*
X116585Y176282D01*
X115683Y175761D01*
X114947Y175025D01*
X114427Y174124D01*
X114157Y173119D01*
Y172078D01*
X114426Y171077D01*
X110621Y167272D01*
X110159Y167464D01*
Y172485D01*
X116589Y178914D01*
X117590Y178646D01*
X118631D01*
X119636Y178915D01*
X120537Y179435D01*
X121273Y180171D01*
X121794Y181073D01*
X122063Y182078D01*
Y183119D01*
X121794Y184124D01*
X121273Y185026D01*
X120537Y185761D01*
X119636Y186282D01*
X118631Y186551D01*
X117590D01*
X116585Y186282D01*
X115683Y185761D01*
X114947Y185026D01*
X114427Y184124D01*
X114157Y183119D01*
Y182078D01*
X114426Y181077D01*
X108621Y175272D01*
X108159Y175464D01*
Y180485D01*
X116589Y188914D01*
X117590Y188646D01*
X118631D01*
X119636Y188915D01*
X120537Y189435D01*
X121273Y190171D01*
X121794Y191073D01*
X122063Y192078D01*
Y193119D01*
X121794Y194124D01*
X121273Y195026D01*
X120537Y195761D01*
X119636Y196282D01*
X118631Y196551D01*
X117590D01*
X116585Y196282D01*
X115683Y195761D01*
X114947Y195026D01*
X114427Y194124D01*
X114157Y193119D01*
Y192078D01*
X114426Y191077D01*
X106621Y183272D01*
X106159Y183464D01*
Y188485D01*
X116589Y198914D01*
X117590Y198646D01*
X118631D01*
X119636Y198915D01*
X120537Y199435D01*
X121273Y200171D01*
X121794Y201073D01*
X122063Y202078D01*
Y203119D01*
X121794Y204124D01*
X121273Y205026D01*
X120537Y205761D01*
X119636Y206282D01*
X118631Y206551D01*
D02*
G37*
G36*
X95324D02*
X94283D01*
X93277Y206282D01*
X92376Y205761D01*
X91640Y205026D01*
X91120Y204124D01*
X90850Y203119D01*
Y202078D01*
X91120Y201073D01*
X91640Y200171D01*
X92376Y199435D01*
X93277Y198915D01*
X94283Y198646D01*
X95324D01*
X96329Y198915D01*
X97230Y199435D01*
X97966Y200171D01*
X98487Y201073D01*
X98756Y202078D01*
Y203119D01*
X98487Y204124D01*
X97966Y205026D01*
X97230Y205761D01*
X96329Y206282D01*
X95324Y206551D01*
D02*
G37*
G36*
X75324D02*
X74283D01*
X73277Y206282D01*
X72376Y205761D01*
X71640Y205026D01*
X71120Y204124D01*
X70850Y203119D01*
Y202078D01*
X71120Y201073D01*
X71640Y200171D01*
X72376Y199435D01*
X73277Y198915D01*
X74283Y198646D01*
X75324D01*
X76329Y198915D01*
X77230Y199435D01*
X77966Y200171D01*
X78487Y201073D01*
X78756Y202078D01*
Y203119D01*
X78487Y204124D01*
X77966Y205026D01*
X77230Y205761D01*
X76329Y206282D01*
X75324Y206551D01*
D02*
G37*
G36*
X181938Y196551D02*
X180897D01*
X179892Y196282D01*
X178990Y195761D01*
X178254Y195026D01*
X177734Y194124D01*
X177465Y193119D01*
Y192078D01*
X177734Y191073D01*
X178254Y190171D01*
X178990Y189435D01*
X179892Y188915D01*
X180897Y188646D01*
X181938D01*
X182943Y188915D01*
X183844Y189435D01*
X184580Y190171D01*
X185101Y191073D01*
X185370Y192078D01*
Y193119D01*
X185101Y194124D01*
X184580Y195026D01*
X183844Y195761D01*
X182943Y196282D01*
X181938Y196551D01*
D02*
G37*
G36*
X161938D02*
X160897D01*
X159892Y196282D01*
X158990Y195761D01*
X158254Y195026D01*
X157734Y194124D01*
X157465Y193119D01*
Y192078D01*
X157734Y191073D01*
X158254Y190171D01*
X158990Y189435D01*
X159892Y188915D01*
X160897Y188646D01*
X161938D01*
X162943Y188915D01*
X163844Y189435D01*
X164580Y190171D01*
X165101Y191073D01*
X165370Y192078D01*
Y193119D01*
X165101Y194124D01*
X164580Y195026D01*
X163844Y195761D01*
X162943Y196282D01*
X161938Y196551D01*
D02*
G37*
G36*
X138631D02*
X137590D01*
X136584Y196282D01*
X135683Y195761D01*
X134947Y195026D01*
X134427Y194124D01*
X134158Y193119D01*
Y192078D01*
X134427Y191073D01*
X134947Y190171D01*
X135683Y189435D01*
X136584Y188915D01*
X137590Y188646D01*
X138631D01*
X139636Y188915D01*
X140537Y189435D01*
X141273Y190171D01*
X141794Y191073D01*
X142063Y192078D01*
Y193119D01*
X141794Y194124D01*
X141273Y195026D01*
X140537Y195761D01*
X139636Y196282D01*
X138631Y196551D01*
D02*
G37*
G36*
X95324D02*
X94283D01*
X93277Y196282D01*
X92376Y195761D01*
X91640Y195026D01*
X91120Y194124D01*
X90850Y193119D01*
Y192078D01*
X91120Y191073D01*
X91640Y190171D01*
X92376Y189435D01*
X93277Y188915D01*
X94283Y188646D01*
X95324D01*
X96329Y188915D01*
X97230Y189435D01*
X97966Y190171D01*
X98487Y191073D01*
X98756Y192078D01*
Y193119D01*
X98487Y194124D01*
X97966Y195026D01*
X97230Y195761D01*
X96329Y196282D01*
X95324Y196551D01*
D02*
G37*
G36*
X75324D02*
X74283D01*
X73277Y196282D01*
X72376Y195761D01*
X71640Y195026D01*
X71120Y194124D01*
X70850Y193119D01*
Y192078D01*
X71120Y191073D01*
X71640Y190171D01*
X72376Y189435D01*
X73277Y188915D01*
X74283Y188646D01*
X75324D01*
X76329Y188915D01*
X77230Y189435D01*
X77966Y190171D01*
X78487Y191073D01*
X78756Y192078D01*
Y193119D01*
X78487Y194124D01*
X77966Y195026D01*
X77230Y195761D01*
X76329Y196282D01*
X75324Y196551D01*
D02*
G37*
G36*
X181938Y186551D02*
X180897D01*
X179892Y186282D01*
X178990Y185761D01*
X178254Y185026D01*
X177734Y184124D01*
X177465Y183119D01*
Y182078D01*
X177734Y181073D01*
X178254Y180171D01*
X178990Y179435D01*
X179892Y178915D01*
X180897Y178646D01*
X181938D01*
X182943Y178915D01*
X183844Y179435D01*
X184580Y180171D01*
X185101Y181073D01*
X185370Y182078D01*
Y183119D01*
X185101Y184124D01*
X184580Y185026D01*
X183844Y185761D01*
X182943Y186282D01*
X181938Y186551D01*
D02*
G37*
G36*
X161938D02*
X160897D01*
X159892Y186282D01*
X158990Y185761D01*
X158254Y185026D01*
X157734Y184124D01*
X157465Y183119D01*
Y182078D01*
X157734Y181073D01*
X158254Y180171D01*
X158990Y179435D01*
X159892Y178915D01*
X160897Y178646D01*
X161938D01*
X162943Y178915D01*
X163844Y179435D01*
X164580Y180171D01*
X165101Y181073D01*
X165370Y182078D01*
Y183119D01*
X165101Y184124D01*
X164580Y185026D01*
X163844Y185761D01*
X162943Y186282D01*
X161938Y186551D01*
D02*
G37*
G36*
X138631D02*
X137590D01*
X136584Y186282D01*
X135683Y185761D01*
X134947Y185026D01*
X134427Y184124D01*
X134158Y183119D01*
Y182078D01*
X134427Y181073D01*
X134947Y180171D01*
X135683Y179435D01*
X136584Y178915D01*
X137590Y178646D01*
X138631D01*
X139636Y178915D01*
X140537Y179435D01*
X141273Y180171D01*
X141794Y181073D01*
X142063Y182078D01*
Y183119D01*
X141794Y184124D01*
X141273Y185026D01*
X140537Y185761D01*
X139636Y186282D01*
X138631Y186551D01*
D02*
G37*
G36*
X95324D02*
X94283D01*
X93277Y186282D01*
X92376Y185761D01*
X91640Y185026D01*
X91120Y184124D01*
X90850Y183119D01*
Y182078D01*
X91120Y181073D01*
X91640Y180171D01*
X92376Y179435D01*
X93277Y178915D01*
X94283Y178646D01*
X95324D01*
X96329Y178915D01*
X97230Y179435D01*
X97966Y180171D01*
X98487Y181073D01*
X98756Y182078D01*
Y183119D01*
X98487Y184124D01*
X97966Y185026D01*
X97230Y185761D01*
X96329Y186282D01*
X95324Y186551D01*
D02*
G37*
G36*
X75324D02*
X74283D01*
X73277Y186282D01*
X72376Y185761D01*
X71640Y185026D01*
X71120Y184124D01*
X70850Y183119D01*
Y182078D01*
X71120Y181073D01*
X71640Y180171D01*
X72376Y179435D01*
X73277Y178915D01*
X74283Y178646D01*
X75324D01*
X76329Y178915D01*
X77230Y179435D01*
X77966Y180171D01*
X78487Y181073D01*
X78756Y182078D01*
Y183119D01*
X78487Y184124D01*
X77966Y185026D01*
X77230Y185761D01*
X76329Y186282D01*
X75324Y186551D01*
D02*
G37*
G36*
Y176551D02*
X74283D01*
X73277Y176282D01*
X72376Y175761D01*
X71640Y175025D01*
X71120Y174124D01*
X70850Y173119D01*
Y172078D01*
X71120Y171073D01*
X71640Y170171D01*
X72376Y169435D01*
X73277Y168915D01*
X74283Y168646D01*
X75324D01*
X76329Y168915D01*
X77230Y169435D01*
X77966Y170171D01*
X78487Y171073D01*
X78756Y172078D01*
Y173119D01*
X78487Y174124D01*
X77966Y175025D01*
X77230Y175761D01*
X76329Y176282D01*
X75324Y176551D01*
D02*
G37*
G36*
X59788Y245882D02*
X59110D01*
X58455Y245706D01*
X57868Y245367D01*
X57389Y244888D01*
X57050Y244301D01*
X56874Y243646D01*
Y242968D01*
X57050Y242313D01*
X57389Y241726D01*
X57410Y241705D01*
Y227953D01*
X57565Y227172D01*
X58007Y226511D01*
X70850Y213667D01*
Y208646D01*
X75872D01*
X83367Y201151D01*
Y181996D01*
X83522Y181215D01*
X83964Y180554D01*
X90966Y173551D01*
X90850Y173119D01*
Y172078D01*
X91120Y171073D01*
X91640Y170171D01*
X92376Y169435D01*
X93277Y168915D01*
X94283Y168646D01*
X95324D01*
X96329Y168915D01*
X97230Y169435D01*
X97966Y170171D01*
X98487Y171073D01*
X98756Y172078D01*
Y173119D01*
X98487Y174124D01*
X97966Y175025D01*
X97230Y175761D01*
X96329Y176282D01*
X95324Y176551D01*
X94283D01*
X93850Y176435D01*
X87445Y182840D01*
Y201996D01*
X87290Y202776D01*
X86848Y203438D01*
X78756Y211529D01*
Y213667D01*
X81947Y216859D01*
X93498D01*
X93563Y216358D01*
X93277Y216282D01*
X92376Y215761D01*
X91640Y215025D01*
X91120Y214124D01*
X90850Y213119D01*
Y212078D01*
X91120Y211073D01*
X91640Y210171D01*
X92376Y209435D01*
X93277Y208915D01*
X94283Y208646D01*
X95324D01*
X96329Y208915D01*
X97230Y209435D01*
X97966Y210171D01*
X98487Y211073D01*
X98756Y212078D01*
Y213119D01*
X98487Y214124D01*
X97966Y215025D01*
X97230Y215761D01*
X96329Y216282D01*
X96043Y216358D01*
X96109Y216859D01*
X110966D01*
X114157Y213667D01*
Y208646D01*
X122063D01*
Y213667D01*
X125254Y216859D01*
X136805D01*
X136871Y216358D01*
X136584Y216282D01*
X135683Y215761D01*
X134947Y215025D01*
X134427Y214124D01*
X134158Y213119D01*
Y212078D01*
X134427Y211073D01*
X134947Y210171D01*
X135683Y209435D01*
X136584Y208915D01*
X137590Y208646D01*
X138631D01*
X139636Y208915D01*
X140537Y209435D01*
X141273Y210171D01*
X141794Y211073D01*
X142063Y212078D01*
Y213119D01*
X141794Y214124D01*
X141273Y215025D01*
X140537Y215761D01*
X139636Y216282D01*
X139350Y216358D01*
X139416Y216859D01*
X154273D01*
X157465Y213667D01*
Y208646D01*
X162486D01*
X169981Y201151D01*
Y181996D01*
X170136Y181215D01*
X170578Y180554D01*
X177580Y173551D01*
X177465Y173119D01*
Y172078D01*
X177580Y171645D01*
X174116Y168181D01*
X162135D01*
X162069Y168681D01*
X162943Y168915D01*
X163844Y169435D01*
X164580Y170171D01*
X165101Y171073D01*
X165370Y172078D01*
Y173119D01*
X165101Y174124D01*
X164580Y175025D01*
X163844Y175761D01*
X162943Y176282D01*
X161938Y176551D01*
X160897D01*
X159892Y176282D01*
X158990Y175761D01*
X158254Y175025D01*
X157734Y174124D01*
X157465Y173119D01*
Y172078D01*
X157734Y171073D01*
X158254Y170171D01*
X158990Y169435D01*
X159892Y168915D01*
X160765Y168681D01*
X160700Y168181D01*
X145412D01*
X141947Y171645D01*
X142063Y172078D01*
Y173119D01*
X141794Y174124D01*
X141273Y175025D01*
X140537Y175761D01*
X139636Y176282D01*
X138631Y176551D01*
X137590D01*
X136584Y176282D01*
X135683Y175761D01*
X134947Y175025D01*
X134427Y174124D01*
X134158Y173119D01*
Y172078D01*
X134273Y171645D01*
X123361Y160733D01*
X122919Y160072D01*
X122764Y159291D01*
Y138583D01*
X122919Y137802D01*
X123361Y137141D01*
X129561Y130941D01*
X130223Y130499D01*
X131003Y130343D01*
X270572D01*
X271352Y130499D01*
X272014Y130941D01*
X303065Y161992D01*
X303095D01*
X303750Y162168D01*
X304337Y162507D01*
X304816Y162986D01*
X305155Y163573D01*
X305331Y164228D01*
Y164906D01*
X305155Y165561D01*
X304816Y166148D01*
X304337Y166627D01*
X303750Y166966D01*
X303095Y167142D01*
X302417D01*
X301762Y166966D01*
X301175Y166627D01*
X300696Y166148D01*
X300357Y165561D01*
X300181Y164906D01*
Y164876D01*
X269727Y134422D01*
X131848D01*
X126842Y139427D01*
Y158447D01*
X137157Y168762D01*
X137590Y168646D01*
X138631D01*
X139063Y168762D01*
X143125Y164700D01*
X143787Y164258D01*
X144567Y164103D01*
X174961D01*
X175741Y164258D01*
X176403Y164700D01*
X180464Y168762D01*
X180897Y168646D01*
X181938D01*
X182943Y168915D01*
X183844Y169435D01*
X184580Y170171D01*
X185101Y171073D01*
X185370Y172078D01*
Y173119D01*
X185101Y174124D01*
X184580Y175025D01*
X183844Y175761D01*
X182943Y176282D01*
X181938Y176551D01*
X180897D01*
X180464Y176435D01*
X174059Y182840D01*
Y201996D01*
X173904Y202776D01*
X173462Y203438D01*
X165370Y211529D01*
Y216551D01*
X160348D01*
X156560Y220340D01*
X155898Y220782D01*
X155118Y220937D01*
X124409D01*
X123629Y220782D01*
X122968Y220340D01*
X119179Y216551D01*
X117041D01*
X113253Y220340D01*
X112591Y220782D01*
X111811Y220937D01*
X81102D01*
X80322Y220782D01*
X79660Y220340D01*
X75872Y216551D01*
X73734D01*
X61488Y228797D01*
Y241705D01*
X61509Y241726D01*
X61848Y242313D01*
X62024Y242968D01*
Y243646D01*
X61848Y244301D01*
X61509Y244888D01*
X61030Y245367D01*
X60443Y245706D01*
X59788Y245882D01*
D02*
G37*
G36*
X581835Y152575D02*
X581157D01*
X580502Y152399D01*
X579915Y152060D01*
X579436Y151581D01*
X579097Y150994D01*
X578921Y150339D01*
Y149661D01*
X579097Y149006D01*
X579436Y148419D01*
X579915Y147940D01*
X580502Y147601D01*
X581157Y147425D01*
X581187D01*
X584575Y144037D01*
Y131947D01*
X581187Y128559D01*
X581157D01*
X580502Y128384D01*
X579915Y128045D01*
X579436Y127565D01*
X579097Y126978D01*
X578921Y126323D01*
Y125645D01*
X579097Y124990D01*
X579436Y124403D01*
X579915Y123924D01*
X580502Y123585D01*
X581157Y123409D01*
X581835D01*
X582490Y123585D01*
X583077Y123924D01*
X583556Y124403D01*
X583895Y124990D01*
X584071Y125645D01*
Y125675D01*
X588056Y129660D01*
X588498Y130322D01*
X588653Y131102D01*
Y144882D01*
X588498Y145662D01*
X588056Y146324D01*
X584071Y150309D01*
Y150339D01*
X583895Y150994D01*
X583556Y151581D01*
X583077Y152060D01*
X582490Y152399D01*
X581835Y152575D01*
D02*
G37*
G36*
X600977Y131905D02*
X599811D01*
X598667Y131678D01*
X597589Y131232D01*
X596619Y130584D01*
X595794Y129759D01*
X595146Y128789D01*
X594700Y127711D01*
X594473Y126567D01*
Y125401D01*
X594700Y124257D01*
X595146Y123179D01*
X595794Y122210D01*
X596619Y121385D01*
X597589Y120737D01*
X598667Y120291D01*
X599811Y120063D01*
X600977D01*
X602121Y120291D01*
X603198Y120737D01*
X604168Y121385D01*
X604993Y122210D01*
X605641Y123179D01*
X606087Y124257D01*
X606315Y125401D01*
Y126567D01*
X606087Y127711D01*
X605641Y128789D01*
X604993Y129759D01*
X604168Y130584D01*
X603198Y131232D01*
X602121Y131678D01*
X600977Y131905D01*
D02*
G37*
G36*
X305701D02*
X304535D01*
X303391Y131678D01*
X302313Y131232D01*
X301344Y130584D01*
X300519Y129759D01*
X299871Y128789D01*
X299424Y127711D01*
X299197Y126567D01*
Y125401D01*
X299424Y124257D01*
X299871Y123179D01*
X300519Y122210D01*
X301344Y121385D01*
X302313Y120737D01*
X303391Y120291D01*
X304535Y120063D01*
X305701D01*
X306845Y120291D01*
X307923Y120737D01*
X308893Y121385D01*
X309717Y122210D01*
X310366Y123179D01*
X310812Y124257D01*
X311039Y125401D01*
Y126567D01*
X310812Y127711D01*
X310366Y128789D01*
X309717Y129759D01*
X308893Y130584D01*
X307923Y131232D01*
X306845Y131678D01*
X305701Y131905D01*
D02*
G37*
G36*
X334985Y128559D02*
X334307D01*
X333652Y128384D01*
X333065Y128045D01*
X332585Y127565D01*
X332246Y126978D01*
X332071Y126323D01*
Y125645D01*
X332246Y124990D01*
X332585Y124403D01*
X333065Y123924D01*
X333652Y123585D01*
X334307Y123409D01*
X334337D01*
X338716Y119030D01*
X339377Y118588D01*
X340158Y118433D01*
X340158Y118433D01*
X354715D01*
X354727Y118421D01*
X355314Y118082D01*
X355969Y117906D01*
X356647D01*
X357302Y118082D01*
X357889Y118421D01*
X358368Y118900D01*
X358707Y119488D01*
X358883Y120142D01*
Y120820D01*
X358707Y121475D01*
X358368Y122062D01*
X357889Y122542D01*
X357302Y122881D01*
X356647Y123056D01*
X355969D01*
X355314Y122881D01*
X354727Y122542D01*
X354697Y122512D01*
X341002D01*
X337221Y126293D01*
Y126323D01*
X337045Y126978D01*
X336706Y127565D01*
X336227Y128045D01*
X335640Y128384D01*
X334985Y128559D01*
D02*
G37*
G36*
X370418D02*
X369740D01*
X369085Y128384D01*
X368498Y128045D01*
X368018Y127565D01*
X367679Y126978D01*
X367504Y126323D01*
Y125645D01*
X367679Y124990D01*
X368018Y124403D01*
X368498Y123924D01*
X369085Y123585D01*
X369740Y123409D01*
X369770D01*
X374149Y119030D01*
X374810Y118588D01*
X375591Y118433D01*
X375591Y118433D01*
X390130D01*
X390151Y118412D01*
X390739Y118073D01*
X391393Y117898D01*
X392071D01*
X392726Y118073D01*
X393313Y118412D01*
X393793Y118892D01*
X394132Y119479D01*
X394307Y120133D01*
Y120811D01*
X394132Y121466D01*
X393793Y122053D01*
X393313Y122533D01*
X392726Y122872D01*
X392071Y123047D01*
X391393D01*
X390739Y122872D01*
X390151Y122533D01*
X390130Y122512D01*
X376435D01*
X372654Y126293D01*
Y126323D01*
X372478Y126978D01*
X372139Y127565D01*
X371660Y128045D01*
X371073Y128384D01*
X370418Y128559D01*
D02*
G37*
G36*
X476717D02*
X476039D01*
X475384Y128384D01*
X474797Y128045D01*
X474318Y127565D01*
X473979Y126978D01*
X473803Y126323D01*
Y125645D01*
X473979Y124990D01*
X474318Y124403D01*
X474797Y123924D01*
X475384Y123585D01*
X476039Y123409D01*
X476069D01*
X480629Y118849D01*
X481290Y118407D01*
X482071Y118252D01*
X496250D01*
X496801Y117934D01*
X497455Y117759D01*
X498133D01*
X498788Y117934D01*
X499375Y118273D01*
X499855Y118753D01*
X500194Y119340D01*
X500369Y119995D01*
Y120673D01*
X500194Y121327D01*
X499855Y121915D01*
X499375Y122394D01*
X498788Y122733D01*
X498133Y122908D01*
X497455D01*
X496801Y122733D01*
X496213Y122394D01*
X496150Y122330D01*
X482915D01*
X478953Y126293D01*
Y126323D01*
X478777Y126978D01*
X478438Y127565D01*
X477959Y128045D01*
X477372Y128384D01*
X476717Y128559D01*
D02*
G37*
G36*
X405851D02*
X405173D01*
X404518Y128384D01*
X403931Y128045D01*
X403451Y127565D01*
X403113Y126978D01*
X402937Y126323D01*
Y125645D01*
X403113Y124990D01*
X403451Y124403D01*
X403931Y123924D01*
X404518Y123585D01*
X405173Y123409D01*
X405203D01*
X409763Y118849D01*
X410424Y118407D01*
X411205Y118252D01*
X425384D01*
X425934Y117934D01*
X426589Y117759D01*
X427267D01*
X427922Y117934D01*
X428509Y118273D01*
X428989Y118753D01*
X429327Y119340D01*
X429503Y119995D01*
Y120673D01*
X429327Y121327D01*
X428989Y121915D01*
X428509Y122394D01*
X427922Y122733D01*
X427267Y122908D01*
X426589D01*
X425934Y122733D01*
X425347Y122394D01*
X425284Y122330D01*
X412049D01*
X408087Y126293D01*
Y126323D01*
X407911Y126978D01*
X407572Y127565D01*
X407093Y128045D01*
X406506Y128384D01*
X405851Y128559D01*
D02*
G37*
G36*
X547583D02*
X546905D01*
X546250Y128384D01*
X545663Y128045D01*
X545184Y127565D01*
X544845Y126978D01*
X544669Y126323D01*
Y125645D01*
X544845Y124990D01*
X545184Y124403D01*
X545663Y123924D01*
X546250Y123585D01*
X546905Y123409D01*
X546935D01*
X551453Y118892D01*
X552114Y118450D01*
X552895Y118295D01*
X553150Y118345D01*
X553405Y118295D01*
X567058D01*
X567079Y118273D01*
X567667Y117934D01*
X568322Y117759D01*
X568999D01*
X569654Y117934D01*
X570241Y118273D01*
X570721Y118753D01*
X571060Y119340D01*
X571235Y119995D01*
Y120673D01*
X571060Y121327D01*
X570721Y121915D01*
X570241Y122394D01*
X569654Y122733D01*
X568999Y122908D01*
X568322D01*
X567667Y122733D01*
X567079Y122394D01*
X567058Y122373D01*
X553739D01*
X549819Y126293D01*
Y126323D01*
X549643Y126978D01*
X549304Y127565D01*
X548825Y128045D01*
X548238Y128384D01*
X547583Y128559D01*
D02*
G37*
G36*
X512150D02*
X511472D01*
X510817Y128384D01*
X510230Y128045D01*
X509751Y127565D01*
X509412Y126978D01*
X509236Y126323D01*
Y125645D01*
X509412Y124990D01*
X509751Y124403D01*
X510230Y123924D01*
X510817Y123585D01*
X511472Y123409D01*
X511502D01*
X516413Y118498D01*
X517075Y118056D01*
X517855Y117901D01*
X517855Y117901D01*
X531782D01*
X532065Y117737D01*
X532720Y117562D01*
X533398D01*
X534053Y117737D01*
X534640Y118077D01*
X535119Y118556D01*
X535458Y119143D01*
X535634Y119798D01*
Y120476D01*
X535458Y121131D01*
X535119Y121718D01*
X534640Y122197D01*
X534053Y122536D01*
X533398Y122712D01*
X532720D01*
X532065Y122536D01*
X531478Y122197D01*
X531260Y121979D01*
X518700D01*
X514386Y126293D01*
Y126323D01*
X514210Y126978D01*
X513871Y127565D01*
X513392Y128045D01*
X512805Y128384D01*
X512150Y128559D01*
D02*
G37*
G36*
X441284D02*
X440606D01*
X439951Y128384D01*
X439364Y128045D01*
X438885Y127565D01*
X438546Y126978D01*
X438370Y126323D01*
Y125645D01*
X438546Y124990D01*
X438885Y124403D01*
X439364Y123924D01*
X439951Y123585D01*
X440606Y123409D01*
X440636D01*
X445350Y118695D01*
X445350Y118695D01*
X446012Y118253D01*
X446792Y118098D01*
X460562D01*
X460583Y118077D01*
X461171Y117737D01*
X461825Y117562D01*
X462503D01*
X463158Y117737D01*
X463745Y118077D01*
X464225Y118556D01*
X464564Y119143D01*
X464739Y119798D01*
Y120476D01*
X464564Y121131D01*
X464225Y121718D01*
X463745Y122197D01*
X463158Y122536D01*
X462503Y122712D01*
X461825D01*
X461171Y122536D01*
X460583Y122197D01*
X460562Y122176D01*
X447637D01*
X443520Y126293D01*
Y126323D01*
X443344Y126978D01*
X443005Y127565D01*
X442526Y128045D01*
X441939Y128384D01*
X441284Y128559D01*
D02*
G37*
G36*
X586417Y106539D02*
X578937D01*
X578111Y106430D01*
X577341Y106111D01*
X576680Y105604D01*
X576172Y104943D01*
X575853Y104173D01*
X575744Y103347D01*
Y99016D01*
X575853Y98189D01*
X576172Y97419D01*
X576680Y96758D01*
X577341Y96251D01*
X578111Y95932D01*
X578937Y95823D01*
X586417D01*
X587244Y95932D01*
X588014Y96251D01*
X588675Y96758D01*
X589182Y97419D01*
X589501Y98189D01*
X589610Y99016D01*
Y103347D01*
X589501Y104173D01*
X589182Y104943D01*
X588675Y105604D01*
X588014Y106111D01*
X587244Y106430D01*
X586417Y106539D01*
D02*
G37*
G36*
X550984D02*
X543504D01*
X542678Y106430D01*
X541908Y106111D01*
X541246Y105604D01*
X540739Y104943D01*
X540420Y104173D01*
X540311Y103347D01*
Y99016D01*
X540420Y98189D01*
X540739Y97419D01*
X541246Y96758D01*
X541908Y96251D01*
X542678Y95932D01*
X543504Y95823D01*
X550984D01*
X551811Y95932D01*
X552581Y96251D01*
X553242Y96758D01*
X553749Y97419D01*
X554068Y98189D01*
X554177Y99016D01*
Y103347D01*
X554068Y104173D01*
X553749Y104943D01*
X553242Y105604D01*
X552581Y106111D01*
X551811Y106430D01*
X550984Y106539D01*
D02*
G37*
G36*
X515551D02*
X508071D01*
X507245Y106430D01*
X506474Y106111D01*
X505813Y105604D01*
X505306Y104943D01*
X504987Y104173D01*
X504878Y103347D01*
Y99016D01*
X504987Y98189D01*
X505306Y97419D01*
X505813Y96758D01*
X506474Y96251D01*
X507245Y95932D01*
X508071Y95823D01*
X515551D01*
X516377Y95932D01*
X517147Y96251D01*
X517809Y96758D01*
X518316Y97419D01*
X518635Y98189D01*
X518744Y99016D01*
Y103347D01*
X518635Y104173D01*
X518316Y104943D01*
X517809Y105604D01*
X517147Y106111D01*
X516377Y106430D01*
X515551Y106539D01*
D02*
G37*
G36*
X480118D02*
X472638D01*
X471811Y106430D01*
X471041Y106111D01*
X470380Y105604D01*
X469873Y104943D01*
X469554Y104173D01*
X469445Y103347D01*
Y99016D01*
X469554Y98189D01*
X469873Y97419D01*
X470380Y96758D01*
X471041Y96251D01*
X471811Y95932D01*
X472638Y95823D01*
X480118D01*
X480944Y95932D01*
X481714Y96251D01*
X482376Y96758D01*
X482883Y97419D01*
X483202Y98189D01*
X483311Y99016D01*
Y103347D01*
X483202Y104173D01*
X482883Y104943D01*
X482376Y105604D01*
X481714Y106111D01*
X480944Y106430D01*
X480118Y106539D01*
D02*
G37*
G36*
X444685D02*
X437205D01*
X436378Y106430D01*
X435608Y106111D01*
X434947Y105604D01*
X434440Y104943D01*
X434121Y104173D01*
X434012Y103347D01*
Y99016D01*
X434121Y98189D01*
X434440Y97419D01*
X434947Y96758D01*
X435608Y96251D01*
X436378Y95932D01*
X437205Y95823D01*
X444685D01*
X445511Y95932D01*
X446281Y96251D01*
X446943Y96758D01*
X447450Y97419D01*
X447769Y98189D01*
X447878Y99016D01*
Y103347D01*
X447769Y104173D01*
X447450Y104943D01*
X446943Y105604D01*
X446281Y106111D01*
X445511Y106430D01*
X444685Y106539D01*
D02*
G37*
G36*
X409252D02*
X401772D01*
X400945Y106430D01*
X400175Y106111D01*
X399514Y105604D01*
X399007Y104943D01*
X398688Y104173D01*
X398579Y103347D01*
Y99016D01*
X398688Y98189D01*
X399007Y97419D01*
X399514Y96758D01*
X400175Y96251D01*
X400945Y95932D01*
X401772Y95823D01*
X409252D01*
X410078Y95932D01*
X410848Y96251D01*
X411510Y96758D01*
X412017Y97419D01*
X412336Y98189D01*
X412445Y99016D01*
Y103347D01*
X412336Y104173D01*
X412017Y104943D01*
X411510Y105604D01*
X410848Y106111D01*
X410078Y106430D01*
X409252Y106539D01*
D02*
G37*
G36*
X373819D02*
X366339D01*
X365512Y106430D01*
X364742Y106111D01*
X364081Y105604D01*
X363574Y104943D01*
X363255Y104173D01*
X363146Y103347D01*
Y99016D01*
X363255Y98189D01*
X363574Y97419D01*
X364081Y96758D01*
X364742Y96251D01*
X365512Y95932D01*
X366339Y95823D01*
X373819D01*
X374645Y95932D01*
X375415Y96251D01*
X376077Y96758D01*
X376584Y97419D01*
X376903Y98189D01*
X377012Y99016D01*
Y103347D01*
X376903Y104173D01*
X376584Y104943D01*
X376077Y105604D01*
X375415Y106111D01*
X374645Y106430D01*
X373819Y106539D01*
D02*
G37*
G36*
X549214Y174819D02*
X548424D01*
X547695Y174517D01*
X547137Y173959D01*
X546835Y173229D01*
Y172440D01*
X547137Y171711D01*
X547290Y171558D01*
Y143153D01*
X541438Y137302D01*
X541107Y136806D01*
X540990Y136221D01*
Y114807D01*
X519445Y93262D01*
X488597D01*
X488406Y93724D01*
X508168Y113486D01*
X508500Y113982D01*
X508616Y114567D01*
Y135587D01*
X514467Y141438D01*
X514799Y141934D01*
X514915Y142520D01*
Y171558D01*
X515068Y171711D01*
X515370Y172440D01*
Y173229D01*
X515068Y173959D01*
X514510Y174517D01*
X513780Y174819D01*
X512991D01*
X512262Y174517D01*
X511704Y173959D01*
X511402Y173229D01*
Y172440D01*
X511704Y171711D01*
X511857Y171558D01*
Y143153D01*
X506005Y137302D01*
X505674Y136806D01*
X505557Y136221D01*
Y115200D01*
X485618Y95262D01*
X462630D01*
X462045Y95145D01*
X461549Y94814D01*
X459947Y93212D01*
X453509D01*
X453317Y93674D01*
X472735Y113092D01*
X473067Y113588D01*
X473183Y114173D01*
Y135587D01*
X479034Y141438D01*
X479366Y141934D01*
X479482Y142520D01*
Y171558D01*
X479635Y171711D01*
X479937Y172440D01*
Y173229D01*
X479635Y173959D01*
X479077Y174517D01*
X478347Y174819D01*
X477558D01*
X476829Y174517D01*
X476271Y173959D01*
X475969Y173229D01*
Y172440D01*
X476271Y171711D01*
X476423Y171558D01*
Y143153D01*
X470572Y137302D01*
X470241Y136806D01*
X470124Y136221D01*
Y114807D01*
X450529Y95212D01*
X424636D01*
X424050Y95096D01*
X423554Y94764D01*
X422002Y93212D01*
X418469D01*
X418278Y93674D01*
X437302Y112698D01*
X437634Y113194D01*
X437750Y113779D01*
Y134800D01*
X443219Y140269D01*
X443551Y140765D01*
X443667Y141350D01*
Y171206D01*
X443820Y171359D01*
X444122Y172088D01*
Y172877D01*
X443820Y173607D01*
X443262Y174165D01*
X442532Y174467D01*
X441743D01*
X441014Y174165D01*
X440456Y173607D01*
X440154Y172877D01*
Y172088D01*
X440456Y171359D01*
X440608Y171206D01*
Y141984D01*
X435139Y136514D01*
X434807Y136018D01*
X434691Y135433D01*
Y114413D01*
X415540Y95262D01*
X396882D01*
X396297Y95145D01*
X395800Y94814D01*
X382306Y81320D01*
X381844Y81511D01*
Y92674D01*
X401869Y112698D01*
X402200Y113194D01*
X402317Y113779D01*
Y135587D01*
X407419Y140689D01*
X407751Y141186D01*
X407867Y141771D01*
Y171206D01*
X408020Y171359D01*
X408322Y172088D01*
Y172877D01*
X408020Y173607D01*
X407462Y174165D01*
X406733Y174467D01*
X405943D01*
X405214Y174165D01*
X404656Y173607D01*
X404354Y172877D01*
Y172088D01*
X404656Y171359D01*
X404808Y171206D01*
Y142404D01*
X399706Y137302D01*
X399374Y136806D01*
X399258Y136221D01*
Y114413D01*
X379234Y94389D01*
X378902Y93892D01*
X378786Y93307D01*
Y55679D01*
X376962Y53855D01*
X376630Y53359D01*
X376514Y52774D01*
Y41402D01*
X376014Y41268D01*
X375958Y41364D01*
X375222Y42100D01*
X374321Y42620D01*
X373316Y42890D01*
X372275D01*
X371274Y42621D01*
X360584Y53311D01*
Y107240D01*
X366436Y113092D01*
X366767Y113588D01*
X366884Y114173D01*
Y134800D01*
X372419Y140335D01*
X372751Y140831D01*
X372867Y141417D01*
Y171306D01*
X373020Y171459D01*
X373322Y172188D01*
Y172977D01*
X373020Y173707D01*
X372462Y174265D01*
X371732Y174567D01*
X370943D01*
X370214Y174265D01*
X369656Y173707D01*
X369354Y172977D01*
Y172188D01*
X369656Y171459D01*
X369808Y171306D01*
Y142050D01*
X364273Y136514D01*
X363941Y136018D01*
X363825Y135433D01*
Y114807D01*
X357974Y108956D01*
X357642Y108459D01*
X357526Y107874D01*
Y54194D01*
X357064Y54003D01*
X346411Y64656D01*
Y103150D01*
X346295Y103735D01*
X345963Y104231D01*
X331451Y118744D01*
Y134800D01*
X336919Y140268D01*
X337251Y140764D01*
X337367Y141350D01*
Y171506D01*
X337520Y171659D01*
X337822Y172388D01*
Y173177D01*
X337520Y173907D01*
X336962Y174465D01*
X336232Y174767D01*
X335443D01*
X334714Y174465D01*
X334156Y173907D01*
X333854Y173177D01*
Y172388D01*
X334156Y171659D01*
X334308Y171506D01*
Y141983D01*
X328840Y136514D01*
X328508Y136018D01*
X328392Y135433D01*
Y118110D01*
X328508Y117525D01*
X328840Y117029D01*
X338892Y106977D01*
X338658Y106503D01*
X338386Y106539D01*
X330906D01*
X330079Y106430D01*
X329309Y106111D01*
X328648Y105604D01*
X328141Y104943D01*
X327822Y104173D01*
X327713Y103347D01*
Y99016D01*
X327822Y98189D01*
X328141Y97419D01*
X328648Y96758D01*
X329309Y96251D01*
X330079Y95932D01*
X330906Y95823D01*
X338386D01*
X339212Y95932D01*
X339982Y96251D01*
X340643Y96758D01*
X341151Y97419D01*
X341470Y98189D01*
X341579Y99016D01*
Y103347D01*
X341543Y103619D01*
X342016Y103852D01*
X343353Y102516D01*
Y64022D01*
X343469Y63437D01*
X343800Y62941D01*
X363376Y43365D01*
X363144Y42890D01*
X362275D01*
X361270Y42620D01*
X360368Y42100D01*
X359632Y41364D01*
X359112Y40463D01*
X358842Y39457D01*
Y38417D01*
X359112Y37411D01*
X359632Y36510D01*
X360368Y35774D01*
X361270Y35254D01*
X362275Y34984D01*
X363316D01*
X364321Y35254D01*
X365222Y35774D01*
X365518Y36070D01*
X366018Y35862D01*
Y34185D01*
X366134Y33600D01*
X366466Y33104D01*
X369111Y30459D01*
X368843Y29457D01*
Y28417D01*
X369112Y27411D01*
X369632Y26510D01*
X370368Y25774D01*
X371270Y25254D01*
X372275Y24984D01*
X373316D01*
X374321Y25254D01*
X375222Y25774D01*
X375958Y26510D01*
X376479Y27411D01*
X376748Y28417D01*
Y29457D01*
X376479Y30463D01*
X375958Y31364D01*
X375222Y32100D01*
X374321Y32620D01*
X373316Y32890D01*
X372275D01*
X371274Y32621D01*
X369077Y34819D01*
Y36472D01*
X369577Y36606D01*
X369632Y36510D01*
X370368Y35774D01*
X371270Y35254D01*
X372275Y34984D01*
X373316D01*
X374321Y35254D01*
X375222Y35774D01*
X375958Y36510D01*
X376014Y36606D01*
X376514Y36472D01*
Y33689D01*
X376630Y33104D01*
X376962Y32607D01*
X379111Y30459D01*
X378842Y29457D01*
Y28417D01*
X379112Y27411D01*
X379632Y26510D01*
X380368Y25774D01*
X381270Y25254D01*
X382275Y24984D01*
X383316D01*
X384321Y25254D01*
X385222Y25774D01*
X385958Y26510D01*
X386479Y27411D01*
X386748Y28417D01*
Y29457D01*
X386479Y30463D01*
X385958Y31364D01*
X385222Y32100D01*
X384321Y32620D01*
X383316Y32890D01*
X382275D01*
X381274Y32621D01*
X379573Y34323D01*
Y35862D01*
X380073Y36070D01*
X380368Y35774D01*
X381270Y35254D01*
X382275Y34984D01*
X383316D01*
X384321Y35254D01*
X385222Y35774D01*
X385958Y36510D01*
X386014Y36606D01*
X386514Y36472D01*
Y33689D01*
X386630Y33104D01*
X386962Y32607D01*
X389111Y30459D01*
X388843Y29457D01*
Y28417D01*
X389112Y27411D01*
X389632Y26510D01*
X390368Y25774D01*
X391270Y25254D01*
X392275Y24984D01*
X393316D01*
X394321Y25254D01*
X395222Y25774D01*
X395958Y26510D01*
X396479Y27411D01*
X396748Y28417D01*
Y29457D01*
X396479Y30463D01*
X395958Y31364D01*
X395222Y32100D01*
X394321Y32620D01*
X393316Y32890D01*
X392275D01*
X391274Y32621D01*
X389573Y34323D01*
Y35862D01*
X390073Y36070D01*
X390368Y35774D01*
X391270Y35254D01*
X392275Y34984D01*
X393316D01*
X394321Y35254D01*
X395222Y35774D01*
X395958Y36510D01*
X396014Y36606D01*
X396514Y36472D01*
Y33689D01*
X396630Y33104D01*
X396962Y32607D01*
X399111Y30459D01*
X398843Y29457D01*
Y28417D01*
X399112Y27411D01*
X399632Y26510D01*
X400368Y25774D01*
X401270Y25254D01*
X402275Y24984D01*
X403316D01*
X404321Y25254D01*
X405222Y25774D01*
X405958Y26510D01*
X406479Y27411D01*
X406748Y28417D01*
Y29457D01*
X406479Y30463D01*
X405958Y31364D01*
X405222Y32100D01*
X404321Y32620D01*
X403316Y32890D01*
X402275D01*
X401274Y32621D01*
X399573Y34323D01*
Y34984D01*
X406748D01*
Y40727D01*
X437720Y71699D01*
X517323D01*
X517908Y71815D01*
X518404Y72147D01*
X536460Y90203D01*
X555512D01*
X556097Y90319D01*
X556593Y90651D01*
X592420Y126478D01*
X592752Y126974D01*
X592868Y127559D01*
Y165354D01*
X592752Y165940D01*
X592420Y166436D01*
X586236Y172620D01*
Y172836D01*
X585934Y173565D01*
X585376Y174123D01*
X584647Y174425D01*
X583857D01*
X583128Y174123D01*
X582570Y173565D01*
X582268Y172836D01*
Y172046D01*
X582570Y171317D01*
X583128Y170759D01*
X583857Y170457D01*
X584073D01*
X589809Y164721D01*
Y128193D01*
X554878Y93262D01*
X535827D01*
X535242Y93145D01*
X534745Y92814D01*
X516689Y74758D01*
X457889D01*
X457697Y75220D01*
X472681Y90203D01*
X520079D01*
X520664Y90319D01*
X521160Y90651D01*
X543601Y113092D01*
X543933Y113588D01*
X544049Y114173D01*
Y135587D01*
X549900Y141438D01*
X550232Y141934D01*
X550348Y142520D01*
Y171558D01*
X550501Y171711D01*
X550803Y172440D01*
Y173229D01*
X550501Y173959D01*
X549943Y174517D01*
X549214Y174819D01*
D02*
G37*
G36*
X586417Y88035D02*
X578937D01*
X578111Y87926D01*
X577341Y87607D01*
X576680Y87100D01*
X576172Y86439D01*
X575853Y85669D01*
X575744Y84842D01*
Y80512D01*
X575853Y79685D01*
X576172Y78916D01*
X576680Y78254D01*
X577341Y77747D01*
X578111Y77428D01*
X578937Y77319D01*
X586417D01*
X587244Y77428D01*
X588014Y77747D01*
X588675Y78254D01*
X589182Y78916D01*
X589501Y79685D01*
X589610Y80512D01*
Y84842D01*
X589501Y85669D01*
X589182Y86439D01*
X588675Y87100D01*
X588014Y87607D01*
X587244Y87926D01*
X586417Y88035D01*
D02*
G37*
G36*
X550984D02*
X543504D01*
X542678Y87926D01*
X541908Y87607D01*
X541246Y87100D01*
X540739Y86439D01*
X540420Y85669D01*
X540311Y84842D01*
Y80512D01*
X540420Y79685D01*
X540739Y78916D01*
X541246Y78254D01*
X541908Y77747D01*
X542678Y77428D01*
X543504Y77319D01*
X550984D01*
X551811Y77428D01*
X552581Y77747D01*
X553242Y78254D01*
X553749Y78916D01*
X554068Y79685D01*
X554177Y80512D01*
Y84842D01*
X554068Y85669D01*
X553749Y86439D01*
X553242Y87100D01*
X552581Y87607D01*
X551811Y87926D01*
X550984Y88035D01*
D02*
G37*
G36*
X515551D02*
X508071D01*
X507245Y87926D01*
X506474Y87607D01*
X505813Y87100D01*
X505306Y86439D01*
X504987Y85669D01*
X504878Y84842D01*
Y80512D01*
X504987Y79685D01*
X505306Y78916D01*
X505813Y78254D01*
X506474Y77747D01*
X507245Y77428D01*
X508071Y77319D01*
X515551D01*
X516377Y77428D01*
X517147Y77747D01*
X517809Y78254D01*
X518316Y78916D01*
X518635Y79685D01*
X518744Y80512D01*
Y84842D01*
X518635Y85669D01*
X518316Y86439D01*
X517809Y87100D01*
X517147Y87607D01*
X516377Y87926D01*
X515551Y88035D01*
D02*
G37*
G36*
X480118D02*
X472638D01*
X471811Y87926D01*
X471041Y87607D01*
X470380Y87100D01*
X469873Y86439D01*
X469554Y85669D01*
X469445Y84842D01*
Y80512D01*
X469554Y79685D01*
X469873Y78916D01*
X470380Y78254D01*
X471041Y77747D01*
X471811Y77428D01*
X472638Y77319D01*
X480118D01*
X480944Y77428D01*
X481714Y77747D01*
X482376Y78254D01*
X482883Y78916D01*
X483202Y79685D01*
X483311Y80512D01*
Y84842D01*
X483202Y85669D01*
X482883Y86439D01*
X482376Y87100D01*
X481714Y87607D01*
X480944Y87926D01*
X480118Y88035D01*
D02*
G37*
G36*
X373819D02*
X366339D01*
X365512Y87926D01*
X364742Y87607D01*
X364081Y87100D01*
X363574Y86439D01*
X363255Y85669D01*
X363146Y84842D01*
Y80512D01*
X363255Y79685D01*
X363574Y78916D01*
X364081Y78254D01*
X364742Y77747D01*
X365512Y77428D01*
X366339Y77319D01*
X373819D01*
X374645Y77428D01*
X375415Y77747D01*
X376077Y78254D01*
X376584Y78916D01*
X376903Y79685D01*
X377012Y80512D01*
Y84842D01*
X376903Y85669D01*
X376584Y86439D01*
X376077Y87100D01*
X375415Y87607D01*
X374645Y87926D01*
X373819Y88035D01*
D02*
G37*
G36*
X338386D02*
X330906D01*
X330079Y87926D01*
X329309Y87607D01*
X328648Y87100D01*
X328141Y86439D01*
X327822Y85669D01*
X327713Y84842D01*
Y80512D01*
X327822Y79685D01*
X328141Y78916D01*
X328648Y78254D01*
X329309Y77747D01*
X330079Y77428D01*
X330906Y77319D01*
X338386D01*
X339212Y77428D01*
X339982Y77747D01*
X340643Y78254D01*
X341151Y78916D01*
X341470Y79685D01*
X341579Y80512D01*
Y84842D01*
X341470Y85669D01*
X341151Y86439D01*
X340643Y87100D01*
X339982Y87607D01*
X339212Y87926D01*
X338386Y88035D01*
D02*
G37*
G36*
X235232Y129751D02*
X234443D01*
X233714Y129449D01*
X233156Y128891D01*
X232854Y128162D01*
Y127372D01*
X233156Y126643D01*
X233714Y126085D01*
X234443Y125783D01*
X234659D01*
X301266Y59176D01*
Y42618D01*
X300368Y42100D01*
X299632Y41364D01*
X299577Y41268D01*
X299077Y41402D01*
Y54318D01*
X298960Y54903D01*
X298629Y55399D01*
X234049Y119979D01*
X233553Y120311D01*
X232967Y120427D01*
X81253D01*
X80668Y120311D01*
X80171Y119979D01*
X48856Y88664D01*
X48525Y88168D01*
X48408Y87583D01*
Y40335D01*
X34073Y26000D01*
X33857D01*
X33128Y25698D01*
X32570Y25140D01*
X32268Y24410D01*
Y23621D01*
X32570Y22892D01*
X33128Y22334D01*
X33857Y22031D01*
X34647D01*
X35376Y22334D01*
X35934Y22892D01*
X36236Y23621D01*
Y23837D01*
X51019Y38620D01*
X51351Y39116D01*
X51467Y39702D01*
Y48479D01*
X51967Y48813D01*
X52243Y48698D01*
X53032D01*
X53762Y49000D01*
X54320Y49559D01*
X54622Y50288D01*
Y51077D01*
X54320Y51807D01*
X54167Y51959D01*
Y82173D01*
X54667Y82272D01*
X54756Y82059D01*
X55314Y81501D01*
X56043Y81198D01*
X56832D01*
X57562Y81501D01*
X57715Y81653D01*
X61136D01*
X61139Y81654D01*
X61386Y81193D01*
X60259Y80067D01*
X60043D01*
X59314Y79765D01*
X58756Y79207D01*
X58454Y78477D01*
Y77688D01*
X58756Y76959D01*
X59314Y76401D01*
X60043Y76098D01*
X60833D01*
X61562Y76401D01*
X62120Y76959D01*
X62422Y77688D01*
Y77904D01*
X95886Y111368D01*
X114851D01*
X115043Y110906D01*
X103396Y99260D01*
X103180D01*
X102451Y98958D01*
X101893Y98400D01*
X101591Y97670D01*
Y96881D01*
X101893Y96152D01*
X102451Y95593D01*
X103180Y95291D01*
X103970D01*
X104699Y95593D01*
X105257Y96152D01*
X105559Y96881D01*
Y97097D01*
X117830Y109368D01*
X206922D01*
X272900Y43390D01*
X272693Y42890D01*
X272275D01*
X271270Y42620D01*
X270368Y42100D01*
X269632Y41364D01*
X269112Y40463D01*
X268843Y39457D01*
Y38417D01*
X269112Y37411D01*
X269632Y36510D01*
X270368Y35774D01*
X271270Y35254D01*
X272275Y34984D01*
X273316D01*
X274321Y35254D01*
X275222Y35774D01*
X275923Y36475D01*
X276185Y36449D01*
X276423Y36385D01*
Y33779D01*
X276540Y33194D01*
X276871Y32698D01*
X279111Y30459D01*
X278842Y29457D01*
Y28417D01*
X279112Y27411D01*
X279632Y26510D01*
X280368Y25774D01*
X281270Y25254D01*
X282275Y24984D01*
X283316D01*
X284321Y25254D01*
X285222Y25774D01*
X285958Y26510D01*
X286479Y27411D01*
X286748Y28417D01*
Y29457D01*
X286479Y30463D01*
X285958Y31364D01*
X285222Y32100D01*
X284321Y32620D01*
X283316Y32890D01*
X282275D01*
X281274Y32621D01*
X279482Y34413D01*
Y35953D01*
X279982Y36160D01*
X280368Y35774D01*
X281270Y35254D01*
X282275Y34984D01*
X283316D01*
X284321Y35254D01*
X285222Y35774D01*
X285518Y36070D01*
X286018Y35862D01*
Y34185D01*
X286134Y33600D01*
X286466Y33104D01*
X289111Y30459D01*
X288843Y29457D01*
Y28417D01*
X289112Y27411D01*
X289632Y26510D01*
X290368Y25774D01*
X291270Y25254D01*
X292275Y24984D01*
X293316D01*
X294321Y25254D01*
X295222Y25774D01*
X295958Y26510D01*
X296479Y27411D01*
X296748Y28417D01*
Y29457D01*
X296479Y30463D01*
X295958Y31364D01*
X295222Y32100D01*
X294321Y32620D01*
X293316Y32890D01*
X292275D01*
X291274Y32621D01*
X289077Y34819D01*
Y36472D01*
X289577Y36606D01*
X289632Y36510D01*
X290368Y35774D01*
X291270Y35254D01*
X292275Y34984D01*
X293316D01*
X294321Y35254D01*
X295222Y35774D01*
X295518Y36070D01*
X296018Y35862D01*
Y34185D01*
X296134Y33600D01*
X296466Y33104D01*
X299111Y30459D01*
X298843Y29457D01*
Y28417D01*
X299112Y27411D01*
X299632Y26510D01*
X300368Y25774D01*
X301270Y25254D01*
X302275Y24984D01*
X303316D01*
X304321Y25254D01*
X305222Y25774D01*
X305958Y26510D01*
X306479Y27411D01*
X306748Y28417D01*
Y29457D01*
X306479Y30463D01*
X305958Y31364D01*
X305222Y32100D01*
X304321Y32620D01*
X303316Y32890D01*
X302275D01*
X301274Y32621D01*
X299077Y34819D01*
Y36472D01*
X299577Y36606D01*
X299632Y36510D01*
X300368Y35774D01*
X301270Y35254D01*
X302275Y34984D01*
X303316D01*
X304321Y35254D01*
X305222Y35774D01*
X305958Y36510D01*
X306479Y37411D01*
X306748Y38417D01*
Y39457D01*
X306479Y40463D01*
X305958Y41364D01*
X305222Y42100D01*
X304325Y42618D01*
Y47626D01*
X304825Y47833D01*
X305112Y47546D01*
X305699Y47207D01*
X306354Y47032D01*
X307032D01*
X307687Y47207D01*
X308274Y47546D01*
X308295Y47567D01*
X341281D01*
X348958Y39890D01*
X348843Y39457D01*
Y38417D01*
X349112Y37411D01*
X349632Y36510D01*
X350368Y35774D01*
X351270Y35254D01*
X352275Y34984D01*
X353316D01*
X354321Y35254D01*
X355222Y35774D01*
X355958Y36510D01*
X356479Y37411D01*
X356748Y38417D01*
Y39457D01*
X356479Y40463D01*
X355958Y41364D01*
X355222Y42100D01*
X354321Y42620D01*
X353316Y42890D01*
X352275D01*
X351842Y42774D01*
X343568Y51048D01*
X342906Y51490D01*
X342126Y51645D01*
X308295D01*
X308274Y51667D01*
X307687Y52006D01*
X307032Y52181D01*
X306354D01*
X305699Y52006D01*
X305112Y51667D01*
X304825Y51379D01*
X304325Y51587D01*
Y59809D01*
X304208Y60395D01*
X303877Y60891D01*
X236822Y127946D01*
Y128162D01*
X236520Y128891D01*
X235962Y129449D01*
X235232Y129751D01*
D02*
G37*
G36*
X343316Y42890D02*
X342275D01*
X341270Y42620D01*
X340368Y42100D01*
X339632Y41364D01*
X339112Y40463D01*
X338843Y39457D01*
Y38417D01*
X339112Y37411D01*
X339632Y36510D01*
X340368Y35774D01*
X341270Y35254D01*
X342275Y34984D01*
X343316D01*
X344321Y35254D01*
X345222Y35774D01*
X345958Y36510D01*
X346479Y37411D01*
X346748Y38417D01*
Y39457D01*
X346479Y40463D01*
X345958Y41364D01*
X345222Y42100D01*
X344321Y42620D01*
X343316Y42890D01*
D02*
G37*
G36*
X333316D02*
X332275D01*
X331270Y42620D01*
X330368Y42100D01*
X329632Y41364D01*
X329112Y40463D01*
X328842Y39457D01*
Y38417D01*
X329112Y37411D01*
X329632Y36510D01*
X330368Y35774D01*
X331270Y35254D01*
X332275Y34984D01*
X333316D01*
X334321Y35254D01*
X335222Y35774D01*
X335958Y36510D01*
X336479Y37411D01*
X336748Y38417D01*
Y39457D01*
X336479Y40463D01*
X335958Y41364D01*
X335222Y42100D01*
X334321Y42620D01*
X333316Y42890D01*
D02*
G37*
G36*
X323316D02*
X322275D01*
X321270Y42620D01*
X320368Y42100D01*
X319632Y41364D01*
X319112Y40463D01*
X318843Y39457D01*
Y38417D01*
X319112Y37411D01*
X319632Y36510D01*
X320368Y35774D01*
X321270Y35254D01*
X322275Y34984D01*
X323316D01*
X324321Y35254D01*
X325222Y35774D01*
X325958Y36510D01*
X326479Y37411D01*
X326748Y38417D01*
Y39457D01*
X326479Y40463D01*
X325958Y41364D01*
X325222Y42100D01*
X324321Y42620D01*
X323316Y42890D01*
D02*
G37*
G36*
X313316D02*
X312275D01*
X311270Y42620D01*
X310368Y42100D01*
X309632Y41364D01*
X309112Y40463D01*
X308842Y39457D01*
Y38417D01*
X309112Y37411D01*
X309632Y36510D01*
X310368Y35774D01*
X311270Y35254D01*
X312275Y34984D01*
X313316D01*
X314321Y35254D01*
X315222Y35774D01*
X315958Y36510D01*
X316479Y37411D01*
X316748Y38417D01*
Y39457D01*
X316479Y40463D01*
X315958Y41364D01*
X315222Y42100D01*
X314321Y42620D01*
X313316Y42890D01*
D02*
G37*
G36*
X263316D02*
X262275D01*
X261270Y42620D01*
X260368Y42100D01*
X259632Y41364D01*
X259112Y40463D01*
X258842Y39457D01*
Y38417D01*
X259112Y37411D01*
X259632Y36510D01*
X260368Y35774D01*
X261270Y35254D01*
X262275Y34984D01*
X263316D01*
X264321Y35254D01*
X265222Y35774D01*
X265958Y36510D01*
X266479Y37411D01*
X266748Y38417D01*
Y39457D01*
X266479Y40463D01*
X265958Y41364D01*
X265222Y42100D01*
X264321Y42620D01*
X263316Y42890D01*
D02*
G37*
G36*
X363316Y32890D02*
X362275D01*
X361270Y32620D01*
X360368Y32100D01*
X359632Y31364D01*
X359112Y30463D01*
X358842Y29457D01*
Y28417D01*
X359112Y27411D01*
X359632Y26510D01*
X360368Y25774D01*
X361270Y25254D01*
X362275Y24984D01*
X363316D01*
X364321Y25254D01*
X365222Y25774D01*
X365958Y26510D01*
X366479Y27411D01*
X366748Y28417D01*
Y29457D01*
X366479Y30463D01*
X365958Y31364D01*
X365222Y32100D01*
X364321Y32620D01*
X363316Y32890D01*
D02*
G37*
G36*
X343316D02*
X342275D01*
X341270Y32620D01*
X340368Y32100D01*
X339632Y31364D01*
X339112Y30463D01*
X338843Y29457D01*
Y28417D01*
X339112Y27411D01*
X339632Y26510D01*
X340368Y25774D01*
X341270Y25254D01*
X342275Y24984D01*
X343316D01*
X344321Y25254D01*
X345222Y25774D01*
X345958Y26510D01*
X346479Y27411D01*
X346748Y28417D01*
Y29457D01*
X346479Y30463D01*
X345958Y31364D01*
X345222Y32100D01*
X344321Y32620D01*
X343316Y32890D01*
D02*
G37*
G36*
X333316D02*
X332275D01*
X331270Y32620D01*
X330368Y32100D01*
X329632Y31364D01*
X329112Y30463D01*
X328842Y29457D01*
Y28417D01*
X329112Y27411D01*
X329632Y26510D01*
X330368Y25774D01*
X331270Y25254D01*
X332275Y24984D01*
X333316D01*
X334321Y25254D01*
X335222Y25774D01*
X335958Y26510D01*
X336479Y27411D01*
X336748Y28417D01*
Y29457D01*
X336479Y30463D01*
X335958Y31364D01*
X335222Y32100D01*
X334321Y32620D01*
X333316Y32890D01*
D02*
G37*
G36*
X323316D02*
X322275D01*
X321270Y32620D01*
X320368Y32100D01*
X319632Y31364D01*
X319112Y30463D01*
X318843Y29457D01*
Y28417D01*
X319112Y27411D01*
X319632Y26510D01*
X320368Y25774D01*
X321270Y25254D01*
X322275Y24984D01*
X323316D01*
X324321Y25254D01*
X325222Y25774D01*
X325958Y26510D01*
X326479Y27411D01*
X326748Y28417D01*
Y29457D01*
X326479Y30463D01*
X325958Y31364D01*
X325222Y32100D01*
X324321Y32620D01*
X323316Y32890D01*
D02*
G37*
G36*
X313316D02*
X312275D01*
X311270Y32620D01*
X310368Y32100D01*
X309632Y31364D01*
X309112Y30463D01*
X308842Y29457D01*
Y28417D01*
X309112Y27411D01*
X309632Y26510D01*
X310368Y25774D01*
X311270Y25254D01*
X312275Y24984D01*
X313316D01*
X314321Y25254D01*
X315222Y25774D01*
X315958Y26510D01*
X316479Y27411D01*
X316748Y28417D01*
Y29457D01*
X316479Y30463D01*
X315958Y31364D01*
X315222Y32100D01*
X314321Y32620D01*
X313316Y32890D01*
D02*
G37*
G36*
X273316D02*
X272275D01*
X271270Y32620D01*
X270368Y32100D01*
X269632Y31364D01*
X269112Y30463D01*
X268843Y29457D01*
Y28417D01*
X269112Y27411D01*
X269632Y26510D01*
X270368Y25774D01*
X271270Y25254D01*
X272275Y24984D01*
X273316D01*
X274321Y25254D01*
X275222Y25774D01*
X275958Y26510D01*
X276479Y27411D01*
X276748Y28417D01*
Y29457D01*
X276479Y30463D01*
X275958Y31364D01*
X275222Y32100D01*
X274321Y32620D01*
X273316Y32890D01*
D02*
G37*
G36*
X134921Y48933D02*
X132796D01*
X130697Y48601D01*
X128676Y47944D01*
X126783Y46979D01*
X125064Y45730D01*
X123561Y44228D01*
X122312Y42509D01*
X121347Y40615D01*
X120691Y38594D01*
X120358Y36496D01*
Y34371D01*
X120691Y32272D01*
X121347Y30251D01*
X122312Y28357D01*
X123561Y26638D01*
X125064Y25136D01*
X126783Y23887D01*
X128676Y22922D01*
X130697Y22265D01*
X132796Y21933D01*
X134921D01*
X137020Y22265D01*
X139041Y22922D01*
X140934Y23887D01*
X142653Y25136D01*
X144156Y26638D01*
X145405Y28357D01*
X146369Y30251D01*
X147026Y32272D01*
X147358Y34371D01*
Y36496D01*
X147026Y38594D01*
X146369Y40615D01*
X145405Y42509D01*
X144156Y44228D01*
X142653Y45730D01*
X140934Y46979D01*
X139041Y47944D01*
X137020Y48601D01*
X134921Y48933D01*
D02*
G37*
G36*
X85158Y29093D02*
X82008D01*
X81336Y29005D01*
X80709Y28745D01*
X80172Y28332D01*
X79759Y27795D01*
X79499Y27168D01*
X79411Y26496D01*
Y22559D01*
X79499Y21887D01*
X79759Y21261D01*
X80172Y20723D01*
X80709Y20310D01*
X81336Y20051D01*
X82008Y19962D01*
X85158D01*
X85830Y20051D01*
X86456Y20310D01*
X86994Y20723D01*
X87407Y21261D01*
X87666Y21887D01*
X87754Y22559D01*
Y26496D01*
X87666Y27168D01*
X87407Y27795D01*
X86994Y28332D01*
X86456Y28745D01*
X85830Y29005D01*
X85158Y29093D01*
D02*
G37*
G36*
X93583Y29107D02*
X92499Y28964D01*
X91490Y28546D01*
X90623Y27881D01*
X89958Y27014D01*
X89540Y26004D01*
X89397Y24921D01*
Y24134D01*
X89540Y23051D01*
X89958Y22041D01*
X90623Y21174D01*
X91490Y20509D01*
X92499Y20091D01*
X93583Y19948D01*
X94666Y20091D01*
X95675Y20509D01*
X96542Y21174D01*
X97207Y22041D01*
X97625Y23051D01*
X97768Y24134D01*
Y24921D01*
X97625Y26004D01*
X97207Y27014D01*
X96542Y27881D01*
X95675Y28546D01*
X94666Y28964D01*
X93583Y29107D01*
D02*
G37*
%LPD*%
G36*
X366018Y273855D02*
Y270149D01*
X350938Y255070D01*
X350607Y254573D01*
X350490Y253988D01*
Y250496D01*
X349990Y250362D01*
X349935Y250459D01*
X349199Y251195D01*
X348297Y251715D01*
X347292Y251984D01*
X346251D01*
X345246Y251715D01*
X344345Y251195D01*
X343762Y250612D01*
X343262Y250819D01*
Y255233D01*
X361274Y273245D01*
X362275Y272976D01*
X363316D01*
X364321Y273246D01*
X365222Y273766D01*
X365518Y274062D01*
X366018Y273855D01*
D02*
G37*
G36*
X332275Y272976D02*
X332693D01*
X332900Y272476D01*
X320646Y260222D01*
X318905D01*
X318713Y260684D01*
X331274Y273245D01*
X332275Y272976D01*
D02*
G37*
G36*
X386514Y274465D02*
Y266628D01*
X386630Y266042D01*
X386962Y265546D01*
X399994Y252514D01*
Y251106D01*
X399494Y250899D01*
X399199Y251195D01*
X398297Y251715D01*
X397292Y251984D01*
X396251D01*
X395246Y251715D01*
X394345Y251195D01*
X393762Y250612D01*
X393262Y250819D01*
Y253150D01*
X393145Y253735D01*
X392814Y254231D01*
X385053Y261992D01*
Y273668D01*
X385222Y273766D01*
X385958Y274502D01*
X386014Y274599D01*
X386514Y274465D01*
D02*
G37*
G36*
X376030Y273866D02*
Y270079D01*
X376146Y269494D01*
X376478Y268997D01*
X379994Y265481D01*
Y251106D01*
X379494Y250899D01*
X379199Y251195D01*
X378297Y251715D01*
X377292Y251984D01*
X376251D01*
X375246Y251715D01*
X374345Y251195D01*
X373609Y250459D01*
X373088Y249557D01*
X372819Y248552D01*
Y247511D01*
X373087Y246510D01*
X367538Y240961D01*
X367322D01*
X366593Y240658D01*
X366034Y240100D01*
X365732Y239371D01*
Y238582D01*
X366034Y237852D01*
X366593Y237294D01*
X367322Y236992D01*
X368111D01*
X368841Y237294D01*
X369399Y237852D01*
X369701Y238582D01*
Y238798D01*
X375250Y244347D01*
X376251Y244079D01*
X376669D01*
X376876Y243579D01*
X358690Y225392D01*
X342447D01*
X342294Y225545D01*
X341565Y225847D01*
X340775D01*
X340046Y225545D01*
X339488Y224987D01*
X339186Y224257D01*
Y223468D01*
X339384Y222990D01*
X339083Y222490D01*
X333216D01*
X331088Y224618D01*
Y232469D01*
X334098Y235478D01*
X354331D01*
X354916Y235595D01*
X355412Y235926D01*
X362893Y243407D01*
X363224Y243903D01*
X363340Y244488D01*
Y259996D01*
X373877Y270533D01*
X374208Y271029D01*
X374325Y271614D01*
Y273248D01*
X375222Y273766D01*
X375530Y274074D01*
X376030Y273866D01*
D02*
G37*
G36*
X390203Y252516D02*
Y250897D01*
X389703Y250690D01*
X389199Y251195D01*
X388297Y251715D01*
X387292Y251984D01*
X386251D01*
X385246Y251715D01*
X384345Y251195D01*
X383609Y250459D01*
X383553Y250362D01*
X383053Y250496D01*
Y259013D01*
X383515Y259204D01*
X390203Y252516D01*
D02*
G37*
G36*
X360282Y259434D02*
Y250819D01*
X359782Y250612D01*
X359199Y251195D01*
X358297Y251715D01*
X357292Y251984D01*
X356251D01*
X355246Y251715D01*
X354345Y251195D01*
X354049Y250899D01*
X353549Y251106D01*
Y253355D01*
X359820Y259625D01*
X360282Y259434D01*
D02*
G37*
G36*
X390368Y273766D02*
X391266Y273248D01*
Y268728D01*
X391382Y268143D01*
X391714Y267647D01*
X406876Y252484D01*
X406669Y251984D01*
X406251D01*
X405246Y251715D01*
X404345Y251195D01*
X403609Y250459D01*
X403553Y250362D01*
X403053Y250496D01*
Y253147D01*
X402937Y253733D01*
X402605Y254229D01*
X389573Y267261D01*
Y273855D01*
X390073Y274062D01*
X390368Y273766D01*
D02*
G37*
G36*
X266901Y266702D02*
X250452Y250253D01*
X249863Y250371D01*
X249714Y250730D01*
X249561Y250883D01*
Y251729D01*
X264996Y267163D01*
X266710D01*
X266901Y266702D01*
D02*
G37*
G36*
X354345Y244868D02*
X355246Y244348D01*
X356251Y244079D01*
X357292D01*
X358297Y244348D01*
X359199Y244868D01*
X359423Y245093D01*
X359965Y244928D01*
X359986Y244826D01*
X353697Y238537D01*
X347653D01*
X347461Y238999D01*
X353101Y244639D01*
X353408Y245098D01*
X353465Y245142D01*
X353965Y245248D01*
X354345Y244868D01*
D02*
G37*
G36*
X294334Y258702D02*
X275663Y240030D01*
X275331Y239534D01*
X275215Y238949D01*
Y234956D01*
X274715Y234812D01*
X274081Y235447D01*
X273179Y235967D01*
X272174Y236236D01*
X271133D01*
X270128Y235967D01*
X269227Y235447D01*
X268931Y235151D01*
X268431Y235358D01*
Y237134D01*
X290460Y259163D01*
X294143D01*
X294334Y258702D01*
D02*
G37*
G36*
X287673Y260702D02*
X265820Y238849D01*
X265489Y238353D01*
X265372Y237768D01*
Y234956D01*
X264872Y234812D01*
X264238Y235447D01*
X263337Y235967D01*
X262331Y236236D01*
X261291D01*
X260285Y235967D01*
X259384Y235447D01*
X259088Y235151D01*
X258589Y235358D01*
Y235953D01*
X283799Y261163D01*
X287481D01*
X287673Y260702D01*
D02*
G37*
G36*
X281011Y262702D02*
X255978Y237668D01*
X255646Y237172D01*
X255530Y236587D01*
Y234956D01*
X255030Y234812D01*
X254396Y235447D01*
X253494Y235967D01*
X252489Y236236D01*
X251448D01*
X250443Y235967D01*
X249996Y235709D01*
X249690Y236109D01*
X276744Y263163D01*
X280820D01*
X281011Y262702D01*
D02*
G37*
G36*
X273956Y264702D02*
X246135Y236881D01*
X245804Y236385D01*
X245687Y235799D01*
Y234956D01*
X245187Y234812D01*
X244553Y235447D01*
X243652Y235967D01*
X242646Y236236D01*
X241606D01*
X241418Y236186D01*
X241159Y236634D01*
X269689Y265163D01*
X273765D01*
X273956Y264702D01*
D02*
G37*
G36*
X297846Y256702D02*
X287107Y245963D01*
X286776Y245467D01*
X286660Y244882D01*
Y220079D01*
X286776Y219494D01*
X287107Y218997D01*
X297382Y208722D01*
X297175Y208222D01*
X288035D01*
X278274Y217984D01*
Y229209D01*
X278773Y229416D01*
X279069Y229120D01*
X279970Y228600D01*
X280976Y228331D01*
X282016D01*
X283022Y228600D01*
X283923Y229120D01*
X284659Y229856D01*
X285179Y230758D01*
X285449Y231763D01*
Y232804D01*
X285179Y233809D01*
X284659Y234711D01*
X283923Y235447D01*
X283022Y235967D01*
X282016Y236236D01*
X280976D01*
X279970Y235967D01*
X279069Y235447D01*
X278773Y235151D01*
X278274Y235358D01*
Y238315D01*
X297122Y257164D01*
X297654D01*
X297846Y256702D01*
D02*
G37*
G36*
X275215Y229611D02*
Y217350D01*
X275331Y216765D01*
X275663Y216269D01*
X285247Y206684D01*
X285056Y206222D01*
X280193D01*
X268431Y217984D01*
Y229209D01*
X268931Y229416D01*
X269227Y229120D01*
X270128Y228600D01*
X271133Y228331D01*
X272174D01*
X273179Y228600D01*
X274081Y229120D01*
X274715Y229755D01*
X275215Y229611D01*
D02*
G37*
G36*
X265372D02*
Y217350D01*
X265489Y216765D01*
X265820Y216269D01*
X277736Y204353D01*
X277544Y203892D01*
X271106D01*
X258589Y216409D01*
Y229209D01*
X259088Y229416D01*
X259384Y229120D01*
X260285Y228600D01*
X261291Y228331D01*
X262331D01*
X263337Y228600D01*
X264238Y229120D01*
X264872Y229755D01*
X265372Y229611D01*
D02*
G37*
G36*
X255530D02*
Y215776D01*
X255646Y215190D01*
X255978Y214694D01*
X269391Y201281D01*
X269449Y201242D01*
X269297Y200742D01*
X265988D01*
X248746Y217984D01*
Y229209D01*
X249246Y229416D01*
X249541Y229120D01*
X250443Y228600D01*
X251448Y228331D01*
X252489D01*
X253494Y228600D01*
X254396Y229120D01*
X255030Y229755D01*
X255530Y229611D01*
D02*
G37*
G36*
X245687D02*
Y217350D01*
X245804Y216765D01*
X246135Y216269D01*
X263992Y198412D01*
X263785Y197912D01*
X261731D01*
X238903Y220740D01*
Y229209D01*
X239403Y229416D01*
X239699Y229120D01*
X240600Y228600D01*
X241606Y228331D01*
X242646D01*
X243652Y228600D01*
X244553Y229120D01*
X245187Y229755D01*
X245687Y229611D01*
D02*
G37*
G36*
X383609Y245604D02*
X384345Y244868D01*
X385246Y244348D01*
X386251Y244079D01*
X387292D01*
X388297Y244348D01*
X389199Y244868D01*
X389703Y245373D01*
X390203Y245166D01*
Y240253D01*
X390050Y240100D01*
X389748Y239371D01*
Y238582D01*
X390050Y237852D01*
X390608Y237294D01*
X391338Y236992D01*
X391996D01*
X392223Y236605D01*
X392241Y236530D01*
X380863Y225151D01*
X377261D01*
X377108Y225304D01*
X376379Y225606D01*
X375590D01*
X374860Y225304D01*
X374302Y224746D01*
X374000Y224017D01*
Y223227D01*
X374098Y222990D01*
X373764Y222490D01*
X360821D01*
X360613Y222990D01*
X382605Y244982D01*
X382937Y245478D01*
X382980Y245694D01*
X383507Y245781D01*
X383609Y245604D01*
D02*
G37*
G36*
X481947Y217215D02*
X482676Y216913D01*
X483466D01*
X483914Y217099D01*
X484198Y216675D01*
X479612Y212089D01*
X479112Y212297D01*
X478848Y212935D01*
X478289Y213493D01*
X477560Y213795D01*
X476771D01*
X476041Y213493D01*
X475483Y212935D01*
X475181Y212206D01*
Y212131D01*
X474920Y211928D01*
X474425Y212151D01*
Y212206D01*
X474123Y212935D01*
X473565Y213493D01*
X472836Y213795D01*
X472046D01*
X471317Y213493D01*
X471164Y213340D01*
X455331D01*
X454996Y213840D01*
X455134Y214172D01*
Y214962D01*
X454832Y215691D01*
X454274Y216249D01*
X453544Y216551D01*
X452755D01*
X452026Y216249D01*
X451873Y216096D01*
X434098D01*
X433225Y216969D01*
X433416Y217431D01*
X481731D01*
X481947Y217215D01*
D02*
G37*
G36*
X432311Y210730D02*
X432807Y210398D01*
X433392Y210282D01*
X471164D01*
X471317Y210129D01*
X472046Y209827D01*
X472311D01*
X472518Y209327D01*
X471414Y208222D01*
X420644D01*
X420366Y208638D01*
X420488Y208932D01*
Y209721D01*
X420428Y209866D01*
X420706Y210282D01*
X427070D01*
X427222Y210129D01*
X427952Y209827D01*
X428741D01*
X429470Y210129D01*
X430029Y210687D01*
X430331Y211416D01*
Y212002D01*
X430828Y212212D01*
X432311Y210730D01*
D02*
G37*
G36*
X348964Y202702D02*
X347004Y200742D01*
X302780D01*
X302535Y201242D01*
X302772Y201814D01*
Y202603D01*
X302712Y202748D01*
X302990Y203164D01*
X348773D01*
X348964Y202702D01*
D02*
G37*
G36*
X389756Y202663D02*
X382520Y195428D01*
X312040D01*
X311762Y195844D01*
X311822Y195988D01*
Y196777D01*
X311654Y197183D01*
X311988Y197683D01*
X347638D01*
X348223Y197800D01*
X348719Y198131D01*
X351141Y200553D01*
X383261D01*
X383414Y200400D01*
X384143Y200098D01*
X384932D01*
X385662Y200400D01*
X386220Y200959D01*
X386522Y201688D01*
Y202477D01*
X386410Y202748D01*
X386688Y203164D01*
X389549D01*
X389756Y202663D01*
D02*
G37*
G36*
X417761Y202748D02*
X417701Y202603D01*
Y202387D01*
X408008Y192695D01*
X384820D01*
X384613Y193195D01*
X391871Y200453D01*
X401161D01*
X401314Y200301D01*
X402043Y199998D01*
X402833D01*
X403562Y200301D01*
X404120Y200859D01*
X404422Y201588D01*
Y202377D01*
X404304Y202663D01*
X404638Y203164D01*
X417483D01*
X417761Y202748D01*
D02*
G37*
G36*
X472102Y205001D02*
X472208Y204686D01*
X456217Y188695D01*
X446266D01*
X446075Y189157D01*
X455716Y198798D01*
X455832D01*
X456562Y199100D01*
X457120Y199659D01*
X457422Y200388D01*
Y201128D01*
X457549Y201233D01*
X457880Y201377D01*
X459154Y200104D01*
Y199888D01*
X459456Y199159D01*
X460014Y198600D01*
X460743Y198298D01*
X461532D01*
X462262Y198600D01*
X462820Y199159D01*
X463122Y199888D01*
Y200677D01*
X462820Y201407D01*
X462262Y201965D01*
X461532Y202267D01*
X461316D01*
X458882Y204702D01*
X459073Y205164D01*
X471979D01*
X472102Y205001D01*
D02*
G37*
G36*
X454794Y202663D02*
X454314Y202465D01*
X453756Y201907D01*
X453454Y201177D01*
Y200861D01*
X443287Y190695D01*
X410987D01*
X410796Y191157D01*
X419864Y200224D01*
X420080D01*
X420809Y200526D01*
X421367Y201085D01*
X421669Y201814D01*
Y202603D01*
X421609Y202748D01*
X421887Y203164D01*
X454694D01*
X454794Y202663D01*
D02*
G37*
G36*
X236224Y189174D02*
X223963Y176913D01*
X222961Y177181D01*
X221921D01*
X220915Y176912D01*
X220014Y176391D01*
X219278Y175655D01*
X218758Y174754D01*
X218488Y173749D01*
Y172708D01*
X218758Y171703D01*
X219278Y170801D01*
X220014Y170065D01*
X220915Y169545D01*
X221921Y169276D01*
X222961D01*
X223967Y169545D01*
X224868Y170065D01*
X225604Y170801D01*
X226124Y171703D01*
X226394Y172708D01*
Y173749D01*
X226125Y174750D01*
X239012Y187636D01*
X243875D01*
X244066Y187174D01*
X233805Y176913D01*
X232804Y177181D01*
X231763D01*
X230758Y176912D01*
X229856Y176391D01*
X229120Y175655D01*
X228600Y174754D01*
X228331Y173749D01*
Y172708D01*
X228600Y171703D01*
X229120Y170801D01*
X229856Y170065D01*
X230758Y169545D01*
X231763Y169276D01*
X232804D01*
X233809Y169545D01*
X234711Y170065D01*
X235447Y170801D01*
X235967Y171703D01*
X236236Y172708D01*
Y173749D01*
X235968Y174750D01*
X246854Y185636D01*
X251717D01*
X251909Y185174D01*
X243648Y176913D01*
X242646Y177181D01*
X241606D01*
X240600Y176912D01*
X239699Y176391D01*
X238963Y175655D01*
X238443Y174754D01*
X238173Y173749D01*
Y172708D01*
X238443Y171703D01*
X238963Y170801D01*
X239699Y170065D01*
X240600Y169545D01*
X241606Y169276D01*
X242646D01*
X243652Y169545D01*
X244553Y170065D01*
X245289Y170801D01*
X245809Y171703D01*
X246079Y172708D01*
Y173749D01*
X245811Y174750D01*
X254696Y183636D01*
X259560D01*
X259751Y183174D01*
X253490Y176913D01*
X252489Y177181D01*
X251448D01*
X250443Y176912D01*
X249541Y176391D01*
X248805Y175655D01*
X248285Y174754D01*
X248016Y173749D01*
Y172708D01*
X248285Y171703D01*
X248805Y170801D01*
X249541Y170065D01*
X250443Y169545D01*
X251448Y169276D01*
X252489D01*
X253494Y169545D01*
X254396Y170065D01*
X255132Y170801D01*
X255652Y171703D01*
X255921Y172708D01*
Y173749D01*
X255653Y174750D01*
X262539Y181636D01*
X267403D01*
X267594Y181174D01*
X263333Y176913D01*
X262331Y177181D01*
X261291D01*
X260285Y176912D01*
X259384Y176391D01*
X258648Y175655D01*
X258128Y174754D01*
X257858Y173749D01*
Y172708D01*
X258128Y171703D01*
X258648Y170801D01*
X259384Y170065D01*
X260285Y169545D01*
X261291Y169276D01*
X262331D01*
X263337Y169545D01*
X264238Y170065D01*
X264974Y170801D01*
X265494Y171703D01*
X265764Y172708D01*
Y173749D01*
X265495Y174750D01*
X270381Y179636D01*
X275245D01*
X275436Y179174D01*
X273175Y176913D01*
X272174Y177181D01*
X271133D01*
X270128Y176912D01*
X269227Y176391D01*
X268491Y175655D01*
X267970Y174754D01*
X267701Y173749D01*
Y172708D01*
X267970Y171703D01*
X268491Y170801D01*
X269227Y170065D01*
X270128Y169545D01*
X271133Y169276D01*
X272174D01*
X273179Y169545D01*
X274081Y170065D01*
X274817Y170801D01*
X275337Y171703D01*
X275606Y172708D01*
Y173749D01*
X275338Y174750D01*
X278224Y177636D01*
X280741D01*
X280807Y177136D01*
X279970Y176912D01*
X279069Y176391D01*
X278333Y175655D01*
X277813Y174754D01*
X277543Y173749D01*
Y172708D01*
X277813Y171703D01*
X278333Y170801D01*
X279069Y170065D01*
X279970Y169545D01*
X280976Y169276D01*
X282016D01*
X283022Y169545D01*
X283923Y170065D01*
X284659Y170801D01*
X285179Y171703D01*
X285449Y172708D01*
Y173749D01*
X285181Y174750D01*
X286067Y175636D01*
X291270D01*
X291477Y175136D01*
X284406Y168065D01*
X209689D01*
X208978Y168776D01*
X209185Y169276D01*
X216551D01*
Y175018D01*
X231169Y189636D01*
X236032D01*
X236224Y189174D01*
D02*
G37*
G36*
X239632Y274502D02*
X240368Y273766D01*
X241270Y273246D01*
X242275Y272976D01*
X243144D01*
X243376Y272501D01*
X224798Y253923D01*
X205413D01*
X205222Y254385D01*
X205607Y254770D01*
X220866D01*
X221451Y254886D01*
X221948Y255218D01*
X238629Y271899D01*
X238960Y272395D01*
X239077Y272980D01*
Y274465D01*
X239577Y274599D01*
X239632Y274502D01*
D02*
G37*
G36*
X216197Y272514D02*
X189470Y245787D01*
X189431Y245729D01*
X188931Y245881D01*
Y250902D01*
X211005Y272976D01*
X216006D01*
X216197Y272514D01*
D02*
G37*
G36*
X458864Y251965D02*
X458557Y251565D01*
X458297Y251715D01*
X457292Y251984D01*
X456251D01*
X455246Y251715D01*
X454345Y251195D01*
X453706Y250555D01*
X453295Y250526D01*
X453095Y250569D01*
X453050Y250636D01*
X448985Y254702D01*
X449176Y255164D01*
X455666D01*
X458864Y251965D01*
D02*
G37*
G36*
X25486Y133300D02*
Y117837D01*
X18768Y111118D01*
X18277Y111216D01*
X18218Y111360D01*
X17659Y111918D01*
X16930Y112221D01*
X16141D01*
X15412Y111918D01*
X14853Y111360D01*
X14551Y110631D01*
Y110415D01*
X11078Y106942D01*
X10616Y107133D01*
Y123808D01*
X17988Y131180D01*
X18488Y130973D01*
Y130708D01*
X18790Y129978D01*
X19349Y129420D01*
X20078Y129118D01*
X20867D01*
X21596Y129420D01*
X22155Y129978D01*
X22457Y130708D01*
Y130924D01*
X25024Y133492D01*
X25486Y133300D01*
D02*
G37*
G36*
X232900Y43390D02*
X232693Y42890D01*
X232275D01*
X231270Y42620D01*
X230368Y42100D01*
X229739Y41471D01*
X229162Y41435D01*
X229125Y41491D01*
X222906Y47710D01*
X223097Y48171D01*
X228118D01*
X232900Y43390D01*
D02*
G37*
G36*
X432484Y91691D02*
X415550Y74758D01*
X400000D01*
X399415Y74641D01*
X398919Y74310D01*
X391714Y67105D01*
X391382Y66609D01*
X391266Y66024D01*
Y42618D01*
X390368Y42100D01*
X390073Y41805D01*
X389573Y42012D01*
Y76780D01*
X398141Y85348D01*
X398615Y85115D01*
X398579Y84842D01*
Y80512D01*
X398688Y79685D01*
X399007Y78916D01*
X399514Y78254D01*
X400175Y77747D01*
X400945Y77428D01*
X401772Y77319D01*
X409252D01*
X410078Y77428D01*
X410848Y77747D01*
X411510Y78254D01*
X412017Y78916D01*
X412336Y79685D01*
X412445Y80512D01*
Y84842D01*
X412336Y85669D01*
X412017Y86439D01*
X411510Y87100D01*
X410848Y87607D01*
X410078Y87926D01*
X409252Y88035D01*
X401772D01*
X401499Y87999D01*
X401266Y88473D01*
X402946Y90153D01*
X422636D01*
X423221Y90270D01*
X423717Y90601D01*
X425269Y92153D01*
X432292D01*
X432484Y91691D01*
D02*
G37*
G36*
X434932Y73237D02*
X404585Y42890D01*
X399573D01*
Y47410D01*
X406145Y53982D01*
X413386D01*
X413971Y54099D01*
X414467Y54430D01*
X433736Y73699D01*
X434741D01*
X434932Y73237D01*
D02*
G37*
G36*
X469893Y91741D02*
X454910Y76758D01*
X433102D01*
X432517Y76641D01*
X432021Y76310D01*
X412752Y57041D01*
X405512D01*
X404926Y56925D01*
X404430Y56593D01*
X396962Y49125D01*
X396630Y48629D01*
X396514Y48043D01*
Y41402D01*
X396014Y41268D01*
X395958Y41364D01*
X395222Y42100D01*
X394325Y42618D01*
Y65390D01*
X400633Y71699D01*
X416184D01*
X416769Y71815D01*
X417265Y72147D01*
X435271Y90153D01*
X460580D01*
X461166Y90270D01*
X461662Y90601D01*
X463263Y92203D01*
X469702D01*
X469893Y91741D01*
D02*
G37*
G36*
X400208D02*
X386962Y78495D01*
X386630Y77999D01*
X386514Y77413D01*
Y41402D01*
X386014Y41268D01*
X385958Y41364D01*
X385222Y42100D01*
X384325Y42618D01*
Y79012D01*
X397515Y92203D01*
X400017D01*
X400208Y91741D01*
D02*
G37*
%LPC*%
G36*
X444685Y88035D02*
X437205D01*
X436378Y87926D01*
X435608Y87607D01*
X434947Y87100D01*
X434440Y86439D01*
X434121Y85669D01*
X434012Y84842D01*
Y80512D01*
X434121Y79685D01*
X434440Y78916D01*
X434947Y78254D01*
X435608Y77747D01*
X436378Y77428D01*
X437205Y77319D01*
X444685D01*
X445511Y77428D01*
X446281Y77747D01*
X446943Y78254D01*
X447450Y78916D01*
X447769Y79685D01*
X447878Y80512D01*
Y84842D01*
X447769Y85669D01*
X447450Y86439D01*
X446943Y87100D01*
X446281Y87607D01*
X445511Y87926D01*
X444685Y88035D01*
D02*
G37*
%LPD*%
G36*
X90696Y114906D02*
X60502Y84712D01*
X57715D01*
X57562Y84865D01*
X56832Y85167D01*
X56043D01*
X55314Y84865D01*
X54756Y84307D01*
X54667Y84093D01*
X54167Y84193D01*
Y86821D01*
X82715Y115368D01*
X90505D01*
X90696Y114906D01*
D02*
G37*
G36*
X286018Y58027D02*
Y42012D01*
X285518Y41805D01*
X285222Y42100D01*
X284325Y42618D01*
Y59067D01*
X284787Y59259D01*
X286018Y58027D01*
D02*
G37*
G36*
X281266Y59951D02*
Y42618D01*
X280368Y42100D01*
X279721Y41453D01*
X279331Y41422D01*
X279113Y41464D01*
X279034Y41581D01*
X209709Y110906D01*
X209900Y111368D01*
X229849D01*
X281266Y59951D01*
D02*
G37*
G36*
X291266Y55608D02*
Y42618D01*
X290368Y42100D01*
X289632Y41364D01*
X289577Y41268D01*
X289077Y41402D01*
Y57144D01*
X289539Y57335D01*
X291266Y55608D01*
D02*
G37*
D16*
X472047Y91732D02*
X520079D01*
X542520Y114173D01*
X455543Y75228D02*
X472047Y91732D01*
X517323Y73228D02*
X535827Y91732D01*
X433102Y75228D02*
X455543D01*
X413386Y55512D02*
X433102Y75228D01*
X437087Y73228D02*
X517323D01*
X402795Y38937D02*
X437087Y73228D01*
X400000D02*
X416184D01*
X434638Y91683D01*
X392795Y66024D02*
X400000Y73228D01*
X315354Y93701D02*
Y170079D01*
X309842Y88189D02*
X315354Y93701D01*
X434638Y91683D02*
X460580D01*
X402313D02*
X422636D01*
X424636Y93683D01*
X388043Y77413D02*
X402313Y91683D01*
X514961Y231102D02*
X519238Y235380D01*
Y235483D01*
X416173Y93732D02*
X436221Y113779D01*
X396882Y93732D02*
X416173D01*
X382795Y79646D02*
X396882Y93732D01*
X436614Y231102D02*
X514961D01*
X462630Y93732D02*
X486252D01*
X507087Y114567D01*
X460580Y91683D02*
X462630Y93732D01*
X442138Y141350D02*
Y172483D01*
X436221Y135433D02*
X442138Y141350D01*
X329921Y135433D02*
X335838Y141350D01*
Y172783D01*
X365354Y135433D02*
X371338Y141417D01*
Y172583D01*
X400787Y136221D02*
X406338Y141771D01*
Y172483D01*
X424636Y93683D02*
X451163D01*
X471654Y114173D01*
X405512Y55512D02*
X413386D01*
X350508Y202083D02*
X384538D01*
X347638Y199213D02*
X350508Y202083D01*
X383154Y193898D02*
X391238Y201983D01*
X402438D01*
X456728Y204693D02*
X461138Y200283D01*
X472047Y206693D02*
X477165Y211811D01*
X408642Y191165D02*
X419685Y202209D01*
X287402Y206693D02*
X472047D01*
X276744Y217350D02*
X287402Y206693D01*
X279559Y204693D02*
X456728D01*
X266902Y217350D02*
X279559Y204693D01*
X298941Y209327D02*
X418504D01*
X316535Y211811D02*
X428346D01*
X293307Y235039D02*
X316535Y211811D01*
X250984Y193898D02*
X383154D01*
X443921Y189165D02*
X455438Y200683D01*
Y200783D01*
X238378Y189165D02*
X443921D01*
X297547Y34185D02*
X302795Y28937D01*
X230482Y112898D02*
X282795Y60584D01*
Y38937D02*
Y60584D01*
X297547Y34185D02*
Y54318D01*
X287547Y34185D02*
Y58661D01*
X232139Y116898D02*
X292795Y56241D01*
Y38937D02*
Y56241D01*
X232967Y118898D02*
X297547Y54318D01*
X287547Y34185D02*
X292795Y28937D01*
X231310Y114898D02*
X287547Y58661D01*
X92850Y114898D02*
X231310D01*
X82081Y116898D02*
X232139D01*
X81253Y118898D02*
X232967D01*
X56438Y83183D02*
X61136D01*
X95253Y112898D02*
X230482D01*
X52638Y87454D02*
X82081Y116898D01*
X49938Y39702D02*
Y87583D01*
X61136Y83183D02*
X92850Y114898D01*
X49938Y87583D02*
X81253Y118898D01*
X52638Y50683D02*
Y87454D01*
X212598Y232283D02*
X250984Y193898D01*
X265354Y199213D02*
X347638D01*
X247217Y217350D02*
X265354Y199213D01*
X261098Y196383D02*
X309838D01*
X237374Y220106D02*
Y235012D01*
X269055Y266693D01*
X237374Y220106D02*
X261098Y196383D01*
X218450Y73283D02*
X252795Y38937D01*
X206639Y73283D02*
X218450D01*
X183858Y96063D02*
X206639Y73283D01*
X248031Y33701D02*
Y40421D01*
X234122Y54331D02*
X248031Y40421D01*
Y33701D02*
X252795Y28937D01*
X126772Y54331D02*
X234122D01*
X34252Y24016D02*
X49938Y39702D01*
X31496Y85832D02*
X37008Y91343D01*
X60438Y78083D02*
X95253Y112898D01*
X302795Y38937D02*
Y59809D01*
X234838Y127767D02*
X302795Y59809D01*
X194551Y148362D02*
X202331Y140583D01*
X235795D02*
X238583Y137795D01*
X202331Y140583D02*
X235795D01*
X591339Y127559D02*
Y165354D01*
X555512Y91732D02*
X591339Y127559D01*
X535827Y91732D02*
X555512D01*
X584252Y172441D02*
X591339Y165354D01*
X542520Y114173D02*
Y136221D01*
X27016Y240701D02*
X27016Y117203D01*
X13087Y103274D02*
X27016Y117203D01*
X201181Y174409D02*
X209055Y166535D01*
X285039D01*
X292913Y174409D01*
X187402Y224410D02*
Y251535D01*
X212795Y276929D01*
X184252Y150000D02*
X192551Y158299D01*
X190551Y244706D02*
X222775Y276929D01*
X183424Y152000D02*
X190551Y159128D01*
X196551Y150693D02*
Y242220D01*
Y150693D02*
X203150Y144095D01*
X192551Y243877D02*
X204973Y256299D01*
X190551Y159128D02*
Y244706D01*
X192551Y158299D02*
Y243877D01*
X194551Y148362D02*
Y243049D01*
X196551Y242220D02*
X204724Y250394D01*
X194551Y243049D02*
X203896Y252394D01*
X292913Y174409D02*
X311024D01*
X315354Y170079D01*
X37008Y97153D02*
X106630Y166775D01*
X261811Y173228D02*
X269748Y181165D01*
X494187D01*
X271654Y173228D02*
X277591Y179165D01*
X251969Y173228D02*
X261906Y183165D01*
X285433Y177165D02*
X532283D01*
X281496Y173228D02*
X285433Y177165D01*
X277591Y179165D02*
X498850D01*
X261906Y183165D02*
X467024D01*
X494187Y181165D02*
X524439Y211417D01*
X532283Y177165D02*
X546758Y191640D01*
X498850Y179165D02*
X526378Y206693D01*
X467024Y183165D02*
X490551Y206693D01*
X241961Y249835D02*
X262819Y270693D01*
X241961Y247016D02*
X242126Y246850D01*
X241961Y247016D02*
Y249835D01*
X262819Y270693D02*
X303279D01*
X264362Y268693D02*
X304559D01*
X248031Y249606D02*
Y252362D01*
X264362Y268693D01*
X296488Y258693D02*
X321279D01*
X276744Y238949D02*
X296488Y258693D01*
X276744Y217350D02*
Y238949D01*
X289827Y260693D02*
X316559D01*
X266902Y237768D02*
X289827Y260693D01*
X266902Y217350D02*
Y237768D01*
X283165Y262693D02*
X315279D01*
X257059Y236587D02*
X283165Y262693D01*
X257059Y215776D02*
Y236587D01*
X276110Y264693D02*
X310559D01*
X247217Y217350D02*
Y235799D01*
X276110Y264693D01*
X269055Y266693D02*
X309279D01*
X41339Y52362D02*
Y95827D01*
X118110Y172598D01*
X31496Y42520D02*
X41339Y52362D01*
X31496Y64173D02*
X39008Y71685D01*
X37008Y91343D02*
Y97153D01*
X39008Y71685D02*
Y96324D01*
X108630Y165946D01*
X31496Y107480D02*
X44507D01*
X106630Y166775D02*
Y181118D01*
X104630Y167603D02*
Y189118D01*
X108630Y165946D02*
Y173118D01*
X44507Y107480D02*
X104630Y167603D01*
X117197Y110898D02*
X207555D01*
X103575Y97276D02*
X117197Y110898D01*
X277953Y33779D02*
Y40500D01*
X207555Y110898D02*
X277953Y40500D01*
X104630Y189118D02*
X118110Y202598D01*
X108630Y173118D02*
X118110Y182598D01*
X106630Y181118D02*
X118110Y192598D01*
X25156Y12961D02*
X154372D01*
X23499Y8961D02*
X156029D01*
X154372Y12961D02*
X189112Y47701D01*
X155200Y10961D02*
X189940Y45701D01*
X24327Y10961D02*
X155200D01*
X11087Y27030D02*
X25156Y12961D01*
X25984Y14961D02*
X153543D01*
X188284Y49701D01*
X9087Y26201D02*
X24327Y10961D01*
X13087Y27858D02*
X25984Y14961D01*
X7087Y25373D02*
X23499Y8961D01*
X156029D02*
X190769Y43701D01*
X277953Y33779D02*
X282795Y28937D01*
X188284Y49701D02*
X228752D01*
X190769Y43701D02*
X198031D01*
X189112Y47701D02*
X199688D01*
X189940Y45701D02*
X198860D01*
X199720Y47669D02*
X220783D01*
X228043Y40409D01*
X228752Y49701D02*
X238043Y40409D01*
X199688Y47701D02*
X199720Y47669D01*
X22047Y245669D02*
X27016Y240701D01*
X29528Y258661D02*
Y259449D01*
X22441Y266535D02*
X29528Y259449D01*
X29528D02*
X29528Y114173D01*
X24409Y109055D02*
X29528Y114173D01*
X24532Y135161D02*
Y200394D01*
X9087Y124441D02*
X22047Y137402D01*
Y221654D01*
X20472Y131102D02*
X24532Y135161D01*
X9087Y26201D02*
Y124441D01*
X7087Y148031D02*
X16535Y157480D01*
X7087Y25373D02*
Y148031D01*
X11087Y27030D02*
Y104787D01*
X16535Y110236D01*
X13087Y27858D02*
Y103274D01*
X228043Y33689D02*
Y40409D01*
X217717Y34016D02*
Y40736D01*
X198891Y45669D02*
X212783D01*
X217717Y40736D01*
X198031Y43701D02*
X212795Y28937D01*
X198860Y45701D02*
X198891Y45669D01*
X238043Y33689D02*
Y40409D01*
Y33689D02*
X242795Y28937D01*
X228043Y33689D02*
X232795Y28937D01*
X217717Y34016D02*
X222795Y28937D01*
X225431Y252394D02*
X247547Y274510D01*
X203896Y252394D02*
X225431D01*
X398043Y48043D02*
X405512Y55512D01*
X398043Y33689D02*
Y48043D01*
Y33689D02*
X402795Y28937D01*
X471654Y114173D02*
Y136221D01*
X548819Y142520D02*
Y172835D01*
X542520Y136221D02*
X548819Y142520D01*
X359055Y52677D02*
Y107874D01*
X365354Y114173D02*
Y135433D01*
X359055Y107874D02*
X365354Y114173D01*
X380315Y93307D02*
X400787Y113779D01*
X380315Y55046D02*
Y93307D01*
X400787Y113779D02*
Y136221D01*
X507087Y114567D02*
Y136221D01*
X392795Y38937D02*
Y66024D01*
X388043Y33689D02*
Y77413D01*
X382795Y38937D02*
Y79646D01*
X507087Y136221D02*
X513386Y142520D01*
Y172835D01*
X471654Y136221D02*
X477953Y142520D01*
Y172835D01*
X388043Y33689D02*
X392795Y28937D01*
X436221Y113779D02*
Y135433D01*
X378043Y52774D02*
X380315Y55046D01*
X359055Y52677D02*
X372795Y38937D01*
X367547Y34185D02*
Y41357D01*
X344882Y64022D02*
X367547Y41357D01*
X344882Y64022D02*
Y103150D01*
X378043Y33689D02*
Y52774D01*
Y33689D02*
X382795Y28937D01*
X329921Y118110D02*
X344882Y103150D01*
X329921Y118110D02*
Y135433D01*
X367547Y34185D02*
X372795Y28937D01*
X447193Y254331D02*
X451968Y249555D01*
X402795Y276929D02*
X425394Y254331D01*
X447193D01*
X456299Y256693D02*
X461811Y251181D01*
X402795Y286929D02*
X433032Y256693D01*
X456299D01*
X461811Y238189D02*
Y251181D01*
X230535Y191165D02*
X408642D01*
X254063Y185165D02*
X462299D01*
X212598Y173228D02*
X230535Y191165D01*
X232283Y173228D02*
X246220Y187165D01*
X222441Y173228D02*
X238378Y189165D01*
X462299Y185165D02*
X497606Y220472D01*
X242126Y173228D02*
X254063Y185165D01*
X456850Y187165D02*
X490158Y220472D01*
X246220Y187165D02*
X456850D01*
X300634Y202362D02*
X300787Y202209D01*
X270473Y202362D02*
X300634D01*
X257059Y215776D02*
X270473Y202362D01*
X288189Y220079D02*
X298941Y209327D01*
X330926Y216961D02*
X431071D01*
X323559Y221499D02*
X330097Y214961D01*
X325559Y222327D02*
X330926Y216961D01*
X430242Y214961D02*
X433392Y211811D01*
X483008Y218961D02*
X483071Y218898D01*
X431071Y216961D02*
X433465Y214567D01*
X327559Y223156D02*
X331754Y218961D01*
X483008D01*
X330097Y214961D02*
X430242D01*
X451968Y238189D02*
Y249555D01*
X433465Y214567D02*
X453150D01*
X332583Y220961D02*
X386387D01*
X329559Y223984D02*
X332583Y220961D01*
X386387D02*
X394895Y229468D01*
X433392Y211811D02*
X472441D01*
X394895Y229468D02*
X399764D01*
X375984Y223622D02*
X381496D01*
X401524Y243650D02*
Y253147D01*
X381496Y223622D02*
X401524Y243650D01*
X548819Y228740D02*
X555905Y235827D01*
X422047Y228740D02*
X548819D01*
X428740Y238976D02*
X436614Y231102D01*
X411524Y239264D02*
X422047Y228740D01*
X377559Y270079D02*
Y281693D01*
Y270079D02*
X381524Y266114D01*
Y246063D02*
Y266114D01*
X391732Y238976D02*
Y253150D01*
X411524Y239264D02*
Y250000D01*
X524439Y211417D02*
X552362D01*
X497606Y220472D02*
X525984D01*
X552362Y211417D02*
X561417Y220472D01*
X383524Y261358D02*
Y276201D01*
Y261358D02*
X391732Y253150D01*
X382795Y276929D02*
X383524Y276201D01*
X359323Y223863D02*
X381524Y246063D01*
X388043Y266628D02*
Y282177D01*
Y266628D02*
X401524Y253147D01*
X388043Y282177D02*
X392795Y286929D01*
Y268728D02*
Y276929D01*
Y268728D02*
X411524Y250000D01*
X377559Y281693D02*
X382795Y286929D01*
X341170Y223863D02*
X359323D01*
X332636Y239008D02*
X345307D01*
X323559Y221499D02*
Y235909D01*
X327559Y223156D02*
Y233931D01*
X325559Y222327D02*
Y235080D01*
X323559Y235909D02*
X331524Y243873D01*
X327559Y233931D02*
X332636Y239008D01*
X329559Y223984D02*
Y233102D01*
X325559Y235080D02*
X332211Y241732D01*
X331524Y243873D02*
Y249504D01*
X337795Y241732D02*
X341732Y245669D01*
X332211Y241732D02*
X337795D01*
X341732Y245669D02*
Y255866D01*
X345307Y239008D02*
X352020Y245721D01*
X331524Y249504D02*
X344500Y262480D01*
X352020Y245721D02*
Y253988D01*
X300000Y256693D02*
X322559D01*
X288189Y220079D02*
Y244882D01*
X300000Y256693D01*
X322559D02*
X342795Y276929D01*
X333465Y237008D02*
X354331D01*
X329559Y233102D02*
X333465Y237008D01*
X361811Y244488D02*
Y260630D01*
X354331Y237008D02*
X361811Y244488D01*
Y260630D02*
X372795Y271614D01*
X352020Y253988D02*
X367547Y269516D01*
X341732Y255866D02*
X362795Y276929D01*
X367547Y269516D02*
Y281681D01*
X372795Y271614D02*
Y276929D01*
X367547Y281681D02*
X372795Y286929D01*
X344500Y262480D02*
X345067D01*
X357547Y274961D01*
Y281681D01*
X362795Y286929D01*
X367717Y238976D02*
X376772Y248031D01*
X316559Y260693D02*
X332795Y276929D01*
X303279Y270693D02*
X307547Y274961D01*
X304559Y268693D02*
X312795Y276929D01*
X321279Y258693D02*
X338043Y275457D01*
X309279Y266693D02*
X317547Y274961D01*
X310559Y264693D02*
X322795Y276929D01*
X315279Y262693D02*
X327547Y274961D01*
X338043Y275457D02*
Y282177D01*
X342795Y286929D01*
X327547Y281681D02*
X332795Y286929D01*
X327547Y274961D02*
Y281681D01*
X317547Y274961D02*
Y281681D01*
X322795Y286929D01*
X226260Y250394D02*
X252795Y276929D01*
X247547Y274510D02*
Y281681D01*
X204724Y250394D02*
X226260D01*
X220866Y256299D02*
X237547Y272980D01*
X204973Y256299D02*
X220866D01*
X237547Y272980D02*
Y281681D01*
X307547Y274961D02*
Y281681D01*
X312795Y286929D01*
X546758Y192033D02*
X561417Y206693D01*
X546758Y191640D02*
Y192033D01*
X222775Y276929D02*
X222795D01*
X247547Y281681D02*
X252795Y286929D01*
X168898Y235039D02*
Y242913D01*
X179134Y253150D01*
X170473Y150000D02*
X184252D01*
X136252Y152000D02*
X183424D01*
X168110Y147638D02*
X170473Y150000D01*
X133071Y148819D02*
X136252Y152000D01*
X237547Y281681D02*
X242795Y286929D01*
X115354Y230315D02*
X132677Y247638D01*
X97244Y230315D02*
X115354D01*
D52*
X303150Y77165D02*
D03*
X268738Y121602D02*
D03*
X310236Y170472D02*
D03*
D56*
X306693Y49606D02*
X342126D01*
X270572Y132383D02*
X302756Y164567D01*
X131003Y132383D02*
X270572D01*
X124803Y138583D02*
X131003Y132383D01*
X581496Y150000D02*
X586614Y144882D01*
X581496Y125984D02*
X586614Y131102D01*
Y144882D01*
X201969Y205906D02*
Y238583D01*
X208268Y244882D01*
X85406Y181996D02*
X94803Y172598D01*
X85406Y181996D02*
Y201996D01*
X74803Y212598D02*
X85406Y201996D01*
X124803Y138583D02*
Y159291D01*
X138110Y172598D01*
X208268Y244882D02*
X230315D01*
X252362Y266929D01*
X59449Y227953D02*
Y243307D01*
Y227953D02*
X74803Y212598D01*
X155118Y218898D02*
X161417Y212598D01*
X124409Y218898D02*
X155118D01*
X118110Y212598D02*
X124409Y218898D01*
X111811D02*
X118110Y212598D01*
X81102Y218898D02*
X111811D01*
X74803Y212598D02*
X81102Y218898D01*
X172020Y181996D02*
X181417Y172598D01*
X172020Y181996D02*
Y201996D01*
X161417Y212598D02*
X172020Y201996D01*
X174961Y166142D02*
X181417Y172598D01*
X144567Y166142D02*
X174961D01*
X138110Y172598D02*
X144567Y166142D01*
X342126Y49606D02*
X352795Y38937D01*
X440945Y125984D02*
X446792Y120137D01*
X462164D01*
X405512Y125984D02*
X411205Y120291D01*
X426886D01*
X426928Y120334D01*
X340158Y120472D02*
X356299D01*
X356308Y120481D01*
X334646Y125984D02*
X340158Y120472D01*
X370079Y125984D02*
X375591Y120472D01*
X391732D01*
X476378Y125984D02*
X482071Y120291D01*
X511811Y125984D02*
X517855Y119940D01*
X532862D02*
X533059Y120137D01*
X517855Y119940D02*
X532862D01*
X497752Y120291D02*
X497794Y120334D01*
X482071Y120291D02*
X497752D01*
X547244Y125984D02*
X552895Y120334D01*
X553405D02*
X568660D01*
D57*
X268738Y111577D02*
X303150Y77165D01*
X268738Y111577D02*
Y121602D01*
X310236Y163181D02*
Y170472D01*
X268738Y121683D02*
X310236Y163181D01*
X262795Y38937D02*
X262874D01*
X582677Y209055D02*
Y224016D01*
X573228Y199606D02*
X582677Y209055D01*
X499213Y239764D02*
X566929D01*
X582677Y224016D01*
X487795Y251181D02*
X499213Y239764D01*
D58*
X326772Y248031D02*
D03*
X212795Y276929D02*
D03*
X402795Y38937D02*
D03*
X161417Y212598D02*
D03*
X118110D02*
D03*
X74803D02*
D03*
X212598Y173228D02*
D03*
D59*
X336772Y248031D02*
D03*
X346772D02*
D03*
X356772D02*
D03*
X366772D02*
D03*
X376772D02*
D03*
X386772D02*
D03*
X396772D02*
D03*
X406772D02*
D03*
X416772D02*
D03*
X426772D02*
D03*
X436772D02*
D03*
X446772D02*
D03*
X456772D02*
D03*
X466772D02*
D03*
X476772D02*
D03*
X402795Y286929D02*
D03*
Y276929D02*
D03*
X392795Y286929D02*
D03*
Y276929D02*
D03*
X382795Y286929D02*
D03*
Y276929D02*
D03*
X372795Y286929D02*
D03*
Y276929D02*
D03*
X362795Y286929D02*
D03*
Y276929D02*
D03*
X352795Y286929D02*
D03*
Y276929D02*
D03*
X342795Y286929D02*
D03*
Y276929D02*
D03*
X332795Y286929D02*
D03*
Y276929D02*
D03*
X322795Y286929D02*
D03*
Y276929D02*
D03*
X312795Y286929D02*
D03*
Y276929D02*
D03*
X302795Y286929D02*
D03*
Y276929D02*
D03*
X292795Y286929D02*
D03*
Y276929D02*
D03*
X282795Y286929D02*
D03*
Y276929D02*
D03*
X272795Y286929D02*
D03*
Y276929D02*
D03*
X262795Y286929D02*
D03*
Y276929D02*
D03*
X252795Y286929D02*
D03*
Y276929D02*
D03*
X242795Y286929D02*
D03*
Y276929D02*
D03*
X232795Y286929D02*
D03*
Y276929D02*
D03*
X222795Y286929D02*
D03*
Y276929D02*
D03*
X212795Y286929D02*
D03*
X402795Y28937D02*
D03*
X392795Y38937D02*
D03*
Y28937D02*
D03*
X382795Y38937D02*
D03*
Y28937D02*
D03*
X372795Y38937D02*
D03*
Y28937D02*
D03*
X362795Y38937D02*
D03*
Y28937D02*
D03*
X352795Y38937D02*
D03*
Y28937D02*
D03*
X342795Y38937D02*
D03*
Y28937D02*
D03*
X332795Y38937D02*
D03*
Y28937D02*
D03*
X322795Y38937D02*
D03*
Y28937D02*
D03*
X312795Y38937D02*
D03*
Y28937D02*
D03*
X302795Y38937D02*
D03*
Y28937D02*
D03*
X292795Y38937D02*
D03*
Y28937D02*
D03*
X282795Y38937D02*
D03*
Y28937D02*
D03*
X272795Y38937D02*
D03*
Y28937D02*
D03*
X262795Y38937D02*
D03*
Y28937D02*
D03*
X252795Y38937D02*
D03*
Y28937D02*
D03*
X242795Y38937D02*
D03*
Y28937D02*
D03*
X232795Y38937D02*
D03*
Y28937D02*
D03*
X222795Y38937D02*
D03*
Y28937D02*
D03*
X212795Y38937D02*
D03*
Y28937D02*
D03*
X181417Y212598D02*
D03*
Y202598D02*
D03*
Y192598D02*
D03*
Y182598D02*
D03*
Y172598D02*
D03*
X161417D02*
D03*
Y182598D02*
D03*
Y192598D02*
D03*
Y202598D02*
D03*
X138110Y212598D02*
D03*
Y202598D02*
D03*
Y192598D02*
D03*
Y182598D02*
D03*
Y172598D02*
D03*
X118110D02*
D03*
Y182598D02*
D03*
Y192598D02*
D03*
Y202598D02*
D03*
X74803D02*
D03*
Y192598D02*
D03*
Y182598D02*
D03*
Y172598D02*
D03*
X94803D02*
D03*
Y182598D02*
D03*
Y192598D02*
D03*
Y202598D02*
D03*
Y212598D02*
D03*
X281496Y232283D02*
D03*
X271654D02*
D03*
X261811D02*
D03*
X251969D02*
D03*
X242126D02*
D03*
X232283D02*
D03*
X222441D02*
D03*
X212598D02*
D03*
X281496Y173228D02*
D03*
X271654D02*
D03*
X261811D02*
D03*
X251969D02*
D03*
X242126D02*
D03*
X232283D02*
D03*
X222441D02*
D03*
D60*
X405512Y64173D02*
D03*
Y82677D02*
D03*
Y101181D02*
D03*
X334646D02*
D03*
Y82677D02*
D03*
Y64173D02*
D03*
X370079D02*
D03*
Y82677D02*
D03*
Y101181D02*
D03*
X440945D02*
D03*
Y82677D02*
D03*
Y64173D02*
D03*
X476378Y101181D02*
D03*
Y82677D02*
D03*
Y64173D02*
D03*
X511811Y101181D02*
D03*
Y82677D02*
D03*
Y64173D02*
D03*
X547244Y101181D02*
D03*
Y82677D02*
D03*
Y64173D02*
D03*
X582677D02*
D03*
Y82677D02*
D03*
Y101181D02*
D03*
D61*
X590866Y279528D02*
D03*
X580866D02*
D03*
D62*
X570866D02*
D03*
D63*
X93583Y34528D02*
D03*
Y24528D02*
D03*
X83583Y34528D02*
D03*
D64*
Y24528D02*
D03*
D65*
X529291Y35433D02*
D03*
X133858Y280433D02*
D03*
Y35433D02*
D03*
X529291Y280433D02*
D03*
D66*
X259838Y116883D02*
D03*
X269838Y96583D02*
D03*
X259638Y50183D02*
D03*
X96138Y97483D02*
D03*
X306138Y83383D02*
D03*
X298425Y91339D02*
D03*
X309842Y88189D02*
D03*
X519238Y235483D02*
D03*
X442138Y172483D02*
D03*
X335838Y172783D02*
D03*
X371338Y172583D02*
D03*
X406338Y172483D02*
D03*
X167338Y226283D02*
D03*
X129738Y226483D02*
D03*
X384538Y202083D02*
D03*
X402438Y201983D02*
D03*
X419685Y202209D02*
D03*
X418504Y209327D02*
D03*
X310938Y223983D02*
D03*
X317238Y243183D02*
D03*
X461138Y200283D02*
D03*
X455438Y200783D02*
D03*
X193138Y96283D02*
D03*
X309838Y196383D02*
D03*
X52638Y50683D02*
D03*
X56438Y83183D02*
D03*
X31496Y85827D02*
D03*
X60438Y78083D02*
D03*
X234838Y127767D02*
D03*
X203150Y144095D02*
D03*
X238583Y137795D02*
D03*
X201181Y174409D02*
D03*
X187402Y224410D02*
D03*
X242126Y246850D02*
D03*
X248031Y249606D02*
D03*
X103575Y97276D02*
D03*
X34252Y24016D02*
D03*
X31496Y64173D02*
D03*
Y107480D02*
D03*
Y42520D02*
D03*
X126772Y54331D02*
D03*
X183858Y96063D02*
D03*
X22047Y245669D02*
D03*
X22441Y266535D02*
D03*
X24532Y200394D02*
D03*
X20472Y131102D02*
D03*
X22047Y221654D02*
D03*
X24409Y109055D02*
D03*
X16535Y157480D02*
D03*
Y110236D02*
D03*
X584252Y172441D02*
D03*
X548819Y172835D02*
D03*
X513386D02*
D03*
X477953D02*
D03*
X573228Y199606D02*
D03*
X487795Y251181D02*
D03*
X293307Y235039D02*
D03*
X300787Y202209D02*
D03*
X483071Y218898D02*
D03*
X451968Y238189D02*
D03*
X453150Y214567D02*
D03*
X428346Y211811D02*
D03*
X399764Y229468D02*
D03*
X555905Y235827D02*
D03*
X461811Y238189D02*
D03*
X428740Y238976D02*
D03*
X391732D02*
D03*
X561417Y220472D02*
D03*
X525984D02*
D03*
X490158D02*
D03*
X375984Y223622D02*
D03*
X341170Y223863D02*
D03*
X472441Y211811D02*
D03*
X477165D02*
D03*
X367717Y238976D02*
D03*
X490551Y206693D02*
D03*
X561417D02*
D03*
X526378D02*
D03*
X179134Y253150D02*
D03*
X168110Y147638D02*
D03*
X133071Y148819D02*
D03*
X168898Y235039D02*
D03*
X97244Y230315D02*
D03*
X132677Y247638D02*
D03*
D67*
X306693Y49606D02*
D03*
X302756Y164567D02*
D03*
X581496Y150000D02*
D03*
Y125984D02*
D03*
X201969Y205906D02*
D03*
X252362Y266929D02*
D03*
X59449Y243307D02*
D03*
X440945Y125984D02*
D03*
X356308Y120481D02*
D03*
X334646Y125984D02*
D03*
X547244D02*
D03*
X568660Y120334D02*
D03*
X497794Y120334D02*
D03*
X511811Y125984D02*
D03*
X533059Y120137D02*
D03*
X391732Y120472D02*
D03*
X405512Y125984D02*
D03*
X426928Y120334D02*
D03*
X476378Y125984D02*
D03*
X462164Y120137D02*
D03*
X370079Y125984D02*
D03*
M02*
