G04*
G04 #@! TF.GenerationSoftware,Altium Limited,Altium Designer,22.8.2 (66)*
G04*
G04 Layer_Color=32768*
%FSLAX25Y25*%
%MOIN*%
G70*
G04*
G04 #@! TF.SameCoordinates,212F37CB-D32F-4CA9-9F40-9CB884434D69*
G04*
G04*
G04 #@! TF.FilePolarity,Positive*
G04*
G01*
G75*
%ADD68C,0.00394*%
%ADD71C,0.00197*%
D68*
X287402Y94685D02*
Y98228D01*
X285630Y96457D02*
X289173D01*
X281299Y93602D02*
X293504D01*
X281299Y99311D02*
X293504D01*
Y93602D02*
Y99311D01*
X281299Y93602D02*
Y99311D01*
X206496Y134941D02*
Y140650D01*
X218701Y134941D02*
Y140650D01*
X206496D02*
X218701D01*
X206496Y134941D02*
X218701D01*
X210827Y137795D02*
X214370D01*
X212598Y136024D02*
Y139567D01*
X586614Y133858D02*
Y137795D01*
X584646Y135827D02*
X588583D01*
X579232Y128937D02*
X593996D01*
X579232Y142717D02*
X593996D01*
Y128937D02*
Y142717D01*
X579232Y128937D02*
Y142717D01*
X79724Y112697D02*
X93504D01*
X79724Y127461D02*
X93504D01*
X79724Y112697D02*
Y127461D01*
X93504Y112697D02*
Y127461D01*
X86614Y118110D02*
Y122047D01*
X84646Y120079D02*
X88583D01*
X34449Y26083D02*
X48228D01*
X34449Y40846D02*
X48228D01*
X34449Y26083D02*
Y40846D01*
X48228Y26083D02*
Y40846D01*
X41339Y31496D02*
Y35433D01*
X39370Y33465D02*
X43307D01*
X281299Y101476D02*
Y107185D01*
X293504Y101476D02*
Y107185D01*
X281299D02*
X293504D01*
X281299Y101476D02*
X293504D01*
X285630Y104331D02*
X289173D01*
X287402Y102559D02*
Y106102D01*
X316732Y136909D02*
Y142618D01*
X328937Y136909D02*
Y142618D01*
X316732D02*
X328937D01*
X316732Y136909D02*
X328937D01*
X321063Y139764D02*
X324606D01*
X322835Y137992D02*
Y141535D01*
X474409Y112205D02*
Y116142D01*
X472441Y114173D02*
X476378D01*
X467224Y110630D02*
X481595D01*
X467224Y117717D02*
X481595D01*
Y110630D02*
Y117717D01*
X467224Y110630D02*
Y117717D01*
X438976Y112205D02*
Y116142D01*
X437008Y114173D02*
X440945D01*
X431791Y110630D02*
X446161D01*
X431791Y117717D02*
X446161D01*
Y110630D02*
Y117717D01*
X431791Y110630D02*
Y117717D01*
X582677Y112205D02*
Y116142D01*
X580709Y114173D02*
X584646D01*
X575492Y110630D02*
X589862D01*
X575492Y117717D02*
X589862D01*
Y110630D02*
Y117717D01*
X575492Y110630D02*
Y117717D01*
X470669Y123130D02*
Y128839D01*
X458465Y123130D02*
Y128839D01*
Y123130D02*
X470669D01*
X458465Y128839D02*
X470669D01*
X462795Y125984D02*
X466339D01*
X464567Y124213D02*
Y127756D01*
X458465Y136909D02*
Y142618D01*
X470669Y136909D02*
Y142618D01*
X458465D02*
X470669D01*
X458465Y136909D02*
X470669D01*
X462795Y139764D02*
X466339D01*
X464567Y137992D02*
Y141535D01*
X472933Y128937D02*
Y142717D01*
X487697Y128937D02*
Y142717D01*
X472933D02*
X487697D01*
X472933Y128937D02*
X487697D01*
X478346Y135827D02*
X482283D01*
X480315Y133858D02*
Y137795D01*
X506102Y123130D02*
Y128839D01*
X493898Y123130D02*
Y128839D01*
Y123130D02*
X506102D01*
X493898Y128839D02*
X506102D01*
X498228Y125984D02*
X501772D01*
X500000Y124213D02*
Y127756D01*
X493898Y136909D02*
Y142618D01*
X506102Y136909D02*
Y142618D01*
X493898D02*
X506102D01*
X493898Y136909D02*
X506102D01*
X498228Y139764D02*
X501772D01*
X500000Y137992D02*
Y141535D01*
X576968Y123130D02*
Y128839D01*
X564764Y123130D02*
Y128839D01*
Y123130D02*
X576968D01*
X564764Y128839D02*
X576968D01*
X569095Y125984D02*
X572638D01*
X570866Y124213D02*
Y127756D01*
X564764Y136909D02*
Y142618D01*
X576968Y136909D02*
Y142618D01*
X564764D02*
X576968D01*
X564764Y136909D02*
X576968D01*
X569095Y139764D02*
X572638D01*
X570866Y137992D02*
Y141535D01*
X541536Y123130D02*
Y128839D01*
X529331Y123130D02*
Y128839D01*
Y123130D02*
X541536D01*
X529331Y128839D02*
X541536D01*
X533661Y125984D02*
X537205D01*
X535433Y124213D02*
Y127756D01*
X545276Y112205D02*
Y116142D01*
X543307Y114173D02*
X547244D01*
X538091Y110630D02*
X552461D01*
X538091Y117717D02*
X552461D01*
Y110630D02*
Y117717D01*
X538091Y110630D02*
Y117717D01*
X509842Y112205D02*
Y116142D01*
X507874Y114173D02*
X511811D01*
X502658Y110630D02*
X517028D01*
X502658Y117717D02*
X517028D01*
Y110630D02*
Y117717D01*
X502658Y110630D02*
Y117717D01*
X508366Y128937D02*
Y142717D01*
X523130Y128937D02*
Y142717D01*
X508366D02*
X523130D01*
X508366Y128937D02*
X523130D01*
X513779Y135827D02*
X517717D01*
X515748Y133858D02*
Y137795D01*
X529331Y136909D02*
Y142618D01*
X541536Y136909D02*
Y142618D01*
X529331D02*
X541536D01*
X529331Y136909D02*
X541536D01*
X533661Y139764D02*
X537205D01*
X535433Y137992D02*
Y141535D01*
X543799Y128937D02*
Y142717D01*
X558563Y128937D02*
Y142717D01*
X543799D02*
X558563D01*
X543799Y128937D02*
X558563D01*
X549213Y135827D02*
X553150D01*
X551181Y133858D02*
Y137795D01*
X437500Y128937D02*
Y142717D01*
X452264Y128937D02*
Y142717D01*
X437500D02*
X452264D01*
X437500Y128937D02*
X452264D01*
X442913Y135827D02*
X446850D01*
X444882Y133858D02*
Y137795D01*
X435236Y123130D02*
Y128839D01*
X423032Y123130D02*
Y128839D01*
Y123130D02*
X435236D01*
X423032Y128839D02*
X435236D01*
X427362Y125984D02*
X430905D01*
X429134Y124213D02*
Y127756D01*
X423032Y136909D02*
Y142618D01*
X435236Y136909D02*
Y142618D01*
X423032D02*
X435236D01*
X423032Y136909D02*
X435236D01*
X427362Y139764D02*
X430905D01*
X429134Y137992D02*
Y141535D01*
X402067Y128937D02*
Y142717D01*
X416831Y128937D02*
Y142717D01*
X402067D02*
X416831D01*
X402067Y128937D02*
X416831D01*
X407480Y135827D02*
X411417D01*
X409449Y133858D02*
Y137795D01*
X328937Y123130D02*
Y128839D01*
X316732Y123130D02*
Y128839D01*
Y123130D02*
X328937D01*
X316732Y128839D02*
X328937D01*
X321063Y125984D02*
X324606D01*
X322835Y124213D02*
Y127756D01*
X399803Y123130D02*
Y128839D01*
X387598Y123130D02*
Y128839D01*
Y123130D02*
X399803D01*
X387598Y128839D02*
X399803D01*
X391929Y125984D02*
X395473D01*
X393701Y124213D02*
Y127756D01*
X364370Y123130D02*
Y128839D01*
X352165Y123130D02*
Y128839D01*
Y123130D02*
X364370D01*
X352165Y128839D02*
X364370D01*
X356496Y125984D02*
X360039D01*
X358268Y124213D02*
Y127756D01*
X332677Y112205D02*
Y116142D01*
X330709Y114173D02*
X334646D01*
X325492Y110630D02*
X339862D01*
X325492Y117717D02*
X339862D01*
Y110630D02*
Y117717D01*
X325492Y110630D02*
Y117717D01*
X403543Y112205D02*
Y116142D01*
X401575Y114173D02*
X405512D01*
X396358Y110630D02*
X410728D01*
X396358Y117717D02*
X410728D01*
Y110630D02*
Y117717D01*
X396358Y110630D02*
Y117717D01*
X352165Y136909D02*
Y142618D01*
X364370Y136909D02*
Y142618D01*
X352165D02*
X364370D01*
X352165Y136909D02*
X364370D01*
X356496Y139764D02*
X360039D01*
X358268Y137992D02*
Y141535D01*
X331201Y128937D02*
Y142717D01*
X345965Y128937D02*
Y142717D01*
X331201D02*
X345965D01*
X331201Y128937D02*
X345965D01*
X336614Y135827D02*
X340551D01*
X338583Y133858D02*
Y137795D01*
X368110Y112205D02*
Y116142D01*
X366142Y114173D02*
X370079D01*
X360925Y110630D02*
X375295D01*
X360925Y117717D02*
X375295D01*
Y110630D02*
Y117717D01*
X360925Y110630D02*
Y117717D01*
X366634Y128937D02*
Y142717D01*
X381398Y128937D02*
Y142717D01*
X366634D02*
X381398D01*
X366634Y128937D02*
X381398D01*
X372047Y135827D02*
X375984D01*
X374016Y133858D02*
Y137795D01*
X387598Y136909D02*
Y142618D01*
X399803Y136909D02*
Y142618D01*
X387598D02*
X399803D01*
X387598Y136909D02*
X399803D01*
X391929Y139764D02*
X395472D01*
X393701Y137992D02*
Y141535D01*
X500000Y246260D02*
Y249803D01*
X498228Y248031D02*
X501772D01*
X493898Y250886D02*
X506102D01*
X493898Y245177D02*
X506102D01*
X493898D02*
Y250886D01*
X506102Y245177D02*
Y250886D01*
X364370Y203839D02*
Y209547D01*
X352165Y203839D02*
Y209547D01*
Y203839D02*
X364370D01*
X352165Y209547D02*
X364370D01*
X356496Y206693D02*
X360039D01*
X358268Y204921D02*
Y208465D01*
X550295Y163583D02*
X556004D01*
X550295Y151378D02*
X556004D01*
Y163583D01*
X550295Y151378D02*
Y163583D01*
X553150Y155709D02*
Y159252D01*
X551378Y157480D02*
X554921D01*
X303150Y98425D02*
Y102362D01*
X301181Y100394D02*
X305118D01*
X295768Y93504D02*
X310531D01*
X295768Y107283D02*
X310531D01*
Y93504D02*
Y107283D01*
X295768Y93504D02*
Y107283D01*
X183661Y265945D02*
Y269488D01*
X181890Y267717D02*
X185433D01*
X177559Y270571D02*
X189764D01*
X177559Y264862D02*
X189764D01*
X177559D02*
Y270571D01*
X189764Y264862D02*
Y270571D01*
X165354Y265748D02*
Y269685D01*
X163386Y267717D02*
X167323D01*
X156693Y263189D02*
X174016D01*
X156693Y272244D02*
X174016D01*
Y263189D02*
Y272244D01*
X156693Y263189D02*
Y272244D01*
X165354Y279528D02*
Y283465D01*
X163386Y281496D02*
X167323D01*
X157973Y274606D02*
X172736D01*
X157973Y288386D02*
X172736D01*
Y274606D02*
Y288386D01*
X157973Y274606D02*
Y288386D01*
X39370Y167323D02*
X43307D01*
X41339Y165354D02*
Y169291D01*
X48228Y159941D02*
Y174705D01*
X34449Y159941D02*
Y174705D01*
X48228D01*
X34449Y159941D02*
X48228D01*
X39370Y188976D02*
X43307D01*
X41339Y187008D02*
Y190945D01*
X48228Y181595D02*
Y196358D01*
X34449Y181595D02*
Y196358D01*
X48228D01*
X34449Y181595D02*
X48228D01*
X39370Y210630D02*
X43307D01*
X41339Y208661D02*
Y212598D01*
X48228Y203248D02*
Y218012D01*
X34449Y203248D02*
Y218012D01*
X48228D01*
X34449Y203248D02*
X48228D01*
X25591Y191142D02*
Y194685D01*
X23819Y192913D02*
X27362D01*
X19488Y195768D02*
X31693D01*
X19488Y190059D02*
X31693D01*
X19488D02*
Y195768D01*
X31693Y190059D02*
Y195768D01*
X25591Y183268D02*
Y186811D01*
X23819Y185039D02*
X27362D01*
X19488Y182185D02*
X31693D01*
X19488Y187894D02*
X31693D01*
Y182185D02*
Y187894D01*
X19488Y182185D02*
Y187894D01*
X25591Y212795D02*
Y216339D01*
X23819Y214567D02*
X27362D01*
X19488Y217421D02*
X31693D01*
X19488Y211713D02*
X31693D01*
X19488D02*
Y217421D01*
X31693Y211713D02*
Y217421D01*
X25591Y204921D02*
Y208465D01*
X23819Y206693D02*
X27362D01*
X19488Y203839D02*
X31693D01*
X19488Y209547D02*
X31693D01*
Y203839D02*
Y209547D01*
X19488Y203839D02*
Y209547D01*
X25591Y169488D02*
Y173031D01*
X23819Y171260D02*
X27362D01*
X19488Y174114D02*
X31693D01*
X19488Y168405D02*
X31693D01*
X19488D02*
Y174114D01*
X31693Y168405D02*
Y174114D01*
X25591Y161614D02*
Y165157D01*
X23819Y163386D02*
X27362D01*
X19488Y160531D02*
X31693D01*
X19488Y166240D02*
X31693D01*
Y160531D02*
Y166240D01*
X19488Y160531D02*
Y166240D01*
X84646Y236221D02*
X88583D01*
X86614Y234252D02*
Y238189D01*
X93504Y228839D02*
Y243602D01*
X79724Y228839D02*
Y243602D01*
X93504D01*
X79724Y228839D02*
X93504D01*
X106299Y230512D02*
Y234055D01*
X104528Y232283D02*
X108071D01*
X100197Y229429D02*
X112402D01*
X100197Y235138D02*
X112402D01*
Y229429D02*
Y235138D01*
X100197Y229429D02*
Y235138D01*
X106299Y238386D02*
Y241929D01*
X104528Y240158D02*
X108071D01*
X100197Y243012D02*
X112402D01*
X100197Y237303D02*
X112402D01*
X100197D02*
Y243012D01*
X112402Y237303D02*
Y243012D01*
X120079Y236221D02*
X124016D01*
X122047Y234252D02*
Y238189D01*
X128937Y228839D02*
Y243602D01*
X115157Y228839D02*
Y243602D01*
X128937D01*
X115157Y228839D02*
X128937D01*
X70866Y238386D02*
Y241929D01*
X69095Y240158D02*
X72638D01*
X64764Y243012D02*
X76968D01*
X64764Y237303D02*
X76968D01*
X64764D02*
Y243012D01*
X76968Y237303D02*
Y243012D01*
X70866Y230512D02*
Y234055D01*
X69095Y232283D02*
X72638D01*
X64764Y229429D02*
X76968D01*
X64764Y235138D02*
X76968D01*
Y229429D02*
Y235138D01*
X64764Y229429D02*
Y235138D01*
X141732Y230512D02*
Y234055D01*
X139961Y232283D02*
X143504D01*
X135630Y229429D02*
X147835D01*
X135630Y235138D02*
X147835D01*
Y229429D02*
Y235138D01*
X135630Y229429D02*
Y235138D01*
X141732Y238386D02*
Y241929D01*
X139961Y240158D02*
X143504D01*
X135630Y243012D02*
X147835D01*
X135630Y237303D02*
X147835D01*
X135630D02*
Y243012D01*
X147835Y237303D02*
Y243012D01*
X155512Y236221D02*
X159449D01*
X157480Y234252D02*
Y238189D01*
X164370Y228839D02*
Y243602D01*
X150591Y228839D02*
Y243602D01*
X164370D01*
X150591Y228839D02*
X164370D01*
X190945Y236221D02*
X194882D01*
X192913Y234252D02*
Y238189D01*
X199803Y228839D02*
Y243602D01*
X186024Y228839D02*
Y243602D01*
X199803D01*
X186024Y228839D02*
X199803D01*
X177165Y238386D02*
Y241929D01*
X175394Y240158D02*
X178937D01*
X171063Y243012D02*
X183268D01*
X171063Y237303D02*
X183268D01*
X171063D02*
Y243012D01*
X183268Y237303D02*
Y243012D01*
X177165Y230512D02*
Y234055D01*
X175394Y232283D02*
X178937D01*
X171063Y229429D02*
X183268D01*
X171063Y235138D02*
X183268D01*
Y229429D02*
Y235138D01*
X171063Y229429D02*
Y235138D01*
X39370Y234252D02*
X43307D01*
X41339Y232283D02*
Y236221D01*
X48228Y226870D02*
Y241634D01*
X34449Y226870D02*
Y241634D01*
X48228D01*
X34449Y226870D02*
X48228D01*
X19488Y249114D02*
Y254823D01*
X31693Y249114D02*
Y254823D01*
X19488D02*
X31693D01*
X19488Y249114D02*
X31693D01*
X23819Y251969D02*
X27362D01*
X25591Y250197D02*
Y253740D01*
Y279724D02*
Y283268D01*
X23819Y281496D02*
X27362D01*
X19488Y284350D02*
X31693D01*
X19488Y278642D02*
X31693D01*
X19488D02*
Y284350D01*
X31693Y278642D02*
Y284350D01*
X39370Y277559D02*
X43307D01*
X41339Y275590D02*
Y279528D01*
X48228Y270177D02*
Y284941D01*
X34449Y270177D02*
Y284941D01*
X48228D01*
X34449Y270177D02*
X48228D01*
X19488Y270768D02*
Y276476D01*
X31693Y270768D02*
Y276476D01*
X19488D02*
X31693D01*
X19488Y270768D02*
X31693D01*
X23819Y273622D02*
X27362D01*
X25591Y271850D02*
Y275394D01*
X31693Y256988D02*
Y262697D01*
X19488Y256988D02*
Y262697D01*
Y256988D02*
X31693D01*
X19488Y262697D02*
X31693D01*
X23819Y259842D02*
X27362D01*
X25591Y258071D02*
Y261614D01*
Y228543D02*
Y232087D01*
X23819Y230315D02*
X27362D01*
X19488Y227461D02*
X31693D01*
X19488Y233169D02*
X31693D01*
Y227461D02*
Y233169D01*
X19488Y227461D02*
Y233169D01*
X25591Y236417D02*
Y239961D01*
X23819Y238189D02*
X27362D01*
X19488Y241043D02*
X31693D01*
X19488Y235335D02*
X31693D01*
X19488D02*
Y241043D01*
X31693Y235335D02*
Y241043D01*
X39370Y255906D02*
X43307D01*
X41339Y253937D02*
Y257874D01*
X48228Y248524D02*
Y263287D01*
X34449Y248524D02*
Y263287D01*
X48228D01*
X34449Y248524D02*
X48228D01*
X25591Y143898D02*
Y147441D01*
X23819Y145669D02*
X27362D01*
X19488Y148524D02*
X31693D01*
X19488Y142815D02*
X31693D01*
X19488D02*
Y148524D01*
X31693Y142815D02*
Y148524D01*
X25591Y136024D02*
Y139567D01*
X23819Y137795D02*
X27362D01*
X19488Y134941D02*
X31693D01*
X19488Y140650D02*
X31693D01*
Y134941D02*
Y140650D01*
X19488Y134941D02*
Y140650D01*
X141732Y136024D02*
Y139567D01*
X139961Y137795D02*
X143504D01*
X135630Y134941D02*
X147835D01*
X135630Y140650D02*
X147835D01*
Y134941D02*
Y140650D01*
X135630Y134941D02*
Y140650D01*
X155512Y141732D02*
X159449D01*
X157480Y139764D02*
Y143701D01*
X164370Y134350D02*
Y149114D01*
X150591Y134350D02*
Y149114D01*
X164370D01*
X150591Y134350D02*
X164370D01*
X141732Y143898D02*
Y147441D01*
X139961Y145669D02*
X143504D01*
X135630Y148524D02*
X147835D01*
X135630Y142815D02*
X147835D01*
X135630D02*
Y148524D01*
X147835Y142815D02*
Y148524D01*
X177165Y143898D02*
Y147441D01*
X175394Y145669D02*
X178937D01*
X171063Y148524D02*
X183268D01*
X171063Y142815D02*
X183268D01*
X171063D02*
Y148524D01*
X183268Y142815D02*
Y148524D01*
X177165Y136024D02*
Y139567D01*
X175394Y137795D02*
X178937D01*
X171063Y134941D02*
X183268D01*
X171063Y140650D02*
X183268D01*
Y134941D02*
Y140650D01*
X171063Y134941D02*
Y140650D01*
X212598Y143898D02*
Y147441D01*
X210827Y145669D02*
X214370D01*
X206496Y148524D02*
X218701D01*
X206496Y142815D02*
X218701D01*
X206496D02*
Y148524D01*
X218701Y142815D02*
Y148524D01*
X226378Y141732D02*
X230315D01*
X228346Y139764D02*
Y143701D01*
X235236Y134350D02*
Y149114D01*
X221457Y134350D02*
Y149114D01*
X235236D01*
X221457Y134350D02*
X235236D01*
X190945Y141732D02*
X194882D01*
X192913Y139764D02*
Y143701D01*
X199803Y134350D02*
Y149114D01*
X186024Y134350D02*
Y149114D01*
X199803D01*
X186024Y134350D02*
X199803D01*
X248031Y143898D02*
Y147441D01*
X246260Y145669D02*
X249803D01*
X241929Y148524D02*
X254134D01*
X241929Y142815D02*
X254134D01*
X241929D02*
Y148524D01*
X254134Y142815D02*
Y148524D01*
X261811Y141732D02*
X265748D01*
X263779Y139764D02*
Y143701D01*
X270669Y134350D02*
Y149114D01*
X256890Y134350D02*
Y149114D01*
X270669D01*
X256890Y134350D02*
X270669D01*
X248031Y136024D02*
Y139567D01*
X246260Y137795D02*
X249803D01*
X241929Y134941D02*
X254134D01*
X241929Y140650D02*
X254134D01*
Y134941D02*
Y140650D01*
X241929Y134941D02*
Y140650D01*
X106299Y143898D02*
Y147441D01*
X104528Y145669D02*
X108071D01*
X100197Y148524D02*
X112402D01*
X100197Y142815D02*
X112402D01*
X100197D02*
Y148524D01*
X112402Y142815D02*
Y148524D01*
X120079Y141732D02*
X124016D01*
X122047Y139764D02*
Y143701D01*
X128937Y134350D02*
Y149114D01*
X115157Y134350D02*
Y149114D01*
X128937D01*
X115157Y134350D02*
X128937D01*
X106299Y136024D02*
Y139567D01*
X104528Y137795D02*
X108071D01*
X100197Y134941D02*
X112402D01*
X100197Y140650D02*
X112402D01*
Y134941D02*
Y140650D01*
X100197Y134941D02*
Y140650D01*
X39370Y141732D02*
X43307D01*
X41339Y139764D02*
Y143701D01*
X48228Y134350D02*
Y149114D01*
X34449Y134350D02*
Y149114D01*
X48228D01*
X34449Y134350D02*
X48228D01*
X70866Y136024D02*
Y139567D01*
X69095Y137795D02*
X72638D01*
X64764Y134941D02*
X76968D01*
X64764Y140650D02*
X76968D01*
Y134941D02*
Y140650D01*
X64764Y134941D02*
Y140650D01*
X70866Y143898D02*
Y147441D01*
X69095Y145669D02*
X72638D01*
X64764Y148524D02*
X76968D01*
X64764Y142815D02*
X76968D01*
X64764D02*
Y148524D01*
X76968Y142815D02*
Y148524D01*
X84646Y141732D02*
X88583D01*
X86614Y139764D02*
Y143701D01*
X93504Y134350D02*
Y149114D01*
X79724Y134350D02*
Y149114D01*
X93504D01*
X79724Y134350D02*
X93504D01*
X25591Y27756D02*
Y31299D01*
X23819Y29528D02*
X27362D01*
X19488Y26673D02*
X31693D01*
X19488Y32382D02*
X31693D01*
Y26673D02*
Y32382D01*
X19488Y26673D02*
Y32382D01*
X25591Y35630D02*
Y39173D01*
X23819Y37402D02*
X27362D01*
X19488Y40256D02*
X31693D01*
X19488Y34547D02*
X31693D01*
X19488D02*
Y40256D01*
X31693Y34547D02*
Y40256D01*
X25591Y49409D02*
Y52953D01*
X23819Y51181D02*
X27362D01*
X19488Y48327D02*
X31693D01*
X19488Y54036D02*
X31693D01*
Y48327D02*
Y54036D01*
X19488Y48327D02*
Y54036D01*
X25591Y57284D02*
Y60827D01*
X23819Y59055D02*
X27362D01*
X19488Y61910D02*
X31693D01*
X19488Y56201D02*
X31693D01*
X19488D02*
Y61910D01*
X31693Y56201D02*
Y61910D01*
X25591Y71063D02*
Y74606D01*
X23819Y72835D02*
X27362D01*
X19488Y69980D02*
X31693D01*
X19488Y75689D02*
X31693D01*
Y69980D02*
Y75689D01*
X19488Y69980D02*
Y75689D01*
X25591Y78937D02*
Y82480D01*
X23819Y80709D02*
X27362D01*
X19488Y83563D02*
X31693D01*
X19488Y77854D02*
X31693D01*
X19488D02*
Y83563D01*
X31693Y77854D02*
Y83563D01*
X25591Y92716D02*
Y96260D01*
X23819Y94488D02*
X27362D01*
X19488Y91634D02*
X31693D01*
X19488Y97342D02*
X31693D01*
Y91634D02*
Y97342D01*
X19488Y91634D02*
Y97342D01*
X25591Y100591D02*
Y104134D01*
X23819Y102362D02*
X27362D01*
X19488Y105217D02*
X31693D01*
X19488Y99508D02*
X31693D01*
X19488D02*
Y105217D01*
X31693Y99508D02*
Y105217D01*
X25591Y114370D02*
Y117913D01*
X23819Y116142D02*
X27362D01*
X19488Y113287D02*
X31693D01*
X19488Y118996D02*
X31693D01*
Y113287D02*
Y118996D01*
X19488Y113287D02*
Y118996D01*
X25591Y122244D02*
Y125787D01*
X23819Y124016D02*
X27362D01*
X19488Y126870D02*
X31693D01*
X19488Y121161D02*
X31693D01*
X19488D02*
Y126870D01*
X31693Y121161D02*
Y126870D01*
X39370Y55118D02*
X43307D01*
X41339Y53150D02*
Y57087D01*
X48228Y47736D02*
Y62500D01*
X34449Y47736D02*
Y62500D01*
X48228D01*
X34449Y47736D02*
X48228D01*
X39370Y76772D02*
X43307D01*
X41339Y74803D02*
Y78740D01*
X48228Y69390D02*
Y84154D01*
X34449Y69390D02*
Y84154D01*
X48228D01*
X34449Y69390D02*
X48228D01*
X39370Y98425D02*
X43307D01*
X41339Y96457D02*
Y100394D01*
X48228Y91043D02*
Y105807D01*
X34449Y91043D02*
Y105807D01*
X48228D01*
X34449Y91043D02*
X48228D01*
X39370Y120079D02*
X43307D01*
X41339Y118110D02*
Y122047D01*
X48228Y112697D02*
Y127461D01*
X34449Y112697D02*
Y127461D01*
X48228D01*
X34449Y112697D02*
X48228D01*
X64764Y91634D02*
Y97342D01*
X76968Y91634D02*
Y97342D01*
X64764D02*
X76968D01*
X64764Y91634D02*
X76968D01*
X69095Y94488D02*
X72638D01*
X70866Y92716D02*
Y96260D01*
Y100591D02*
Y104134D01*
X69095Y102362D02*
X72638D01*
X64764Y105217D02*
X76968D01*
X64764Y99508D02*
X76968D01*
X64764D02*
Y105217D01*
X76968Y99508D02*
Y105217D01*
X70866Y114370D02*
Y117913D01*
X69095Y116142D02*
X72638D01*
X64764Y113287D02*
X76968D01*
X64764Y118996D02*
X76968D01*
Y113287D02*
Y118996D01*
X64764Y113287D02*
Y118996D01*
X70866Y122244D02*
Y125787D01*
X69095Y124016D02*
X72638D01*
X64764Y126870D02*
X76968D01*
X64764Y121161D02*
X76968D01*
X64764D02*
Y126870D01*
X76968Y121161D02*
Y126870D01*
X84646Y98425D02*
X88583D01*
X86614Y96457D02*
Y100394D01*
X93504Y91043D02*
Y105807D01*
X79724Y91043D02*
Y105807D01*
X93504D01*
X79724Y91043D02*
X93504D01*
X271654Y78937D02*
Y82480D01*
X269882Y80709D02*
X273425D01*
X265551Y83563D02*
X277756D01*
X265551Y77854D02*
X277756D01*
X265551D02*
Y83563D01*
X277756Y77854D02*
Y83563D01*
X291339Y78937D02*
Y82480D01*
X289567Y80709D02*
X293110D01*
X285236Y77854D02*
X297441D01*
X285236Y83563D02*
X297441D01*
Y77854D02*
Y83563D01*
X285236Y77854D02*
Y83563D01*
X254134Y64961D02*
X257677D01*
X255906Y63189D02*
Y66732D01*
X258661Y58957D02*
Y70965D01*
X253150Y58957D02*
Y70965D01*
X258661D01*
X253150Y58957D02*
X258661D01*
X71063Y64961D02*
X74606D01*
X72835Y63189D02*
Y66732D01*
X75591Y58957D02*
Y70965D01*
X70079Y58957D02*
Y70965D01*
X75591D01*
X70079Y58957D02*
X75591D01*
X570866Y204921D02*
Y208465D01*
X569095Y206693D02*
X572638D01*
X564764Y209547D02*
X576968D01*
X564764Y203839D02*
X576968D01*
X564764D02*
Y209547D01*
X576968Y203839D02*
Y209547D01*
X535433Y204921D02*
Y208465D01*
X533661Y206693D02*
X537205D01*
X529331Y209547D02*
X541536D01*
X529331Y203839D02*
X541536D01*
X529331D02*
Y209547D01*
X541536Y203839D02*
Y209547D01*
X500000Y204921D02*
Y208465D01*
X498228Y206693D02*
X501772D01*
X493898Y209547D02*
X506102D01*
X493898Y203839D02*
X506102D01*
X493898D02*
Y209547D01*
X506102Y203839D02*
Y209547D01*
X464567Y204921D02*
Y208465D01*
X462795Y206693D02*
X466339D01*
X458465Y209547D02*
X470669D01*
X458465Y203839D02*
X470669D01*
X458465D02*
Y209547D01*
X470669Y203839D02*
Y209547D01*
X429134Y204921D02*
Y208465D01*
X427362Y206693D02*
X430905D01*
X423032Y203839D02*
X435236D01*
X423032Y209547D02*
X435236D01*
Y203839D02*
Y209547D01*
X423032Y203839D02*
Y209547D01*
X393701Y204921D02*
Y208465D01*
X391929Y206693D02*
X395473D01*
X387598Y209547D02*
X399803D01*
X387598Y203839D02*
X399803D01*
X387598D02*
Y209547D01*
X399803Y203839D02*
Y209547D01*
X322835Y204921D02*
Y208465D01*
X321063Y206693D02*
X324606D01*
X316732Y203839D02*
X328937D01*
X316732Y209547D02*
X328937D01*
Y203839D02*
Y209547D01*
X316732Y203839D02*
Y209547D01*
X580905Y220472D02*
X584449D01*
X582677Y218701D02*
Y222244D01*
X579823Y214370D02*
Y226575D01*
X585532Y214370D02*
Y226575D01*
X579823Y214370D02*
X585532D01*
X579823Y226575D02*
X585532D01*
X545472Y220472D02*
X549016D01*
X547244Y218701D02*
Y222244D01*
X544390Y214370D02*
Y226575D01*
X550098Y214370D02*
Y226575D01*
X544390Y214370D02*
X550098D01*
X544390Y226575D02*
X550098D01*
X510039Y220472D02*
X513583D01*
X511811Y218701D02*
Y222244D01*
X508957Y214370D02*
Y226575D01*
X514665Y214370D02*
Y226575D01*
X508957Y214370D02*
X514665D01*
X508957Y226575D02*
X514665D01*
X474606Y220472D02*
X478150D01*
X476378Y218701D02*
Y222244D01*
X473524Y214370D02*
Y226575D01*
X479232Y214370D02*
Y226575D01*
X473524Y214370D02*
X479232D01*
X473524Y226575D02*
X479232D01*
X439173Y220472D02*
X442717D01*
X440945Y218701D02*
Y222244D01*
X438091Y214370D02*
Y226575D01*
X443799Y214370D02*
Y226575D01*
X438091Y214370D02*
X443799D01*
X438091Y226575D02*
X443799D01*
X403740Y220472D02*
X407283D01*
X405512Y218701D02*
Y222244D01*
X402658Y214370D02*
Y226575D01*
X408366Y214370D02*
Y226575D01*
X402658Y214370D02*
X408366D01*
X402658Y226575D02*
X408366D01*
X368307Y220472D02*
X371850D01*
X370079Y218701D02*
Y222244D01*
X367224Y214370D02*
Y226575D01*
X372933Y214370D02*
Y226575D01*
X367224Y214370D02*
X372933D01*
X367224Y226575D02*
X372933D01*
X332874Y220472D02*
X336417D01*
X334646Y218701D02*
Y222244D01*
X331791Y214370D02*
Y226575D01*
X337500Y214370D02*
Y226575D01*
X331791Y214370D02*
X337500D01*
X331791Y226575D02*
X337500D01*
X570866Y218504D02*
Y222441D01*
X568898Y220472D02*
X572835D01*
X563484Y227362D02*
X578248D01*
X563484Y213583D02*
X578248D01*
X563484D02*
Y227362D01*
X578248Y213583D02*
Y227362D01*
X535433Y218504D02*
Y222441D01*
X533465Y220472D02*
X537402D01*
X528051Y227362D02*
X542815D01*
X528051Y213583D02*
X542815D01*
X528051D02*
Y227362D01*
X542815Y213583D02*
Y227362D01*
X500000Y218504D02*
Y222441D01*
X498032Y220472D02*
X501968D01*
X492618Y227362D02*
X507382D01*
X492618Y213583D02*
X507382D01*
X492618D02*
Y227362D01*
X507382Y213583D02*
Y227362D01*
X464567Y218504D02*
Y222441D01*
X462598Y220472D02*
X466536D01*
X457185Y227362D02*
X471949D01*
X457185Y213583D02*
X471949D01*
X457185D02*
Y227362D01*
X471949Y213583D02*
Y227362D01*
X429134Y218504D02*
Y222441D01*
X427165Y220472D02*
X431102D01*
X421752Y227362D02*
X436516D01*
X421752Y213583D02*
X436516D01*
X421752D02*
Y227362D01*
X436516Y213583D02*
Y227362D01*
X393701Y218504D02*
Y222441D01*
X391732Y220472D02*
X395669D01*
X386319Y227362D02*
X401083D01*
X386319Y213583D02*
X401083D01*
X386319D02*
Y227362D01*
X401083Y213583D02*
Y227362D01*
X358268Y218504D02*
Y222441D01*
X356299Y220472D02*
X360236D01*
X350886Y227362D02*
X365650D01*
X350886Y213583D02*
X365650D01*
X350886D02*
Y227362D01*
X365650Y213583D02*
Y227362D01*
X322835Y218504D02*
Y222441D01*
X320866Y220472D02*
X324803D01*
X315453Y227362D02*
X330217D01*
X315453Y213583D02*
X330217D01*
X315453D02*
Y227362D01*
X330217Y213583D02*
Y227362D01*
X114173Y78937D02*
Y82480D01*
X112402Y80709D02*
X115945D01*
X108071Y77854D02*
X120276D01*
X108071Y83563D02*
X120276D01*
Y77854D02*
Y83563D01*
X108071Y77854D02*
Y83563D01*
X98425Y78937D02*
Y82480D01*
X96653Y80709D02*
X100197D01*
X92323Y77854D02*
X104528D01*
X92323Y83563D02*
X104528D01*
Y77854D02*
Y83563D01*
X92323Y77854D02*
Y83563D01*
X263779Y100591D02*
Y104134D01*
X262008Y102362D02*
X265551D01*
X257677Y105217D02*
X269882D01*
X257677Y99508D02*
X269882D01*
X257677D02*
Y105217D01*
X269882Y99508D02*
Y105217D01*
X248031Y100591D02*
Y104134D01*
X246260Y102362D02*
X249803D01*
X241929Y105217D02*
X254134D01*
X241929Y99508D02*
X254134D01*
X241929D02*
Y105217D01*
X254134Y99508D02*
Y105217D01*
X129921Y100591D02*
Y104134D01*
X128150Y102362D02*
X131693D01*
X123819Y99508D02*
X136024D01*
X123819Y105217D02*
X136024D01*
Y99508D02*
Y105217D01*
X123819Y99508D02*
Y105217D01*
X114173Y100591D02*
Y104134D01*
X112402Y102362D02*
X115945D01*
X108071Y99508D02*
X120276D01*
X108071Y105217D02*
X120276D01*
Y99508D02*
Y105217D01*
X108071Y99508D02*
Y105217D01*
X129921Y114370D02*
Y117913D01*
X128150Y116142D02*
X131693D01*
X123917Y113386D02*
X135925D01*
X123917Y118898D02*
X135925D01*
Y113386D02*
Y118898D01*
X123917Y113386D02*
Y118898D01*
X248031Y114370D02*
Y117913D01*
X246260Y116142D02*
X249803D01*
X242028Y118898D02*
X254035D01*
X242028Y113386D02*
X254035D01*
X242028D02*
Y118898D01*
X254035Y113386D02*
Y118898D01*
X586811Y157480D02*
X590354D01*
X588583Y155709D02*
Y159252D01*
X585728Y151378D02*
Y163583D01*
X591437Y151378D02*
Y163583D01*
X585728Y151378D02*
X591437D01*
X585728Y163583D02*
X591437D01*
X586811Y188976D02*
X590354D01*
X588583Y187205D02*
Y190748D01*
X591437Y182874D02*
Y195079D01*
X585728Y182874D02*
Y195079D01*
X591437D01*
X585728Y182874D02*
X591437D01*
X551378Y188976D02*
X554921D01*
X553150Y187205D02*
Y190748D01*
X556004Y182874D02*
Y195079D01*
X550295Y182874D02*
Y195079D01*
X556004D01*
X550295Y182874D02*
X556004D01*
X515945Y158071D02*
X519488D01*
X517717Y156299D02*
Y159843D01*
X514862Y151969D02*
Y164173D01*
X520571Y151969D02*
Y164173D01*
X514862Y151969D02*
X520571D01*
X514862Y164173D02*
X520571D01*
X515945Y188976D02*
X519488D01*
X517717Y187205D02*
Y190748D01*
X520571Y182874D02*
Y195079D01*
X514862Y182874D02*
Y195079D01*
X520571D01*
X514862Y182874D02*
X520571D01*
X480512Y157480D02*
X484055D01*
X482283Y155709D02*
Y159252D01*
X479429Y151378D02*
Y163583D01*
X485138Y151378D02*
Y163583D01*
X479429Y151378D02*
X485138D01*
X479429Y163583D02*
X485138D01*
X480512Y188976D02*
X484055D01*
X482283Y187205D02*
Y190748D01*
X485138Y182874D02*
Y195079D01*
X479429Y182874D02*
Y195079D01*
X485138D01*
X479429Y182874D02*
X485138D01*
X445079Y157480D02*
X448622D01*
X446850Y155709D02*
Y159252D01*
X443996Y151378D02*
Y163583D01*
X449705Y151378D02*
Y163583D01*
X443996Y151378D02*
X449705D01*
X443996Y163583D02*
X449705D01*
X445079Y188976D02*
X448622D01*
X446850Y187205D02*
Y190748D01*
X449705Y182874D02*
Y195079D01*
X443996Y182874D02*
Y195079D01*
X449705D01*
X443996Y182874D02*
X449705D01*
X409646Y157480D02*
X413189D01*
X411417Y155709D02*
Y159252D01*
X408563Y151378D02*
Y163583D01*
X414272Y151378D02*
Y163583D01*
X408563Y151378D02*
X414272D01*
X408563Y163583D02*
X414272D01*
X409646Y188976D02*
X413189D01*
X411417Y187205D02*
Y190748D01*
X414272Y182874D02*
Y195079D01*
X408563Y182874D02*
Y195079D01*
X414272D01*
X408563Y182874D02*
X414272D01*
X374213Y157480D02*
X377756D01*
X375984Y155709D02*
Y159252D01*
X373130Y151378D02*
Y163583D01*
X378839Y151378D02*
Y163583D01*
X373130Y151378D02*
X378839D01*
X373130Y163583D02*
X378839D01*
X374213Y188976D02*
X377756D01*
X375984Y187205D02*
Y190748D01*
X378839Y182874D02*
Y195079D01*
X373130Y182874D02*
Y195079D01*
X378839D01*
X373130Y182874D02*
X378839D01*
X338780Y188976D02*
X342323D01*
X340551Y187205D02*
Y190748D01*
X343406Y182874D02*
Y195079D01*
X337697Y182874D02*
Y195079D01*
X343406D01*
X337697Y182874D02*
X343406D01*
X338780Y157480D02*
X342323D01*
X340551Y155709D02*
Y159252D01*
X337697Y151378D02*
Y163583D01*
X343406Y151378D02*
Y163583D01*
X337697Y151378D02*
X343406D01*
X337697Y163583D02*
X343406D01*
D71*
X102362Y251969D02*
Y291339D01*
X62992D02*
X102362D01*
X62992Y251969D02*
X102362D01*
X62992D02*
Y291339D01*
X75433Y20216D02*
Y38799D01*
X66299Y20216D02*
X75433D01*
X66299D02*
Y38799D01*
X75433D01*
X110866Y20216D02*
Y38799D01*
X101732Y20216D02*
X110866D01*
X101732D02*
Y38799D01*
X110866D01*
M02*
