G04*
G04 #@! TF.GenerationSoftware,Altium Limited,Altium Designer,22.8.2 (66)*
G04*
G04 Layer_Color=255*
%FSLAX25Y25*%
%MOIN*%
G70*
G04*
G04 #@! TF.SameCoordinates,212F37CB-D32F-4CA9-9F40-9CB884434D69*
G04*
G04*
G04 #@! TF.FilePolarity,Positive*
G04*
G01*
G75*
%ADD58R,0.05906X0.05906*%
%ADD59C,0.05906*%
G04:AMPARAMS|DCode=60|XSize=86.61mil|YSize=118.11mil|CornerRadius=21.65mil|HoleSize=0mil|Usage=FLASHONLY|Rotation=90.000|XOffset=0mil|YOffset=0mil|HoleType=Round|Shape=RoundedRectangle|*
%AMROUNDEDRECTD60*
21,1,0.08661,0.07480,0,0,90.0*
21,1,0.04331,0.11811,0,0,90.0*
1,1,0.04331,0.03740,0.02165*
1,1,0.04331,0.03740,-0.02165*
1,1,0.04331,-0.03740,-0.02165*
1,1,0.04331,-0.03740,0.02165*
%
%ADD60ROUNDEDRECTD60*%
%ADD61O,0.06500X0.09000*%
%ADD62R,0.06500X0.09000*%
%ADD63O,0.06299X0.07087*%
G04:AMPARAMS|DCode=64|XSize=62.99mil|YSize=70.87mil|CornerRadius=15.75mil|HoleSize=0mil|Usage=FLASHONLY|Rotation=0.000|XOffset=0mil|YOffset=0mil|HoleType=Round|Shape=RoundedRectangle|*
%AMROUNDEDRECTD64*
21,1,0.06299,0.03937,0,0,0.0*
21,1,0.03150,0.07087,0,0,0.0*
1,1,0.03150,0.01575,-0.01968*
1,1,0.03150,-0.01575,-0.01968*
1,1,0.03150,-0.01575,0.01968*
1,1,0.03150,0.01575,0.01968*
%
%ADD64ROUNDEDRECTD64*%
%ADD65C,0.25000*%
D58*
X326772Y248031D02*
D03*
X212795Y276929D02*
D03*
X402795Y38937D02*
D03*
X161417Y212598D02*
D03*
X118110D02*
D03*
X74803D02*
D03*
X212598Y173228D02*
D03*
D59*
X336772Y248031D02*
D03*
X346772D02*
D03*
X356772D02*
D03*
X366772D02*
D03*
X376772D02*
D03*
X386772D02*
D03*
X396772D02*
D03*
X406772D02*
D03*
X416772D02*
D03*
X426772D02*
D03*
X436772D02*
D03*
X446772D02*
D03*
X456772D02*
D03*
X466772D02*
D03*
X476772D02*
D03*
X402795Y286929D02*
D03*
Y276929D02*
D03*
X392795Y286929D02*
D03*
Y276929D02*
D03*
X382795Y286929D02*
D03*
Y276929D02*
D03*
X372795Y286929D02*
D03*
Y276929D02*
D03*
X362795Y286929D02*
D03*
Y276929D02*
D03*
X352795Y286929D02*
D03*
Y276929D02*
D03*
X342795Y286929D02*
D03*
Y276929D02*
D03*
X332795Y286929D02*
D03*
Y276929D02*
D03*
X322795Y286929D02*
D03*
Y276929D02*
D03*
X312795Y286929D02*
D03*
Y276929D02*
D03*
X302795Y286929D02*
D03*
Y276929D02*
D03*
X292795Y286929D02*
D03*
Y276929D02*
D03*
X282795Y286929D02*
D03*
Y276929D02*
D03*
X272795Y286929D02*
D03*
Y276929D02*
D03*
X262795Y286929D02*
D03*
Y276929D02*
D03*
X252795Y286929D02*
D03*
Y276929D02*
D03*
X242795Y286929D02*
D03*
Y276929D02*
D03*
X232795Y286929D02*
D03*
Y276929D02*
D03*
X222795Y286929D02*
D03*
Y276929D02*
D03*
X212795Y286929D02*
D03*
X402795Y28937D02*
D03*
X392795Y38937D02*
D03*
Y28937D02*
D03*
X382795Y38937D02*
D03*
Y28937D02*
D03*
X372795Y38937D02*
D03*
Y28937D02*
D03*
X362795Y38937D02*
D03*
Y28937D02*
D03*
X352795Y38937D02*
D03*
Y28937D02*
D03*
X342795Y38937D02*
D03*
Y28937D02*
D03*
X332795Y38937D02*
D03*
Y28937D02*
D03*
X322795Y38937D02*
D03*
Y28937D02*
D03*
X312795Y38937D02*
D03*
Y28937D02*
D03*
X302795Y38937D02*
D03*
Y28937D02*
D03*
X292795Y38937D02*
D03*
Y28937D02*
D03*
X282795Y38937D02*
D03*
Y28937D02*
D03*
X272795Y38937D02*
D03*
Y28937D02*
D03*
X262795Y38937D02*
D03*
Y28937D02*
D03*
X252795Y38937D02*
D03*
Y28937D02*
D03*
X242795Y38937D02*
D03*
Y28937D02*
D03*
X232795Y38937D02*
D03*
Y28937D02*
D03*
X222795Y38937D02*
D03*
Y28937D02*
D03*
X212795Y38937D02*
D03*
Y28937D02*
D03*
X181417Y212598D02*
D03*
Y202598D02*
D03*
Y192598D02*
D03*
Y182598D02*
D03*
Y172598D02*
D03*
X161417D02*
D03*
Y182598D02*
D03*
Y192598D02*
D03*
Y202598D02*
D03*
X138110Y212598D02*
D03*
Y202598D02*
D03*
Y192598D02*
D03*
Y182598D02*
D03*
Y172598D02*
D03*
X118110D02*
D03*
Y182598D02*
D03*
Y192598D02*
D03*
Y202598D02*
D03*
X74803D02*
D03*
Y192598D02*
D03*
Y182598D02*
D03*
Y172598D02*
D03*
X94803D02*
D03*
Y182598D02*
D03*
Y192598D02*
D03*
Y202598D02*
D03*
Y212598D02*
D03*
X281496Y232283D02*
D03*
X271654D02*
D03*
X261811D02*
D03*
X251969D02*
D03*
X242126D02*
D03*
X232283D02*
D03*
X222441D02*
D03*
X212598D02*
D03*
X281496Y173228D02*
D03*
X271654D02*
D03*
X261811D02*
D03*
X251969D02*
D03*
X242126D02*
D03*
X232283D02*
D03*
X222441D02*
D03*
D60*
X405512Y64173D02*
D03*
Y82677D02*
D03*
Y101181D02*
D03*
X334646D02*
D03*
Y82677D02*
D03*
Y64173D02*
D03*
X370079D02*
D03*
Y82677D02*
D03*
Y101181D02*
D03*
X440945D02*
D03*
Y82677D02*
D03*
Y64173D02*
D03*
X476378Y101181D02*
D03*
Y82677D02*
D03*
Y64173D02*
D03*
X511811Y101181D02*
D03*
Y82677D02*
D03*
Y64173D02*
D03*
X547244Y101181D02*
D03*
Y82677D02*
D03*
Y64173D02*
D03*
X582677D02*
D03*
Y82677D02*
D03*
Y101181D02*
D03*
D61*
X590866Y279528D02*
D03*
X580866D02*
D03*
D62*
X570866D02*
D03*
D63*
X93583Y34528D02*
D03*
Y24528D02*
D03*
X83583Y34528D02*
D03*
D64*
Y24528D02*
D03*
D65*
X529291Y35433D02*
D03*
X133858Y280433D02*
D03*
Y35433D02*
D03*
X529291Y280433D02*
D03*
M02*
