G04*
G04 #@! TF.GenerationSoftware,Altium Limited,Altium Designer,22.8.2 (66)*
G04*
G04 Layer_Color=8388736*
%FSLAX25Y25*%
%MOIN*%
G70*
G04*
G04 #@! TF.SameCoordinates,212F37CB-D32F-4CA9-9F40-9CB884434D69*
G04*
G04*
G04 #@! TF.FilePolarity,Negative*
G04*
G01*
G75*
%ADD11C,0.00394*%
%ADD30R,0.03543X0.03740*%
%ADD31C,0.07874*%
%ADD32R,0.10236X0.10236*%
%ADD33R,0.04331X0.02756*%
%ADD34R,0.02756X0.04331*%
%ADD35R,0.05118X0.05512*%
%ADD36R,0.03740X0.03543*%
%ADD37R,0.03976X0.04894*%
G04:AMPARAMS|DCode=38|XSize=51.18mil|YSize=75.59mil|CornerRadius=7.87mil|HoleSize=0mil|Usage=FLASHONLY|Rotation=270.000|XOffset=0mil|YOffset=0mil|HoleType=Round|Shape=RoundedRectangle|*
%AMROUNDEDRECTD38*
21,1,0.05118,0.05984,0,0,270.0*
21,1,0.03543,0.07559,0,0,270.0*
1,1,0.01575,-0.02992,-0.01772*
1,1,0.01575,-0.02992,0.01772*
1,1,0.01575,0.02992,0.01772*
1,1,0.01575,0.02992,-0.01772*
%
%ADD38ROUNDEDRECTD38*%
G04:AMPARAMS|DCode=39|XSize=93.94mil|YSize=63.94mil|CornerRadius=16.97mil|HoleSize=0mil|Usage=FLASHONLY|Rotation=0.000|XOffset=0mil|YOffset=0mil|HoleType=Round|Shape=RoundedRectangle|*
%AMROUNDEDRECTD39*
21,1,0.09394,0.03000,0,0,0.0*
21,1,0.06000,0.06394,0,0,0.0*
1,1,0.03394,0.03000,-0.01500*
1,1,0.03394,-0.03000,-0.01500*
1,1,0.03394,-0.03000,0.01500*
1,1,0.03394,0.03000,0.01500*
%
%ADD39ROUNDEDRECTD39*%
%ADD40R,0.09394X0.06394*%
G04:AMPARAMS|DCode=41|XSize=66.93mil|YSize=47.24mil|CornerRadius=6.3mil|HoleSize=0mil|Usage=FLASHONLY|Rotation=270.000|XOffset=0mil|YOffset=0mil|HoleType=Round|Shape=RoundedRectangle|*
%AMROUNDEDRECTD41*
21,1,0.06693,0.03465,0,0,270.0*
21,1,0.05433,0.04724,0,0,270.0*
1,1,0.01260,-0.01732,-0.02717*
1,1,0.01260,-0.01732,0.02717*
1,1,0.01260,0.01732,0.02717*
1,1,0.01260,0.01732,-0.02717*
%
%ADD41ROUNDEDRECTD41*%
G04:AMPARAMS|DCode=42|XSize=93.94mil|YSize=63.94mil|CornerRadius=16.97mil|HoleSize=0mil|Usage=FLASHONLY|Rotation=90.000|XOffset=0mil|YOffset=0mil|HoleType=Round|Shape=RoundedRectangle|*
%AMROUNDEDRECTD42*
21,1,0.09394,0.03000,0,0,90.0*
21,1,0.06000,0.06394,0,0,90.0*
1,1,0.03394,0.01500,0.03000*
1,1,0.03394,0.01500,-0.03000*
1,1,0.03394,-0.01500,-0.03000*
1,1,0.03394,-0.01500,0.03000*
%
%ADD42ROUNDEDRECTD42*%
%ADD43R,0.06394X0.09394*%
%ADD44R,0.06299X0.06299*%
%ADD45C,0.06299*%
G04:AMPARAMS|DCode=46|XSize=90.55mil|YSize=122.05mil|CornerRadius=23.62mil|HoleSize=0mil|Usage=FLASHONLY|Rotation=90.000|XOffset=0mil|YOffset=0mil|HoleType=Round|Shape=RoundedRectangle|*
%AMROUNDEDRECTD46*
21,1,0.09055,0.07480,0,0,90.0*
21,1,0.04331,0.12205,0,0,90.0*
1,1,0.04724,0.03740,0.02165*
1,1,0.04724,0.03740,-0.02165*
1,1,0.04724,-0.03740,-0.02165*
1,1,0.04724,-0.03740,0.02165*
%
%ADD46ROUNDEDRECTD46*%
%ADD47O,0.06894X0.09394*%
%ADD48R,0.06894X0.09394*%
%ADD49O,0.06693X0.07480*%
G04:AMPARAMS|DCode=50|XSize=66.93mil|YSize=74.8mil|CornerRadius=17.72mil|HoleSize=0mil|Usage=FLASHONLY|Rotation=0.000|XOffset=0mil|YOffset=0mil|HoleType=Round|Shape=RoundedRectangle|*
%AMROUNDEDRECTD50*
21,1,0.06693,0.03937,0,0,0.0*
21,1,0.03150,0.07480,0,0,0.0*
1,1,0.03543,0.01575,-0.01968*
1,1,0.03543,-0.01575,-0.01968*
1,1,0.03543,-0.01575,0.01968*
1,1,0.03543,0.01575,0.01968*
%
%ADD50ROUNDEDRECTD50*%
%ADD51C,0.25394*%
%ADD52C,0.02362*%
%ADD53C,0.02756*%
%ADD54C,0.03543*%
D11*
X600394Y248031D02*
D03*
X305118D02*
D03*
Y125984D02*
D03*
X600394D02*
D03*
D30*
X290748Y96457D02*
D03*
X284055D02*
D03*
X209252Y137795D02*
D03*
X215945D02*
D03*
X284055Y104331D02*
D03*
X290748D02*
D03*
X319488Y139764D02*
D03*
X326181D02*
D03*
X467913Y125984D02*
D03*
X461221D02*
D03*
X461221Y139764D02*
D03*
X467913D02*
D03*
X503346Y125984D02*
D03*
X496654D02*
D03*
X496654Y139764D02*
D03*
X503346D02*
D03*
X574213Y125984D02*
D03*
X567520D02*
D03*
X567520Y139764D02*
D03*
X574213D02*
D03*
X538780Y125984D02*
D03*
X532087D02*
D03*
X532087Y139764D02*
D03*
X538779D02*
D03*
X432480Y125984D02*
D03*
X425787D02*
D03*
X425787Y139764D02*
D03*
X432480D02*
D03*
X326181Y125984D02*
D03*
X319488D02*
D03*
X397047D02*
D03*
X390354D02*
D03*
X361614D02*
D03*
X354921D02*
D03*
X354921Y139764D02*
D03*
X361614D02*
D03*
X390354D02*
D03*
X397047D02*
D03*
X496654Y248031D02*
D03*
X503346D02*
D03*
X361614Y206693D02*
D03*
X354921D02*
D03*
X180315Y267717D02*
D03*
X187008D02*
D03*
X22244Y192913D02*
D03*
X28937D02*
D03*
X28937Y185039D02*
D03*
X22244D02*
D03*
X22244Y214567D02*
D03*
X28937D02*
D03*
X28937Y206693D02*
D03*
X22244D02*
D03*
X22244Y171260D02*
D03*
X28937D02*
D03*
X28937Y163386D02*
D03*
X22244D02*
D03*
X109646Y232283D02*
D03*
X102953D02*
D03*
X102953Y240158D02*
D03*
X109646D02*
D03*
X67520D02*
D03*
X74213D02*
D03*
X74213Y232283D02*
D03*
X67520D02*
D03*
X145079D02*
D03*
X138386D02*
D03*
X138386Y240158D02*
D03*
X145079D02*
D03*
X173819D02*
D03*
X180512D02*
D03*
X180512Y232283D02*
D03*
X173819D02*
D03*
X22244Y251969D02*
D03*
X28937D02*
D03*
X22244Y281496D02*
D03*
X28937D02*
D03*
X22244Y273622D02*
D03*
X28937D02*
D03*
X28937Y259842D02*
D03*
X22244D02*
D03*
X28937Y230315D02*
D03*
X22244D02*
D03*
X22244Y238189D02*
D03*
X28937D02*
D03*
X22244Y145669D02*
D03*
X28937D02*
D03*
X28937Y137795D02*
D03*
X22244D02*
D03*
X145079D02*
D03*
X138386D02*
D03*
X138386Y145669D02*
D03*
X145079D02*
D03*
X173819D02*
D03*
X180512D02*
D03*
X180512Y137795D02*
D03*
X173819D02*
D03*
X209252Y145669D02*
D03*
X215945D02*
D03*
X244685D02*
D03*
X251378D02*
D03*
X251378Y137795D02*
D03*
X244685D02*
D03*
X102953Y145669D02*
D03*
X109646D02*
D03*
X109646Y137795D02*
D03*
X102953D02*
D03*
X74213D02*
D03*
X67520D02*
D03*
X67520Y145669D02*
D03*
X74213D02*
D03*
X28937Y29528D02*
D03*
X22244D02*
D03*
X22244Y37402D02*
D03*
X28937D02*
D03*
X28937Y51181D02*
D03*
X22244D02*
D03*
X22244Y59055D02*
D03*
X28937D02*
D03*
X28937Y72835D02*
D03*
X22244D02*
D03*
X22244Y80709D02*
D03*
X28937D02*
D03*
X28937Y94488D02*
D03*
X22244D02*
D03*
X22244Y102362D02*
D03*
X28937D02*
D03*
X28937Y116142D02*
D03*
X22244D02*
D03*
X22244Y124016D02*
D03*
X28937D02*
D03*
X67520Y94488D02*
D03*
X74213D02*
D03*
X67520Y102362D02*
D03*
X74213D02*
D03*
X74213Y116142D02*
D03*
X67520D02*
D03*
X67520Y124016D02*
D03*
X74213D02*
D03*
X268307Y80709D02*
D03*
X275000D02*
D03*
X294685D02*
D03*
X287992D02*
D03*
X567520Y206693D02*
D03*
X574213D02*
D03*
X532087D02*
D03*
X538780D02*
D03*
X496654D02*
D03*
X503346D02*
D03*
X461221D02*
D03*
X467913D02*
D03*
X432480D02*
D03*
X425787D02*
D03*
X390354D02*
D03*
X397047D02*
D03*
X326181D02*
D03*
X319488D02*
D03*
X117520Y80709D02*
D03*
X110827D02*
D03*
X101772D02*
D03*
X95079D02*
D03*
X260433Y102362D02*
D03*
X267126D02*
D03*
X244685D02*
D03*
X251378D02*
D03*
X133268D02*
D03*
X126575D02*
D03*
X117520D02*
D03*
X110827D02*
D03*
X133268Y116142D02*
D03*
X126575D02*
D03*
X244685D02*
D03*
X251378D02*
D03*
D31*
X157480Y35433D02*
D03*
X551181Y279528D02*
D03*
Y35433D02*
D03*
D32*
X68898Y257874D02*
D03*
Y285433D02*
D03*
X96457D02*
D03*
Y257874D02*
D03*
D33*
X590551Y135827D02*
D03*
X582677Y132087D02*
D03*
Y139567D02*
D03*
X476378D02*
D03*
Y132087D02*
D03*
X484252Y135827D02*
D03*
X511811Y139567D02*
D03*
Y132087D02*
D03*
X519685Y135827D02*
D03*
X547244Y139567D02*
D03*
Y132087D02*
D03*
X555118Y135827D02*
D03*
X440945Y139567D02*
D03*
Y132087D02*
D03*
X448819Y135827D02*
D03*
X405512Y139567D02*
D03*
Y132087D02*
D03*
X413386Y135827D02*
D03*
X334646Y139567D02*
D03*
Y132087D02*
D03*
X342520Y135827D02*
D03*
X370079Y139567D02*
D03*
Y132087D02*
D03*
X377953Y135827D02*
D03*
X307087Y100394D02*
D03*
X299213Y96653D02*
D03*
Y104134D02*
D03*
X169291Y281496D02*
D03*
X161417Y277756D02*
D03*
Y285236D02*
D03*
X566929Y220472D02*
D03*
X574803Y224213D02*
D03*
Y216732D02*
D03*
X531496Y220472D02*
D03*
X539370Y224213D02*
D03*
Y216732D02*
D03*
X496063Y220472D02*
D03*
X503937Y224213D02*
D03*
Y216732D02*
D03*
X460630Y220472D02*
D03*
X468504Y224213D02*
D03*
Y216732D02*
D03*
X425197Y220472D02*
D03*
X433071Y224213D02*
D03*
Y216732D02*
D03*
X389764Y220472D02*
D03*
X397638Y224213D02*
D03*
Y216732D02*
D03*
X354331Y220472D02*
D03*
X362205Y224213D02*
D03*
Y216732D02*
D03*
X318898Y220472D02*
D03*
X326772Y224213D02*
D03*
Y216732D02*
D03*
D34*
X82874Y116142D02*
D03*
X90354D02*
D03*
X86614Y124016D02*
D03*
X37598Y29528D02*
D03*
X45079D02*
D03*
X41339Y37402D02*
D03*
Y171260D02*
D03*
X45079Y163386D02*
D03*
X37598D02*
D03*
X41339Y192913D02*
D03*
X45079Y185039D02*
D03*
X37598D02*
D03*
X41339Y214567D02*
D03*
X45079Y206693D02*
D03*
X37598D02*
D03*
X86614Y240158D02*
D03*
X90354Y232283D02*
D03*
X82874D02*
D03*
X122047Y240158D02*
D03*
X125787Y232283D02*
D03*
X118307D02*
D03*
X157480Y240158D02*
D03*
X161221Y232283D02*
D03*
X153740D02*
D03*
X192913Y240158D02*
D03*
X196653Y232283D02*
D03*
X189173D02*
D03*
X41339Y238189D02*
D03*
X45079Y230315D02*
D03*
X37598D02*
D03*
X41339Y281496D02*
D03*
X45079Y273622D02*
D03*
X37598D02*
D03*
X41339Y259842D02*
D03*
X45079Y251969D02*
D03*
X37598D02*
D03*
X157480Y145669D02*
D03*
X161221Y137795D02*
D03*
X153740D02*
D03*
X228346Y145669D02*
D03*
X232087Y137795D02*
D03*
X224606D02*
D03*
X192913Y145669D02*
D03*
X196653Y137795D02*
D03*
X189173D02*
D03*
X263779Y145669D02*
D03*
X267520Y137795D02*
D03*
X260039D02*
D03*
X122047Y145669D02*
D03*
X125787Y137795D02*
D03*
X118307D02*
D03*
X41339Y145669D02*
D03*
X45079Y137795D02*
D03*
X37598D02*
D03*
X86614Y145669D02*
D03*
X90354Y137795D02*
D03*
X82874D02*
D03*
X41339Y59055D02*
D03*
X45079Y51181D02*
D03*
X37598D02*
D03*
X41339Y80709D02*
D03*
X45079Y72835D02*
D03*
X37598D02*
D03*
X41339Y102362D02*
D03*
X45079Y94488D02*
D03*
X37598D02*
D03*
X41339Y124016D02*
D03*
X45079Y116142D02*
D03*
X37598D02*
D03*
X86614Y102362D02*
D03*
X90354Y94488D02*
D03*
X82874D02*
D03*
D35*
X291240Y114173D02*
D03*
X283563D02*
D03*
X478248D02*
D03*
X470571D02*
D03*
X442815D02*
D03*
X435138D02*
D03*
X586516D02*
D03*
X578839D02*
D03*
X549114D02*
D03*
X541437D02*
D03*
X513681D02*
D03*
X506004D02*
D03*
X336516D02*
D03*
X328839D02*
D03*
X407382D02*
D03*
X399705D02*
D03*
X371949D02*
D03*
X364272D02*
D03*
D36*
X553150Y160827D02*
D03*
Y154134D02*
D03*
X255906Y68307D02*
D03*
Y61614D02*
D03*
X72835Y68307D02*
D03*
Y61614D02*
D03*
X582677Y217126D02*
D03*
Y223819D02*
D03*
X547244Y217126D02*
D03*
Y223819D02*
D03*
X511811Y217126D02*
D03*
Y223819D02*
D03*
X476378Y217126D02*
D03*
Y223819D02*
D03*
X440945Y217126D02*
D03*
Y223819D02*
D03*
X405512Y217126D02*
D03*
Y223819D02*
D03*
X370079Y217126D02*
D03*
Y223819D02*
D03*
X334646Y217126D02*
D03*
Y223819D02*
D03*
X588583Y154134D02*
D03*
Y160827D02*
D03*
X588583Y192323D02*
D03*
Y185630D02*
D03*
X553150Y192323D02*
D03*
Y185630D02*
D03*
X517717Y154724D02*
D03*
Y161417D02*
D03*
X517717Y192323D02*
D03*
Y185630D02*
D03*
X482283Y154134D02*
D03*
Y160827D02*
D03*
X482283Y192323D02*
D03*
Y185630D02*
D03*
X446850Y154134D02*
D03*
Y160827D02*
D03*
Y192323D02*
D03*
Y185630D02*
D03*
X411417Y154134D02*
D03*
Y160827D02*
D03*
Y192323D02*
D03*
Y185630D02*
D03*
X375984Y154134D02*
D03*
Y160827D02*
D03*
Y192323D02*
D03*
Y185630D02*
D03*
X340551Y192323D02*
D03*
Y185630D02*
D03*
Y154134D02*
D03*
Y160827D02*
D03*
D37*
X158898Y267717D02*
D03*
X171811D02*
D03*
D38*
X70866Y35433D02*
D03*
Y23583D02*
D03*
X106299Y35433D02*
D03*
Y23583D02*
D03*
D39*
X303150Y59961D02*
D03*
Y69961D02*
D03*
X267717Y59961D02*
D03*
X232283Y103268D02*
D03*
Y113268D02*
D03*
X196850Y103268D02*
D03*
X181102D02*
D03*
Y113268D02*
D03*
X145669Y103268D02*
D03*
X120079Y59961D02*
D03*
Y69961D02*
D03*
X84646Y59961D02*
D03*
D40*
X267717Y69961D02*
D03*
X196850Y113268D02*
D03*
X145669D02*
D03*
X84646Y69961D02*
D03*
D41*
X245079Y59449D02*
D03*
X227362Y90158D02*
D03*
Y59449D02*
D03*
X245079Y90158D02*
D03*
X195866D02*
D03*
X213583Y59449D02*
D03*
Y90158D02*
D03*
X195866Y59449D02*
D03*
X182087D02*
D03*
X164370Y90158D02*
D03*
Y59449D02*
D03*
X182087Y90158D02*
D03*
X132874D02*
D03*
X150591Y59449D02*
D03*
Y90158D02*
D03*
X132874Y59449D02*
D03*
D42*
X575866Y190945D02*
D03*
X565866D02*
D03*
X575866Y155512D02*
D03*
X540433Y190945D02*
D03*
X530433D02*
D03*
X540433Y155512D02*
D03*
X505000Y190945D02*
D03*
X495000D02*
D03*
X505000Y155512D02*
D03*
X469567Y190945D02*
D03*
X459567D02*
D03*
X469567Y155512D02*
D03*
X434134Y190945D02*
D03*
X424134D02*
D03*
X434134Y155512D02*
D03*
X398701Y190945D02*
D03*
X388701D02*
D03*
X398701Y155512D02*
D03*
X363268Y190945D02*
D03*
X353268D02*
D03*
X363268Y155512D02*
D03*
X327835Y190945D02*
D03*
X317835D02*
D03*
X327835Y155512D02*
D03*
D43*
X565866D02*
D03*
X530433D02*
D03*
X495000D02*
D03*
X459567D02*
D03*
X424134D02*
D03*
X388701D02*
D03*
X353268D02*
D03*
X317835D02*
D03*
D44*
X326772Y248031D02*
D03*
X212795Y276929D02*
D03*
X402795Y38937D02*
D03*
X161417Y212598D02*
D03*
X118110D02*
D03*
X74803D02*
D03*
X212598Y173228D02*
D03*
D45*
X336772Y248031D02*
D03*
X346772D02*
D03*
X356772D02*
D03*
X366772D02*
D03*
X376772D02*
D03*
X386772D02*
D03*
X396772D02*
D03*
X406772D02*
D03*
X416772D02*
D03*
X426772D02*
D03*
X436772D02*
D03*
X446772D02*
D03*
X456772D02*
D03*
X466772D02*
D03*
X476772D02*
D03*
X402795Y286929D02*
D03*
Y276929D02*
D03*
X392795Y286929D02*
D03*
Y276929D02*
D03*
X382795Y286929D02*
D03*
Y276929D02*
D03*
X372795Y286929D02*
D03*
Y276929D02*
D03*
X362795Y286929D02*
D03*
Y276929D02*
D03*
X352795Y286929D02*
D03*
Y276929D02*
D03*
X342795Y286929D02*
D03*
Y276929D02*
D03*
X332795Y286929D02*
D03*
Y276929D02*
D03*
X322795Y286929D02*
D03*
Y276929D02*
D03*
X312795Y286929D02*
D03*
Y276929D02*
D03*
X302795Y286929D02*
D03*
Y276929D02*
D03*
X292795Y286929D02*
D03*
Y276929D02*
D03*
X282795Y286929D02*
D03*
Y276929D02*
D03*
X272795Y286929D02*
D03*
Y276929D02*
D03*
X262795Y286929D02*
D03*
Y276929D02*
D03*
X252795Y286929D02*
D03*
Y276929D02*
D03*
X242795Y286929D02*
D03*
Y276929D02*
D03*
X232795Y286929D02*
D03*
Y276929D02*
D03*
X222795Y286929D02*
D03*
Y276929D02*
D03*
X212795Y286929D02*
D03*
X402795Y28937D02*
D03*
X392795Y38937D02*
D03*
Y28937D02*
D03*
X382795Y38937D02*
D03*
Y28937D02*
D03*
X372795Y38937D02*
D03*
Y28937D02*
D03*
X362795Y38937D02*
D03*
Y28937D02*
D03*
X352795Y38937D02*
D03*
Y28937D02*
D03*
X342795Y38937D02*
D03*
Y28937D02*
D03*
X332795Y38937D02*
D03*
Y28937D02*
D03*
X322795Y38937D02*
D03*
Y28937D02*
D03*
X312795Y38937D02*
D03*
Y28937D02*
D03*
X302795Y38937D02*
D03*
Y28937D02*
D03*
X292795Y38937D02*
D03*
Y28937D02*
D03*
X282795Y38937D02*
D03*
Y28937D02*
D03*
X272795Y38937D02*
D03*
Y28937D02*
D03*
X262795Y38937D02*
D03*
Y28937D02*
D03*
X252795Y38937D02*
D03*
Y28937D02*
D03*
X242795Y38937D02*
D03*
Y28937D02*
D03*
X232795Y38937D02*
D03*
Y28937D02*
D03*
X222795Y38937D02*
D03*
Y28937D02*
D03*
X212795Y38937D02*
D03*
Y28937D02*
D03*
X181417Y212598D02*
D03*
Y202598D02*
D03*
Y192598D02*
D03*
Y182598D02*
D03*
Y172598D02*
D03*
X161417D02*
D03*
Y182598D02*
D03*
Y192598D02*
D03*
Y202598D02*
D03*
X138110Y212598D02*
D03*
Y202598D02*
D03*
Y192598D02*
D03*
Y182598D02*
D03*
Y172598D02*
D03*
X118110D02*
D03*
Y182598D02*
D03*
Y192598D02*
D03*
Y202598D02*
D03*
X74803D02*
D03*
Y192598D02*
D03*
Y182598D02*
D03*
Y172598D02*
D03*
X94803D02*
D03*
Y182598D02*
D03*
Y192598D02*
D03*
Y202598D02*
D03*
Y212598D02*
D03*
X281496Y232283D02*
D03*
X271654D02*
D03*
X261811D02*
D03*
X251969D02*
D03*
X242126D02*
D03*
X232283D02*
D03*
X222441D02*
D03*
X212598D02*
D03*
X281496Y173228D02*
D03*
X271654D02*
D03*
X261811D02*
D03*
X251969D02*
D03*
X242126D02*
D03*
X232283D02*
D03*
X222441D02*
D03*
D46*
X405512Y64173D02*
D03*
Y82677D02*
D03*
Y101181D02*
D03*
X334646D02*
D03*
Y82677D02*
D03*
Y64173D02*
D03*
X370079D02*
D03*
Y82677D02*
D03*
Y101181D02*
D03*
X440945D02*
D03*
Y82677D02*
D03*
Y64173D02*
D03*
X476378Y101181D02*
D03*
Y82677D02*
D03*
Y64173D02*
D03*
X511811Y101181D02*
D03*
Y82677D02*
D03*
Y64173D02*
D03*
X547244Y101181D02*
D03*
Y82677D02*
D03*
Y64173D02*
D03*
X582677D02*
D03*
Y82677D02*
D03*
Y101181D02*
D03*
D47*
X590866Y279528D02*
D03*
X580866D02*
D03*
D48*
X570866D02*
D03*
D49*
X93583Y34528D02*
D03*
Y24528D02*
D03*
X83583Y34528D02*
D03*
D50*
Y24528D02*
D03*
D51*
X529291Y35433D02*
D03*
X133858Y280433D02*
D03*
Y35433D02*
D03*
X529291Y280433D02*
D03*
D52*
X259838Y116883D02*
D03*
X269838Y96583D02*
D03*
X259638Y50183D02*
D03*
X96138Y97483D02*
D03*
X306138Y83383D02*
D03*
X298425Y91339D02*
D03*
X309842Y88189D02*
D03*
X519238Y235483D02*
D03*
X442138Y172483D02*
D03*
X335838Y172783D02*
D03*
X371338Y172583D02*
D03*
X406338Y172483D02*
D03*
X167338Y226283D02*
D03*
X129738Y226483D02*
D03*
X384538Y202083D02*
D03*
X402438Y201983D02*
D03*
X419685Y202209D02*
D03*
X418504Y209327D02*
D03*
X310938Y223983D02*
D03*
X317238Y243183D02*
D03*
X461138Y200283D02*
D03*
X455438Y200783D02*
D03*
X193138Y96283D02*
D03*
X309838Y196383D02*
D03*
X52638Y50683D02*
D03*
X56438Y83183D02*
D03*
X31496Y85827D02*
D03*
X60438Y78083D02*
D03*
X234838Y127767D02*
D03*
X203150Y144095D02*
D03*
X238583Y137795D02*
D03*
X201181Y174409D02*
D03*
X187402Y224410D02*
D03*
X242126Y246850D02*
D03*
X248031Y249606D02*
D03*
X103575Y97276D02*
D03*
X34252Y24016D02*
D03*
X31496Y64173D02*
D03*
Y107480D02*
D03*
Y42520D02*
D03*
X126772Y54331D02*
D03*
X183858Y96063D02*
D03*
X22047Y245669D02*
D03*
X22441Y266535D02*
D03*
X24532Y200394D02*
D03*
X20472Y131102D02*
D03*
X22047Y221654D02*
D03*
X24409Y109055D02*
D03*
X16535Y157480D02*
D03*
Y110236D02*
D03*
X584252Y172441D02*
D03*
X548819Y172835D02*
D03*
X513386D02*
D03*
X477953D02*
D03*
X573228Y199606D02*
D03*
X487795Y251181D02*
D03*
X293307Y235039D02*
D03*
X300787Y202209D02*
D03*
X483071Y218898D02*
D03*
X451968Y238189D02*
D03*
X453150Y214567D02*
D03*
X428346Y211811D02*
D03*
X399764Y229468D02*
D03*
X555905Y235827D02*
D03*
X461811Y238189D02*
D03*
X428740Y238976D02*
D03*
X391732D02*
D03*
X561417Y220472D02*
D03*
X525984D02*
D03*
X490158D02*
D03*
X375984Y223622D02*
D03*
X341170Y223863D02*
D03*
X472441Y211811D02*
D03*
X477165D02*
D03*
X367717Y238976D02*
D03*
X490551Y206693D02*
D03*
X561417D02*
D03*
X526378D02*
D03*
X179134Y253150D02*
D03*
X168110Y147638D02*
D03*
X133071Y148819D02*
D03*
X168898Y235039D02*
D03*
X97244Y230315D02*
D03*
X132677Y247638D02*
D03*
D53*
X303150Y77165D02*
D03*
X268738Y121602D02*
D03*
X310236Y170472D02*
D03*
D54*
X306693Y49606D02*
D03*
X302756Y164567D02*
D03*
X581496Y150000D02*
D03*
Y125984D02*
D03*
X201969Y205906D02*
D03*
X252362Y266929D02*
D03*
X59449Y243307D02*
D03*
X440945Y125984D02*
D03*
X356308Y120481D02*
D03*
X334646Y125984D02*
D03*
X547244D02*
D03*
X568660Y120334D02*
D03*
X497794Y120334D02*
D03*
X511811Y125984D02*
D03*
X533059Y120137D02*
D03*
X391732Y120472D02*
D03*
X405512Y125984D02*
D03*
X426928Y120334D02*
D03*
X476378Y125984D02*
D03*
X462164Y120137D02*
D03*
X370079Y125984D02*
D03*
M02*
