M48
;Layer_Color=9474304
;FILE_FORMAT=2:4
INCH,TZ
;TYPE=PLATED
T8F00S00C0.0472
%
G90
G05
T08
G00X54882Y6417
M15
G01X54567
M16
G00X54882Y8268
M15
G01X54567
M16
G00X54882Y10118
M15
G01X54567
M16
G00X58425Y10118
M15
G01X58110
M16
G00X58425Y8268
M15
G01X58110
M16
G00X58425Y6417
M15
G01X58110
M16
G00X51339Y6417
M15
G01X51024
M16
G00X51339Y8268
M15
G01X51024
M16
G00X51339Y10118
M15
G01X51024
M16
G00X47795Y10118
M15
G01X47480
M16
G00X47795Y8268
M15
G01X47480
M16
G00X47795Y6417
M15
G01X47480
M16
G00X44252Y6417
M15
G01X43937
M16
G00X44252Y8268
M15
G01X43937
M16
G00X44252Y10118
M15
G01X43937
M16
G00X40709Y10118
M15
G01X40394
M16
G00X40709Y8268
M15
G01X40394
M16
G00X40709Y6417
M15
G01X40394
M16
G00X37165Y6417
M15
G01X36850
M16
G00X37165Y8268
M15
G01X36850
M16
G00X37165Y10118
M15
G01X36850
M16
G00X33622Y10118
M15
G01X33307
M16
G00X33622Y8268
M15
G01X33307
M16
G00X33622Y6417
M15
G01X33307
M16
M17
M30
