G04*
G04 #@! TF.GenerationSoftware,Altium Limited,Altium Designer,22.8.2 (66)*
G04*
G04 Layer_Color=16711935*
%FSLAX25Y25*%
%MOIN*%
G70*
G04*
G04 #@! TF.SameCoordinates,212F37CB-D32F-4CA9-9F40-9CB884434D69*
G04*
G04*
G04 #@! TF.FilePolarity,Positive*
G04*
G01*
G75*
%ADD13C,0.00500*%
%ADD68C,0.00394*%
%ADD69R,0.01059X0.04921*%
%ADD70R,0.01509X0.06693*%
D13*
X99410Y254921D02*
Y288386D01*
X65945D02*
X99410D01*
X65945Y254921D02*
X99410D01*
X65945D02*
Y288386D01*
X74410Y22618D02*
Y36398D01*
X67323Y22618D02*
X74410D01*
X67323D02*
Y36398D01*
X74410D01*
X109843Y22618D02*
Y36398D01*
X102756Y22618D02*
X109843D01*
X102756D02*
Y36398D01*
X109843D01*
D68*
X284055Y94685D02*
X290748D01*
X284055Y98228D02*
X290748D01*
Y94685D02*
Y98228D01*
X284055Y94685D02*
Y98228D01*
X209252Y136024D02*
Y139567D01*
X215945Y136024D02*
Y139567D01*
X209252D02*
X215945D01*
X209252Y136024D02*
X215945D01*
X583858Y129921D02*
X589370D01*
X583858Y141732D02*
X589370D01*
Y129921D02*
Y141732D01*
X583858Y129921D02*
Y141732D01*
X80709Y117323D02*
X92520D01*
X80709Y122835D02*
X92520D01*
X80709Y117323D02*
Y122835D01*
X92520Y117323D02*
Y122835D01*
X35433Y30709D02*
X47244D01*
X35433Y36220D02*
X47244D01*
X35433Y30709D02*
Y36220D01*
X47244Y30709D02*
Y36220D01*
X284055Y102559D02*
Y106102D01*
X290748Y102559D02*
Y106102D01*
X284055D02*
X290748D01*
X284055Y102559D02*
X290748D01*
X319488Y137992D02*
Y141535D01*
X326181Y137992D02*
Y141535D01*
X319488D02*
X326181D01*
X319488Y137992D02*
X326181D01*
X470472Y111713D02*
X478346D01*
X470472Y116634D02*
X478346D01*
Y111713D02*
Y116634D01*
X470472Y111713D02*
Y116634D01*
X435039Y111713D02*
X442913D01*
X435039Y116634D02*
X442913D01*
Y111713D02*
Y116634D01*
X435039Y111713D02*
Y116634D01*
X578740Y111713D02*
X586614D01*
X578740Y116634D02*
X586614D01*
Y111713D02*
Y116634D01*
X578740Y111713D02*
Y116634D01*
X467913Y124213D02*
Y127756D01*
X461221Y124213D02*
Y127756D01*
Y124213D02*
X467913D01*
X461221Y127756D02*
X467913D01*
X461221Y137992D02*
Y141535D01*
X467913Y137992D02*
Y141535D01*
X461221D02*
X467913D01*
X461221Y137992D02*
X467913D01*
X477559Y129921D02*
Y141732D01*
X483071Y129921D02*
Y141732D01*
X477559D02*
X483071D01*
X477559Y129921D02*
X483071D01*
X503346Y124213D02*
Y127756D01*
X496654Y124213D02*
Y127756D01*
Y124213D02*
X503346D01*
X496654Y127756D02*
X503346D01*
X496654Y137992D02*
Y141535D01*
X503346Y137992D02*
Y141535D01*
X496654D02*
X503346D01*
X496654Y137992D02*
X503346D01*
X574213Y124213D02*
Y127756D01*
X567520Y124213D02*
Y127756D01*
Y124213D02*
X574213D01*
X567520Y127756D02*
X574213D01*
X567520Y137992D02*
Y141535D01*
X574213Y137992D02*
Y141535D01*
X567520D02*
X574213D01*
X567520Y137992D02*
X574213D01*
X538780Y124213D02*
Y127756D01*
X532087Y124213D02*
Y127756D01*
Y124213D02*
X538780D01*
X532087Y127756D02*
X538780D01*
X541339Y111713D02*
X549213D01*
X541339Y116634D02*
X549213D01*
Y111713D02*
Y116634D01*
X541339Y111713D02*
Y116634D01*
X505905Y111713D02*
X513780D01*
X505905Y116634D02*
X513780D01*
Y111713D02*
Y116634D01*
X505905Y111713D02*
Y116634D01*
X512992Y129921D02*
Y141732D01*
X518504Y129921D02*
Y141732D01*
X512992D02*
X518504D01*
X512992Y129921D02*
X518504D01*
X532087Y137992D02*
Y141535D01*
X538779Y137992D02*
Y141535D01*
X532087D02*
X538779D01*
X532087Y137992D02*
X538779D01*
X548425Y129921D02*
Y141732D01*
X553937Y129921D02*
Y141732D01*
X548425D02*
X553937D01*
X548425Y129921D02*
X553937D01*
X442126D02*
Y141732D01*
X447638Y129921D02*
Y141732D01*
X442126D02*
X447638D01*
X442126Y129921D02*
X447638D01*
X432480Y124213D02*
Y127756D01*
X425787Y124213D02*
Y127756D01*
Y124213D02*
X432480D01*
X425787Y127756D02*
X432480D01*
X425787Y137992D02*
Y141535D01*
X432480Y137992D02*
Y141535D01*
X425787D02*
X432480D01*
X425787Y137992D02*
X432480D01*
X406693Y129921D02*
Y141732D01*
X412205Y129921D02*
Y141732D01*
X406693D02*
X412205D01*
X406693Y129921D02*
X412205D01*
X326181Y124213D02*
Y127756D01*
X319488Y124213D02*
Y127756D01*
Y124213D02*
X326181D01*
X319488Y127756D02*
X326181D01*
X397047Y124213D02*
Y127756D01*
X390354Y124213D02*
Y127756D01*
Y124213D02*
X397047D01*
X390354Y127756D02*
X397047D01*
X361614Y124213D02*
Y127756D01*
X354921Y124213D02*
Y127756D01*
Y124213D02*
X361614D01*
X354921Y127756D02*
X361614D01*
X328740Y111713D02*
X336614D01*
X328740Y116634D02*
X336614D01*
Y111713D02*
Y116634D01*
X328740Y111713D02*
Y116634D01*
X399606Y111713D02*
X407480D01*
X399606Y116634D02*
X407480D01*
Y111713D02*
Y116634D01*
X399606Y111713D02*
Y116634D01*
X354921Y137992D02*
Y141535D01*
X361614Y137992D02*
Y141535D01*
X354921D02*
X361614D01*
X354921Y137992D02*
X361614D01*
X335827Y129921D02*
Y141732D01*
X341339Y129921D02*
Y141732D01*
X335827D02*
X341339D01*
X335827Y129921D02*
X341339D01*
X364173Y111713D02*
X372047D01*
X364173Y116634D02*
X372047D01*
Y111713D02*
Y116634D01*
X364173Y111713D02*
Y116634D01*
X371260Y129921D02*
Y141732D01*
X376772Y129921D02*
Y141732D01*
X371260D02*
X376772D01*
X371260Y129921D02*
X376772D01*
X390354Y137992D02*
Y141535D01*
X397047Y137992D02*
Y141535D01*
X390354D02*
X397047D01*
X390354Y137992D02*
X397047D01*
X496654Y249803D02*
X503346D01*
X496654Y246260D02*
X503346D01*
X496654D02*
Y249803D01*
X503346Y246260D02*
Y249803D01*
X361614Y204921D02*
Y208465D01*
X354921Y204921D02*
Y208465D01*
Y204921D02*
X361614D01*
X354921Y208465D02*
X361614D01*
X551378Y160827D02*
X554921D01*
X551378Y154134D02*
X554921D01*
Y160827D01*
X551378Y154134D02*
Y160827D01*
X300394Y94488D02*
X305906D01*
X300394Y106299D02*
X305906D01*
Y94488D02*
Y106299D01*
X300394Y94488D02*
Y106299D01*
X180315Y269488D02*
X187008D01*
X180315Y265945D02*
X187008D01*
X180315D02*
Y269488D01*
X187008Y265945D02*
Y269488D01*
X159744Y264370D02*
X170965D01*
X159744Y271063D02*
X170965D01*
Y264370D02*
Y271063D01*
X159744Y264370D02*
Y271063D01*
X162598Y275591D02*
X168110D01*
X162598Y287402D02*
X168110D01*
Y275591D02*
Y287402D01*
X162598Y275591D02*
Y287402D01*
X47244Y164567D02*
Y170079D01*
X35433Y164567D02*
Y170079D01*
X47244D01*
X35433Y164567D02*
X47244D01*
Y186221D02*
Y191732D01*
X35433Y186221D02*
Y191732D01*
X47244D01*
X35433Y186221D02*
X47244D01*
Y207874D02*
Y213386D01*
X35433Y207874D02*
Y213386D01*
X47244D01*
X35433Y207874D02*
X47244D01*
X22244Y194685D02*
X28937D01*
X22244Y191142D02*
X28937D01*
X22244D02*
Y194685D01*
X28937Y191142D02*
Y194685D01*
X22244Y183268D02*
X28937D01*
X22244Y186811D02*
X28937D01*
Y183268D02*
Y186811D01*
X22244Y183268D02*
Y186811D01*
X22244Y216339D02*
X28937D01*
X22244Y212795D02*
X28937D01*
X22244D02*
Y216339D01*
X28937Y212795D02*
Y216339D01*
X22244Y204921D02*
X28937D01*
X22244Y208465D02*
X28937D01*
Y204921D02*
Y208465D01*
X22244Y204921D02*
Y208465D01*
X22244Y173031D02*
X28937D01*
X22244Y169488D02*
X28937D01*
X22244D02*
Y173031D01*
X28937Y169488D02*
Y173031D01*
X22244Y161614D02*
X28937D01*
X22244Y165157D02*
X28937D01*
Y161614D02*
Y165157D01*
X22244Y161614D02*
Y165157D01*
X92520Y233465D02*
Y238976D01*
X80709Y233465D02*
Y238976D01*
X92520D01*
X80709Y233465D02*
X92520D01*
X102953Y230512D02*
X109646D01*
X102953Y234055D02*
X109646D01*
Y230512D02*
Y234055D01*
X102953Y230512D02*
Y234055D01*
X102953Y241929D02*
X109646D01*
X102953Y238386D02*
X109646D01*
X102953D02*
Y241929D01*
X109646Y238386D02*
Y241929D01*
X127953Y233465D02*
Y238976D01*
X116142Y233465D02*
Y238976D01*
X127953D01*
X116142Y233465D02*
X127953D01*
X67520Y241929D02*
X74213D01*
X67520Y238386D02*
X74213D01*
X67520D02*
Y241929D01*
X74213Y238386D02*
Y241929D01*
X67520Y230512D02*
X74213D01*
X67520Y234055D02*
X74213D01*
Y230512D02*
Y234055D01*
X67520Y230512D02*
Y234055D01*
X138386Y230512D02*
X145079D01*
X138386Y234055D02*
X145079D01*
Y230512D02*
Y234055D01*
X138386Y230512D02*
Y234055D01*
X138386Y241929D02*
X145079D01*
X138386Y238386D02*
X145079D01*
X138386D02*
Y241929D01*
X145079Y238386D02*
Y241929D01*
X163386Y233465D02*
Y238976D01*
X151575Y233465D02*
Y238976D01*
X163386D01*
X151575Y233465D02*
X163386D01*
X198819D02*
Y238976D01*
X187008Y233465D02*
Y238976D01*
X198819D01*
X187008Y233465D02*
X198819D01*
X173819Y241929D02*
X180512D01*
X173819Y238386D02*
X180512D01*
X173819D02*
Y241929D01*
X180512Y238386D02*
Y241929D01*
X173819Y230512D02*
X180512D01*
X173819Y234055D02*
X180512D01*
Y230512D02*
Y234055D01*
X173819Y230512D02*
Y234055D01*
X47244Y231496D02*
Y237008D01*
X35433Y231496D02*
Y237008D01*
X47244D01*
X35433Y231496D02*
X47244D01*
X22244Y250197D02*
Y253740D01*
X28937Y250197D02*
Y253740D01*
X22244D02*
X28937D01*
X22244Y250197D02*
X28937D01*
X22244Y283268D02*
X28937D01*
X22244Y279724D02*
X28937D01*
X22244D02*
Y283268D01*
X28937Y279724D02*
Y283268D01*
X47244Y274803D02*
Y280315D01*
X35433Y274803D02*
Y280315D01*
X47244D01*
X35433Y274803D02*
X47244D01*
X22244Y271850D02*
Y275394D01*
X28937Y271850D02*
Y275394D01*
X22244D02*
X28937D01*
X22244Y271850D02*
X28937D01*
X28937Y258071D02*
Y261614D01*
X22244Y258071D02*
Y261614D01*
Y258071D02*
X28937D01*
X22244Y261614D02*
X28937D01*
X22244Y228543D02*
X28937D01*
X22244Y232087D02*
X28937D01*
Y228543D02*
Y232087D01*
X22244Y228543D02*
Y232087D01*
X22244Y239961D02*
X28937D01*
X22244Y236417D02*
X28937D01*
X22244D02*
Y239961D01*
X28937Y236417D02*
Y239961D01*
X47244Y253150D02*
Y258661D01*
X35433Y253150D02*
Y258661D01*
X47244D01*
X35433Y253150D02*
X47244D01*
X22244Y147441D02*
X28937D01*
X22244Y143898D02*
X28937D01*
X22244D02*
Y147441D01*
X28937Y143898D02*
Y147441D01*
X22244Y136024D02*
X28937D01*
X22244Y139567D02*
X28937D01*
Y136024D02*
Y139567D01*
X22244Y136024D02*
Y139567D01*
X138386Y136024D02*
X145079D01*
X138386Y139567D02*
X145079D01*
Y136024D02*
Y139567D01*
X138386Y136024D02*
Y139567D01*
X163386Y138976D02*
Y144488D01*
X151575Y138976D02*
Y144488D01*
X163386D01*
X151575Y138976D02*
X163386D01*
X138386Y147441D02*
X145079D01*
X138386Y143898D02*
X145079D01*
X138386D02*
Y147441D01*
X145079Y143898D02*
Y147441D01*
X173819D02*
X180512D01*
X173819Y143898D02*
X180512D01*
X173819D02*
Y147441D01*
X180512Y143898D02*
Y147441D01*
X173819Y136024D02*
X180512D01*
X173819Y139567D02*
X180512D01*
Y136024D02*
Y139567D01*
X173819Y136024D02*
Y139567D01*
X209252Y147441D02*
X215945D01*
X209252Y143898D02*
X215945D01*
X209252D02*
Y147441D01*
X215945Y143898D02*
Y147441D01*
X234252Y138976D02*
Y144488D01*
X222441Y138976D02*
Y144488D01*
X234252D01*
X222441Y138976D02*
X234252D01*
X198819D02*
Y144488D01*
X187008Y138976D02*
Y144488D01*
X198819D01*
X187008Y138976D02*
X198819D01*
X244685Y147441D02*
X251378D01*
X244685Y143898D02*
X251378D01*
X244685D02*
Y147441D01*
X251378Y143898D02*
Y147441D01*
X269685Y138976D02*
Y144488D01*
X257874Y138976D02*
Y144488D01*
X269685D01*
X257874Y138976D02*
X269685D01*
X244685Y136024D02*
X251378D01*
X244685Y139567D02*
X251378D01*
Y136024D02*
Y139567D01*
X244685Y136024D02*
Y139567D01*
X102953Y147441D02*
X109646D01*
X102953Y143898D02*
X109646D01*
X102953D02*
Y147441D01*
X109646Y143898D02*
Y147441D01*
X127953Y138976D02*
Y144488D01*
X116142Y138976D02*
Y144488D01*
X127953D01*
X116142Y138976D02*
X127953D01*
X102953Y136024D02*
X109646D01*
X102953Y139567D02*
X109646D01*
Y136024D02*
Y139567D01*
X102953Y136024D02*
Y139567D01*
X47244Y138976D02*
Y144488D01*
X35433Y138976D02*
Y144488D01*
X47244D01*
X35433Y138976D02*
X47244D01*
X67520Y136024D02*
X74213D01*
X67520Y139567D02*
X74213D01*
Y136024D02*
Y139567D01*
X67520Y136024D02*
Y139567D01*
X67520Y147441D02*
X74213D01*
X67520Y143898D02*
X74213D01*
X67520D02*
Y147441D01*
X74213Y143898D02*
Y147441D01*
X92520Y138976D02*
Y144488D01*
X80709Y138976D02*
Y144488D01*
X92520D01*
X80709Y138976D02*
X92520D01*
X22244Y27756D02*
X28937D01*
X22244Y31299D02*
X28937D01*
Y27756D02*
Y31299D01*
X22244Y27756D02*
Y31299D01*
X22244Y39173D02*
X28937D01*
X22244Y35630D02*
X28937D01*
X22244D02*
Y39173D01*
X28937Y35630D02*
Y39173D01*
X22244Y49409D02*
X28937D01*
X22244Y52953D02*
X28937D01*
Y49409D02*
Y52953D01*
X22244Y49409D02*
Y52953D01*
X22244Y60827D02*
X28937D01*
X22244Y57284D02*
X28937D01*
X22244D02*
Y60827D01*
X28937Y57284D02*
Y60827D01*
X22244Y71063D02*
X28937D01*
X22244Y74606D02*
X28937D01*
Y71063D02*
Y74606D01*
X22244Y71063D02*
Y74606D01*
X22244Y82480D02*
X28937D01*
X22244Y78937D02*
X28937D01*
X22244D02*
Y82480D01*
X28937Y78937D02*
Y82480D01*
X22244Y92716D02*
X28937D01*
X22244Y96260D02*
X28937D01*
Y92716D02*
Y96260D01*
X22244Y92716D02*
Y96260D01*
X22244Y104134D02*
X28937D01*
X22244Y100591D02*
X28937D01*
X22244D02*
Y104134D01*
X28937Y100591D02*
Y104134D01*
X22244Y114370D02*
X28937D01*
X22244Y117913D02*
X28937D01*
Y114370D02*
Y117913D01*
X22244Y114370D02*
Y117913D01*
X22244Y125787D02*
X28937D01*
X22244Y122244D02*
X28937D01*
X22244D02*
Y125787D01*
X28937Y122244D02*
Y125787D01*
X47244Y52362D02*
Y57874D01*
X35433Y52362D02*
Y57874D01*
X47244D01*
X35433Y52362D02*
X47244D01*
Y74016D02*
Y79528D01*
X35433Y74016D02*
Y79528D01*
X47244D01*
X35433Y74016D02*
X47244D01*
Y95669D02*
Y101181D01*
X35433Y95669D02*
Y101181D01*
X47244D01*
X35433Y95669D02*
X47244D01*
Y117323D02*
Y122835D01*
X35433Y117323D02*
Y122835D01*
X47244D01*
X35433Y117323D02*
X47244D01*
X67520Y92716D02*
Y96260D01*
X74213Y92716D02*
Y96260D01*
X67520D02*
X74213D01*
X67520Y92716D02*
X74213D01*
X67520Y104134D02*
X74213D01*
X67520Y100591D02*
X74213D01*
X67520D02*
Y104134D01*
X74213Y100591D02*
Y104134D01*
X67520Y114370D02*
X74213D01*
X67520Y117913D02*
X74213D01*
Y114370D02*
Y117913D01*
X67520Y114370D02*
Y117913D01*
X67520Y125787D02*
X74213D01*
X67520Y122244D02*
X74213D01*
X67520D02*
Y125787D01*
X74213Y122244D02*
Y125787D01*
X92520Y95669D02*
Y101181D01*
X80709Y95669D02*
Y101181D01*
X92520D01*
X80709Y95669D02*
X92520D01*
X268307Y82480D02*
X275000D01*
X268307Y78937D02*
X275000D01*
X268307D02*
Y82480D01*
X275000Y78937D02*
Y82480D01*
X287992Y78937D02*
X294685D01*
X287992Y82480D02*
X294685D01*
Y78937D02*
Y82480D01*
X287992Y78937D02*
Y82480D01*
X257677Y61614D02*
Y68307D01*
X254134Y61614D02*
Y68307D01*
X257677D01*
X254134Y61614D02*
X257677D01*
X74606D02*
Y68307D01*
X71063Y61614D02*
Y68307D01*
X74606D01*
X71063Y61614D02*
X74606D01*
X567520Y208465D02*
X574213D01*
X567520Y204921D02*
X574213D01*
X567520D02*
Y208465D01*
X574213Y204921D02*
Y208465D01*
X532087D02*
X538780D01*
X532087Y204921D02*
X538780D01*
X532087D02*
Y208465D01*
X538780Y204921D02*
Y208465D01*
X496654D02*
X503346D01*
X496654Y204921D02*
X503346D01*
X496654D02*
Y208465D01*
X503346Y204921D02*
Y208465D01*
X461221D02*
X467913D01*
X461221Y204921D02*
X467913D01*
X461221D02*
Y208465D01*
X467913Y204921D02*
Y208465D01*
X425787Y204921D02*
X432480D01*
X425787Y208465D02*
X432480D01*
Y204921D02*
Y208465D01*
X425787Y204921D02*
Y208465D01*
X390354D02*
X397047D01*
X390354Y204921D02*
X397047D01*
X390354D02*
Y208465D01*
X397047Y204921D02*
Y208465D01*
X319488Y204921D02*
X326181D01*
X319488Y208465D02*
X326181D01*
Y204921D02*
Y208465D01*
X319488Y204921D02*
Y208465D01*
X580905Y217126D02*
Y223819D01*
X584449Y217126D02*
Y223819D01*
X580905Y217126D02*
X584449D01*
X580905Y223819D02*
X584449D01*
X545472Y217126D02*
Y223819D01*
X549016Y217126D02*
Y223819D01*
X545472Y217126D02*
X549016D01*
X545472Y223819D02*
X549016D01*
X510039Y217126D02*
Y223819D01*
X513583Y217126D02*
Y223819D01*
X510039Y217126D02*
X513583D01*
X510039Y223819D02*
X513583D01*
X474606Y217126D02*
Y223819D01*
X478150Y217126D02*
Y223819D01*
X474606Y217126D02*
X478150D01*
X474606Y223819D02*
X478150D01*
X439173Y217126D02*
Y223819D01*
X442717Y217126D02*
Y223819D01*
X439173Y217126D02*
X442717D01*
X439173Y223819D02*
X442717D01*
X403740Y217126D02*
Y223819D01*
X407283Y217126D02*
Y223819D01*
X403740Y217126D02*
X407283D01*
X403740Y223819D02*
X407283D01*
X368307Y217126D02*
Y223819D01*
X371850Y217126D02*
Y223819D01*
X368307Y217126D02*
X371850D01*
X368307Y223819D02*
X371850D01*
X332874Y217126D02*
Y223819D01*
X336417Y217126D02*
Y223819D01*
X332874Y217126D02*
X336417D01*
X332874Y223819D02*
X336417D01*
X568110Y226378D02*
X573622D01*
X568110Y214567D02*
X573622D01*
X568110D02*
Y226378D01*
X573622Y214567D02*
Y226378D01*
X532677D02*
X538189D01*
X532677Y214567D02*
X538189D01*
X532677D02*
Y226378D01*
X538189Y214567D02*
Y226378D01*
X497244D02*
X502756D01*
X497244Y214567D02*
X502756D01*
X497244D02*
Y226378D01*
X502756Y214567D02*
Y226378D01*
X461811D02*
X467323D01*
X461811Y214567D02*
X467323D01*
X461811D02*
Y226378D01*
X467323Y214567D02*
Y226378D01*
X426378D02*
X431890D01*
X426378Y214567D02*
X431890D01*
X426378D02*
Y226378D01*
X431890Y214567D02*
Y226378D01*
X390945D02*
X396457D01*
X390945Y214567D02*
X396457D01*
X390945D02*
Y226378D01*
X396457Y214567D02*
Y226378D01*
X355512D02*
X361024D01*
X355512Y214567D02*
X361024D01*
X355512D02*
Y226378D01*
X361024Y214567D02*
Y226378D01*
X320079D02*
X325591D01*
X320079Y214567D02*
X325591D01*
X320079D02*
Y226378D01*
X325591Y214567D02*
Y226378D01*
X110827Y78937D02*
X117520D01*
X110827Y82480D02*
X117520D01*
Y78937D02*
Y82480D01*
X110827Y78937D02*
Y82480D01*
X95079Y78937D02*
X101772D01*
X95079Y82480D02*
X101772D01*
Y78937D02*
Y82480D01*
X95079Y78937D02*
Y82480D01*
X260433Y104134D02*
X267126D01*
X260433Y100591D02*
X267126D01*
X260433D02*
Y104134D01*
X267126Y100591D02*
Y104134D01*
X244685D02*
X251378D01*
X244685Y100591D02*
X251378D01*
X244685D02*
Y104134D01*
X251378Y100591D02*
Y104134D01*
X126575Y100591D02*
X133268D01*
X126575Y104134D02*
X133268D01*
Y100591D02*
Y104134D01*
X126575Y100591D02*
Y104134D01*
X110827Y100591D02*
X117520D01*
X110827Y104134D02*
X117520D01*
Y100591D02*
Y104134D01*
X110827Y100591D02*
Y104134D01*
X126575Y114370D02*
X133268D01*
X126575Y117913D02*
X133268D01*
Y114370D02*
Y117913D01*
X126575Y114370D02*
Y117913D01*
X244685Y117913D02*
X251378D01*
X244685Y114370D02*
X251378D01*
X244685D02*
Y117913D01*
X251378Y114370D02*
Y117913D01*
X586811Y154134D02*
Y160827D01*
X590354Y154134D02*
Y160827D01*
X586811Y154134D02*
X590354D01*
X586811Y160827D02*
X590354D01*
X590354Y185630D02*
Y192323D01*
X586811Y185630D02*
Y192323D01*
X590354D01*
X586811Y185630D02*
X590354D01*
X554921D02*
Y192323D01*
X551378Y185630D02*
Y192323D01*
X554921D01*
X551378Y185630D02*
X554921D01*
X515945Y154724D02*
Y161417D01*
X519488Y154724D02*
Y161417D01*
X515945Y154724D02*
X519488D01*
X515945Y161417D02*
X519488D01*
X519488Y185630D02*
Y192323D01*
X515945Y185630D02*
Y192323D01*
X519488D01*
X515945Y185630D02*
X519488D01*
X480512Y154134D02*
Y160827D01*
X484055Y154134D02*
Y160827D01*
X480512Y154134D02*
X484055D01*
X480512Y160827D02*
X484055D01*
X484055Y185630D02*
Y192323D01*
X480512Y185630D02*
Y192323D01*
X484055D01*
X480512Y185630D02*
X484055D01*
X445079Y154134D02*
Y160827D01*
X448622Y154134D02*
Y160827D01*
X445079Y154134D02*
X448622D01*
X445079Y160827D02*
X448622D01*
Y185630D02*
Y192323D01*
X445079Y185630D02*
Y192323D01*
X448622D01*
X445079Y185630D02*
X448622D01*
X409646Y154134D02*
Y160827D01*
X413189Y154134D02*
Y160827D01*
X409646Y154134D02*
X413189D01*
X409646Y160827D02*
X413189D01*
Y185630D02*
Y192323D01*
X409646Y185630D02*
Y192323D01*
X413189D01*
X409646Y185630D02*
X413189D01*
X374213Y154134D02*
Y160827D01*
X377756Y154134D02*
Y160827D01*
X374213Y154134D02*
X377756D01*
X374213Y160827D02*
X377756D01*
Y185630D02*
Y192323D01*
X374213Y185630D02*
Y192323D01*
X377756D01*
X374213Y185630D02*
X377756D01*
X342323D02*
Y192323D01*
X338780Y185630D02*
Y192323D01*
X342323D01*
X338780Y185630D02*
X342323D01*
X338780Y154134D02*
Y160827D01*
X342323Y154134D02*
Y160827D01*
X338780Y154134D02*
X342323D01*
X338780Y160827D02*
X342323D01*
D69*
X471002Y114173D02*
D03*
X435569D02*
D03*
X579270D02*
D03*
X541868D02*
D03*
X506435D02*
D03*
X329270D02*
D03*
X400136D02*
D03*
X364703D02*
D03*
D70*
X170210Y267717D02*
D03*
M02*
